<svg width="625" height="460" viewBox="0 0 625 460" fill="none" xmlns="http://www.w3.org/2000/svg">
<path d="M167.807 165.681C167.83 165.681 167.892 165.683 167.877 165.683L167.879 165.681C102.751 157.805 77.9429 117.246 85.4339 53.0287C87.396 43.3146 74.5416 38.6767 70.2956 47.8283C35.659 122.496 78.4815 207.298 163.029 209.868C193.091 213.46 198.041 168.378 167.807 165.681Z" fill="#AA5635"/>
<path d="M100.653 376.768H252.86C252.543 360.923 251.96 335.551 250.25 325.947H102.467C101.084 342.348 100.543 359.454 100.653 376.768Z" fill="#E8C0A6"/>
<path d="M186.219 142.466H166.54V165.958H186.219V142.466Z" fill="#AA5635"/>
<path d="M101.783 314.559C101.871 318.698 102.094 322.52 102.465 325.947C102.465 325.947 194.363 343.512 251.627 325.947C252.056 322.446 252.476 318.63 252.836 314.559C256.684 271.031 254 198.033 191.607 161.978C191.607 161.978 192.287 156.368 186.007 153.371C186.007 153.371 177.084 155.698 166.326 153.305C166.326 153.305 160.305 156.073 161.516 161.953C141.535 176.572 118.971 185.994 113.909 209.667C107.031 241.837 101.178 285.801 101.783 314.559Z" fill="#E8C0A6"/>
<path d="M144.074 112.698C146.463 123.853 159.936 120.973 157.655 109.795C155.266 98.6395 141.79 101.52 144.074 112.698Z" fill="#AA5635"/>
<path d="M209.917 112.698C207.528 123.853 194.055 120.973 196.336 109.795C198.725 98.6395 212.199 101.52 209.917 112.698Z" fill="#AA5635"/>
<path d="M149.297 124.75C150.834 162.104 210.096 156.628 204.247 119.116C203.438 111.677 200.804 106.729 199.568 94.8715C196.707 67.4235 158.122 65.9619 154.653 94.6659C153.292 105.988 149.212 114.336 149.297 124.75Z" fill="#AA5635"/>
<path d="M169.564 107.936C170.453 106.23 167.783 104.859 166.942 106.589C166.055 108.297 168.726 109.669 169.564 107.936Z" fill="#7C3021"/>
<path d="M187.185 107.972C188.074 106.266 185.404 104.895 184.564 106.626C183.674 108.331 186.345 109.702 187.185 107.972Z" fill="#7C3021"/>
<path d="M178.286 119.615C180.977 119.584 185.16 117.749 181.759 115.332C178.979 113.812 176.941 107.992 176.921 107.934C176.695 107.245 175.62 107.617 175.87 108.304C175.96 108.559 178.076 114.593 181.227 116.319C183.406 117.668 178.865 118.974 176.992 118.307C176.697 118.212 176.387 118.375 176.293 118.671C176.134 119.683 177.589 119.541 178.286 119.615Z" fill="#7C3021"/>
<path d="M195.145 93.1293C181.815 99.387 166.52 79.01 158.354 88.3536L157.355 82.6448L172.9 75.2734L197.708 84.0048L195.145 93.1293Z" fill="#7C3021"/>
<path d="M153.022 103.311C153.022 103.311 157.67 94.2996 158.354 88.3514C159.036 82.4032 166.938 81.3663 173.428 86.0223C179.917 90.6783 188.016 92.795 196.531 89.621C205.043 86.447 210.552 73.4007 201.892 65.704C193.319 58.0841 184.4 64.021 176.688 66.9736C166.735 70.787 141.728 63.1015 153.022 103.311Z" fill="#3D0B0B"/>
<path d="M200.696 102.884C200.696 102.884 193.737 94.9142 193.317 84.3326L200.77 81.3687C200.772 81.3687 203.807 91.6656 200.696 102.884Z" fill="#3D0B0B"/>
<path d="M146.894 114.924C147.252 114.928 147.525 114.56 147.413 114.214C145.511 108.734 147.484 105.932 151.766 107.59C152.416 107.864 152.823 106.816 152.162 106.567C147.636 104.697 143.92 107.595 146.374 114.533C146.445 114.772 146.662 114.924 146.894 114.924Z" fill="#7C3021"/>
<path d="M151.965 114.155C153.652 114.019 150.437 108.755 146.316 108.473C146.018 108.457 145.757 108.683 145.737 108.986C145.717 109.288 145.942 109.551 146.242 109.571C150.459 110.011 150.968 114.012 151.965 114.155Z" fill="#7C3021"/>
<path d="M206.755 114.923C206.987 114.923 207.202 114.772 207.273 114.535C209.729 107.592 206.002 104.698 201.483 106.569C200.826 106.82 201.226 107.859 201.879 107.592C205.754 105.984 208.283 108.421 206.232 114.216C206.125 114.559 206.397 114.928 206.755 114.923Z" fill="#7C3021"/>
<path d="M201.682 114.155C202.667 114.024 203.21 110.003 207.403 109.571C207.702 109.551 207.928 109.289 207.908 108.986C207.888 108.683 207.624 108.455 207.329 108.473C203.21 108.758 199.997 114.012 201.682 114.155Z" fill="#7C3021"/>
<path d="M204.453 119.509C204.319 118.648 204.149 117.771 203.941 116.877C203.639 115.555 203.257 114.202 202.792 112.81C202.792 112.808 202.792 112.808 202.792 112.806C202.672 112.291 202.56 111.762 202.453 111.22C202.218 110.061 201.999 108.843 201.764 107.621C201.7 107.271 201.63 106.925 201.563 106.575C201.561 106.564 201.559 106.55 201.554 106.539C201.355 105.545 201.143 104.553 200.902 103.591C200.882 103.512 200.862 103.428 200.841 103.349C200.795 103.182 200.752 103.01 200.705 102.846C200.254 101.187 199.7 99.6241 198.962 98.2822C199.179 99.2785 199.384 100.338 199.574 101.434C199.713 102.218 199.845 103.024 199.97 103.842C200.855 109.584 201.431 115.865 201.704 119.68V119.683C202.786 126.489 198.175 127.876 193.324 125.821C167.313 111.36 153.536 137.159 151.891 119.73C151.829 117.887 151.938 116.003 152.155 114.107C152.197 113.737 152.244 113.364 152.293 112.993C152.707 109.941 153.366 106.858 154.005 103.835C154.338 102.27 154.665 100.72 154.948 99.1994C155.125 98.2619 155.286 97.3334 155.422 96.4185C154.627 98.6437 153.905 100.636 153.237 102.672C153.237 102.672 153.237 102.672 153.232 102.672H153.23C153.165 102.875 153.105 103.092 153.031 103.288V103.297C153.029 103.302 153.029 103.306 153.026 103.311C152.673 104.4 152.349 105.468 152.052 106.523C151.952 106.878 151.853 107.23 151.762 107.583C151.46 108.697 151.185 109.801 150.93 110.92C150.819 111.408 150.709 111.9 150.604 112.395C150.128 114.629 149.715 116.933 149.303 119.436C149.303 119.45 149.301 119.461 149.299 119.475C148.043 136.045 156.155 145.716 166.547 149.326C172.8 151.504 179.873 151.484 186.228 149.453C197.784 145.762 206.965 135.413 204.453 119.509ZM163.179 127.637C171.358 122.814 183.585 123.74 191.149 129.327C195.61 132.376 195.085 139.292 190.106 141.383C179.75 145.823 180.279 134.482 176.963 134.401C172.835 134.297 173.72 141.862 168.25 141.695C161.241 141.451 155.496 132.322 163.179 127.637Z" fill="#3D0B0B"/>
<path d="M161.561 161.878C161.548 161.903 161.53 161.928 161.519 161.953C176.715 165.936 191.853 161.967 191.82 161.978C191.82 161.978 192.499 156.366 186.22 153.368C186.22 153.368 177.296 155.698 166.54 153.305C166.54 153.305 160.35 155.996 161.561 161.878Z" fill="#D1A68F"/>
<path d="M191.82 161.975C191.82 161.975 203.95 207.342 232.477 250.098C238.386 258.951 245.966 266.456 254.279 272.795C266.15 281.842 279.501 288.516 291.591 293.323C311.954 301.429 328.717 304.248 328.717 304.248C334.358 294.272 332.945 286.435 332.945 286.435C311.802 270.05 300.521 257.218 268.801 212.676C237.083 168.127 191.82 161.975 191.82 161.975Z" fill="#E8C0A6"/>
<path d="M217.906 203.703C242.053 232.186 253.971 272.307 253.971 272.307L254.279 272.793C266.15 281.841 279.501 288.514 291.591 293.321C291.591 293.321 257.439 262.58 246.328 241.997C235.389 221.731 218.434 204.245 217.906 203.703Z" fill="#D1A68F"/>
<path d="M238.421 189.924C238.421 189.924 315.72 242.286 330.096 207.923C345.4 171.35 323.555 158.39 325.883 134.866L272.535 104.729C272.535 104.729 263.312 108.373 249.729 147.763C240.886 173.415 238.421 189.924 238.421 189.924Z" fill="#4F1237"/>
<path d="M301.475 226.992C322.216 238.202 338.355 258.188 362.214 263.928C408.259 276.245 428.879 234.158 434.251 195.137C435.291 188.212 435.983 181.306 436.276 174.324C436.951 168.902 435.259 163.99 429.181 163.512C423.958 163.426 421.739 167.621 421.055 172.173C420.389 174.823 419.672 177.47 418.908 180.098C414.907 193.551 409.884 207.105 402.205 218.782C396.701 226.879 388.577 236.234 378.098 232.769C370.813 230.661 365.146 226.387 359.521 221.123C348.137 210.164 337.576 197.676 323.993 188.929C298.237 171.891 274.374 212.078 301.475 226.992Z" fill="#AA5635"/>
<path d="M292.194 102.098C317.597 90.6873 334.603 131.473 321.398 152.539L292.194 102.098Z" fill="#4F1237"/>
<path d="M338.434 329.995H252.516C252.074 295.652 255.993 260.932 263.974 227.581C268.736 208.117 271.473 192.554 289.823 182.153C288.516 170.627 290.299 154.005 291.89 147.158C292.726 143.459 295.345 140.663 298.286 139.734C305.813 137.091 314.723 143.575 312.408 152.15C311.726 151.716 309.54 176.167 311.049 182.955C348.34 194.987 329.332 237.815 331.879 266.551C332.074 287.662 334.089 309.354 338.434 329.995Z" fill="#AA5635"/>
<path d="M312.609 151.034C312.557 151.407 312.49 151.784 312.405 152.148C311.914 151.818 310.535 165.309 310.524 175.103C301.422 179.286 291.273 177.447 289.416 177.061C289.968 163.617 288.391 143.383 298.284 139.734C305.39 136.662 313.86 143.206 312.609 151.034Z" fill="#7C3021"/>
<path d="M270.137 141.435C271.666 151.021 274.868 161.828 282.357 168.17H282.37C285.396 170.711 289.083 172.329 292.992 173.106C315.121 179.361 341.073 153.357 323.78 134.416C317.496 128.547 316.162 118.149 311.154 112.309C303.871 101.624 287.886 102.177 279.253 110.893C271.451 118.772 268.785 129.632 270.137 141.435Z" fill="#AA5635"/>
<path d="M101.783 314.559C101.871 318.698 102.094 322.52 102.465 325.947C102.465 325.947 194.363 343.512 251.627 325.947C252.056 322.446 252.476 318.63 252.836 314.559H252.833C187.1 332.189 101.783 314.559 101.783 314.559Z" fill="#D1A68F"/>
<path d="M306.329 135.523C307.196 133.856 304.588 132.519 303.77 134.209C302.903 135.876 305.511 137.216 306.329 135.523Z" fill="#7C3021"/>
<path d="M315.009 184.437C315.009 184.437 315.013 185.731 315.089 187.986C315.494 199.948 317.923 238.91 332.456 254.5C333.097 255.19 333.767 255.856 334.458 256.504C336.99 258.872 339.851 260.964 342.946 262.778C349.822 266.817 357.865 269.499 366.064 270.847C380.318 273.194 395.067 271.509 405.054 265.9C420.407 257.279 425.893 234.081 427.442 225.435C427.813 223.361 427.958 222.125 427.958 222.125C412.802 224.619 405.606 213.103 405.606 213.103C405.099 213.812 404.589 214.487 404.075 215.131C387.822 235.529 368.585 223.892 355.715 210.037C342.481 195.791 325.64 188.35 318.479 185.643C316.292 184.821 315.009 184.437 315.009 184.437Z" fill="#1D3F70"/>
<path d="M331.7 213.105L334.458 256.507C342.617 264.132 354.171 268.896 366.067 270.85C355.742 266.452 346.383 259.555 344.722 248.84C340.753 223.235 331.7 213.105 331.7 213.105Z" fill="#10325B"/>
<path d="M404.075 215.134C412.172 228.68 427.44 225.44 427.44 225.44L427.442 225.438C427.813 223.364 427.958 222.128 427.958 222.128C412.802 224.622 405.606 213.105 405.606 213.105C405.099 213.815 404.592 214.49 404.075 215.134Z" fill="#10325B"/>
<path d="M318.399 133.475C319.266 131.807 316.658 130.47 315.84 132.16C314.971 133.825 317.579 135.164 318.399 133.475Z" fill="#7C3021"/>
<path d="M313.836 146.094C316.464 146.063 320.551 144.271 317.228 141.91C314.517 140.426 312.522 134.742 312.504 134.686C309.699 132.546 313.69 141.398 316.712 142.877C318.839 144.194 314.408 145.471 312.575 144.82C312.289 144.727 311.983 144.886 311.891 145.175C311.735 146.16 313.154 146.022 313.836 146.094Z" fill="#7C3021"/>
<path d="M248.61 301.871C252.011 322.278 252.596 342.397 253.068 363.005H364.136C356.73 325.187 350.242 304.596 344.479 284.282C343.377 259.362 340.255 233.857 331.703 213.107C327.224 202.094 321.34 193.225 315.009 184.437C306.68 189.911 290.395 198.125 284.632 185.53C240.345 189.608 244.878 270.87 248.61 301.871Z" fill="#1D3F70"/>
<path d="M270.137 141.436C271.666 151.021 274.868 161.829 282.357 168.17H282.37C278.218 162.96 275.63 151.303 275.63 151.303L277.592 146.119C310.519 135.375 307.697 108.643 307.697 108.643C302.785 104.303 296.152 103.426 289.843 105.012C274.383 109.052 268.193 125.929 270.137 141.436Z" fill="#7C3021"/>
<path d="M304.197 106.263C304.197 106.263 306.848 132.625 277.378 143.446L266.801 137.545C256.487 117.089 275.161 87.0454 304.197 106.263Z" fill="#4F1237"/>
<path d="M269.804 98.1449C276.638 123.25 305.547 115.678 299.462 90.3782C292.63 65.2729 263.719 72.8476 269.804 98.1449Z" fill="#4F1237"/>
<path d="M264.114 146.281C266.448 157.177 279.608 154.364 277.378 143.446C275.045 132.55 261.886 135.363 264.114 146.281Z" fill="#AA5635"/>
<path d="M267.536 148.531C267.893 148.536 268.166 148.167 268.054 147.822C266.001 142.025 268.542 139.59 272.408 141.2C273.056 141.471 273.465 140.425 272.803 140.177C268.278 138.306 264.561 141.205 267.015 148.143C267.087 148.38 267.303 148.531 267.536 148.531Z" fill="#7C3021"/>
<path d="M272.606 147.766C274.294 147.63 271.078 142.366 266.957 142.084C266.666 142.066 266.398 142.294 266.378 142.597C266.358 142.9 266.584 143.162 266.883 143.182C271.1 143.62 271.61 147.623 272.606 147.766Z" fill="#7C3021"/>
<path d="M270.052 151.306C270.03 152.905 272.515 152.905 272.49 151.306C272.515 149.706 270.03 149.706 270.052 151.306Z" fill="#F4D4BE"/>
<path d="M341.247 275.691C341.54 275.689 341.605 275.696 341.755 275.703C341.884 275.709 342.005 275.721 342.123 275.734C342.36 275.759 342.588 275.798 342.814 275.84C343.265 275.931 343.708 276.066 344.128 276.252C344.548 276.432 344.946 276.667 345.279 276.945C345.623 277.219 345.884 277.535 346.101 277.856C346.745 278.809 346.171 280.049 344.818 280.627C343.866 281.034 342.783 281.005 342 280.616L340.814 280.024C340.791 280.013 340.841 280.04 340.829 280.038C340.829 280.038 340.809 280.027 340.778 280.022L340.731 280.015C340.724 280.015 340.722 280.013 340.722 280.013H340.847C339.249 280.051 338.043 279.116 338.152 277.921C338.264 276.726 339.649 275.73 341.247 275.691Z" fill="#AA5635"/>
<path d="M342.483 279.724C342.718 279.76 342.785 279.776 342.917 279.801L343.245 279.877C343.46 279.929 343.663 279.99 343.869 280.058C344.275 280.194 344.678 280.363 345.069 280.578C345.46 280.79 345.838 281.066 346.166 281.393C346.499 281.719 346.761 282.121 346.937 282.539C347.38 283.648 346.488 284.904 344.948 285.347C343.408 285.789 341.802 285.25 341.359 284.143C341.37 284.197 341.422 284.201 341.31 284.136C341.256 284.106 341.174 284.07 341.073 284.036C341.022 284.021 340.968 284.002 340.914 283.991L340.841 283.973C340.836 283.971 340.767 283.96 340.863 283.975C339.323 283.759 338.441 282.633 338.887 281.459C339.334 280.284 340.943 279.507 342.483 279.724Z" fill="#AA5635"/>
<path d="M343.931 283.905L346.336 284.946C347.657 285.52 347.994 286.833 347.087 287.879C346.179 288.927 344.374 289.311 343.053 288.737L340.648 287.696C339.328 287.124 338.99 285.809 339.898 284.763C340.805 283.717 342.611 283.333 343.931 283.905Z" fill="#AA5635"/>
<path d="M344.53 287.737L346.935 288.778C348.256 289.35 348.593 290.665 347.686 291.711C346.778 292.759 344.973 293.143 343.652 292.569L341.247 291.528C339.927 290.954 339.589 289.641 340.496 288.595C341.404 287.55 343.209 287.163 344.53 287.737Z" fill="#AA5635"/>
<path d="M56.3707 141.286C59.0972 156.113 67.0149 169.01 76.4881 179.68C76.4903 179.682 76.4903 179.682 76.4926 179.682C89.034 193.808 104.311 204.033 113.905 209.667C119.548 212.979 123.226 214.707 123.226 214.707L161.516 161.953C117.69 151.92 101.021 124.481 94.4422 110.468C89.376 99.6762 86.6451 72.6846 85.6596 60.8379C85.3646 57.2979 85.2238 55.1089 85.2238 55.1089C72.3806 56.889 68.0451 52.7368 68.0451 52.7368C68.0451 52.7368 67.2071 54.5034 65.9489 57.7068C61.028 70.2222 49.6352 104.662 56.3707 141.286Z" fill="#E8C0A6"/>
<path d="M281.164 185.919C288.328 202.844 307.317 192.97 315.09 187.988C315.72 187.584 316.276 187.211 316.748 186.888C317.849 186.134 318.48 185.646 318.48 185.646C316.292 184.821 315.009 184.437 315.009 184.437C289.218 201.118 284.632 185.53 284.632 185.53C283.441 185.598 282.285 185.727 281.164 185.919Z" fill="#10325B"/>
<path d="M347.614 363.367L350.989 362.639C348.412 350.442 345.004 338.112 341.71 326.189C339.828 319.377 337.882 312.334 336.094 305.339C334.395 298.693 333.017 292.772 331.881 287.237C331.419 285.001 330.992 282.796 330.61 280.677C329.801 276.211 329.128 271.826 328.612 267.64C328.236 264.606 327.932 261.588 327.707 258.671C327.204 252.172 326.536 245.844 325.72 239.866C324.625 231.851 323.248 224.342 321.63 217.551C321.114 215.382 320.558 213.227 319.977 211.144C319.333 208.842 318.649 206.608 317.945 204.503C315.252 196.456 312.823 191.926 311.614 189.943C311.199 189.261 310.951 188.919 310.924 188.883L308.153 190.962C308.153 190.962 308.343 191.226 308.678 191.773C309.587 193.268 311.996 197.612 314.678 205.621C315.364 207.67 316.03 209.845 316.658 212.091C317.228 214.131 317.773 216.241 318.278 218.367C319.869 225.047 321.224 232.441 322.303 240.343C323.108 246.255 323.769 252.513 324.267 258.945C324.498 261.915 324.806 264.985 325.188 268.074C325.713 272.323 326.395 276.776 327.215 281.305C327.602 283.451 328.035 285.688 328.502 287.949C329.649 293.538 331.039 299.513 332.753 306.214C334.547 313.24 336.498 320.301 338.384 327.128C341.667 339 345.057 351.276 347.614 363.367Z" fill="#10325B"/>
<path d="M312.678 363.087L316.124 362.919C315.572 351.208 314.924 340.087 314.202 329.869C312.942 312.029 311.451 296.963 309.773 285.087C309.268 281.515 308.74 278.19 308.2 275.203C307.871 273.369 307.558 271.544 307.268 269.777C305.884 261.339 304.716 252.314 303.79 242.953C303.004 234.976 302.389 226.748 301.969 218.498C301.276 204.905 301.323 195.857 301.332 194.87V194.651H297.882V194.856C297.873 195.839 297.824 204.984 298.523 218.679C298.948 226.985 299.565 235.269 300.358 243.3C301.29 252.737 302.47 261.836 303.864 270.346C304.155 272.131 304.472 273.974 304.805 275.829C305.337 278.775 305.858 282.055 306.356 285.582C308.023 297.376 309.503 312.361 310.758 330.117C311.483 340.31 312.128 351.402 312.678 363.087Z" fill="#10325B"/>
<path d="M282.2 363.032L285.649 362.976C285.474 352.082 285.195 340.968 284.82 329.934C284.335 315.695 283.684 301.361 282.884 287.33C282.647 283.178 282.446 278.933 282.29 274.709C281.999 266.849 281.863 258.938 281.881 251.194C281.89 247.604 281.934 244.003 282.01 240.492C282.191 232.204 282.556 224.128 283.094 216.485C283.17 215.367 283.253 214.251 283.347 213.069C284.446 199.029 285.778 191.149 285.792 191.07L282.393 190.476C282.337 190.799 281.02 198.573 279.908 212.794C279.814 213.989 279.731 215.116 279.653 216.243C279.11 223.938 278.743 232.07 278.562 240.416C278.484 243.949 278.439 247.572 278.43 251.185C278.41 258.974 278.549 266.933 278.842 274.84C278.998 279.087 279.199 283.356 279.438 287.531C280.236 301.535 280.886 315.842 281.371 330.054C281.749 341.065 282.028 352.162 282.2 363.032Z" fill="#10325B"/>
<path d="M264.11 363.149L267.547 362.858C266.667 352.202 265.913 341.112 265.31 329.9C264.675 318.069 264.202 305.933 263.902 293.829C263.714 286.216 263.828 278.551 264.24 271.046C264.34 269.194 264.465 267.276 264.622 265.182C265.321 256.023 266.479 246.903 268.063 238.077C269.824 228.266 272.115 218.775 274.868 209.865C275.185 208.84 275.496 207.857 275.793 206.942C279.487 195.579 282.665 189.278 282.696 189.215L279.628 187.62C279.494 187.882 276.305 194.199 272.517 205.853C272.215 206.784 271.898 207.785 271.576 208.824C268.781 217.869 266.456 227.502 264.671 237.453C263.066 246.395 261.893 255.635 261.185 264.915C261.026 267.038 260.899 268.979 260.798 270.854C260.38 278.449 260.266 286.209 260.456 293.915C260.756 306.053 261.232 318.225 261.868 330.087C262.472 341.335 263.227 352.457 264.11 363.149Z" fill="#10325B"/>
<path d="M289.823 182.152C289.823 182.152 288.679 197.143 289.823 214.599C290.967 232.057 276.457 238.88 275.811 254.144C274.676 280.98 246.777 273.62 243.613 247.019C241.718 231.095 232.817 222.463 238.421 189.923C241.988 169.202 289.823 182.152 289.823 182.152Z" fill="#4F1237"/>
<path d="M383.534 239.761C389.219 239.761 395.195 237.373 401.132 232.678C407.202 227.878 411.077 222.409 411.238 222.178L408.427 220.158C408.281 220.366 393.682 240.77 378.139 235.362C368.176 231.894 358.073 221.866 348.305 212.168C337.14 201.085 325.595 189.625 313.161 186.401L312.305 189.778C323.841 192.767 335.05 203.895 345.889 214.655C355.932 224.625 366.317 234.933 377.017 238.658C379.131 239.395 381.31 239.761 383.534 239.761Z" fill="#10325B"/>
<path d="M377.392 259.074C383.102 259.074 388.81 257.845 394.466 255.387C404.576 250.993 411.665 242.876 415.83 236.842C420.322 230.336 422.432 224.907 422.519 224.679L419.303 223.416C419.223 223.624 411.041 244.387 393.103 252.183C368.462 262.891 349.185 245.492 342.041 237.513L339.484 239.853C344.338 245.275 352.341 252.552 362.898 256.424C367.714 258.19 372.554 259.074 377.392 259.074Z" fill="#10325B"/>
<path d="M76.4949 179.682C89.0364 193.808 104.313 204.033 113.907 209.667C113.909 209.667 113.912 209.667 113.912 209.667C113.912 209.667 117.112 199.996 120.404 194.673C120.404 194.673 100.93 201.144 76.4949 179.682Z" fill="#D1A68F"/>
<path d="M312.756 150.081C312.743 150.076 312.729 150.067 312.714 150.058C312.388 149.893 312.026 149.76 311.641 149.679C309.692 149.254 307.835 150.18 307.502 151.737C307.337 152.518 307.567 153.327 308.159 154.016C308.711 154.662 309.523 155.13 310.441 155.329C310.763 155.401 311.08 155.433 311.391 155.433C311.512 155.433 311.628 155.428 311.742 155.417C311.744 155.419 311.744 155.419 311.746 155.417C312.394 155.365 312.991 155.162 313.469 154.841C314.035 154.464 314.441 153.924 314.58 153.271C314.841 152.037 314.066 150.768 312.756 150.081ZM313.576 153.056C313.429 153.75 312.754 154.231 311.885 154.362C311.885 154.362 311.885 154.362 311.883 154.362C311.5 154.421 311.085 154.409 310.658 154.314C309.956 154.163 309.342 153.815 308.935 153.336C308.562 152.9 308.412 152.412 308.508 151.954C308.682 151.138 309.585 150.61 310.676 150.61C310.917 150.61 311.172 150.637 311.427 150.693C311.865 150.786 312.26 150.957 312.589 151.177C312.6 151.179 312.609 151.188 312.618 151.197C313.228 151.608 313.606 152.191 313.606 152.776C313.606 152.873 313.594 152.966 313.576 153.056Z" fill="#7C3021"/>
<path d="M318.218 128.197C318.379 128.197 318.535 128.123 318.636 127.98C318.801 127.748 318.748 127.422 318.517 127.255C318.435 127.194 316.428 125.787 312.636 126.519C312.356 126.573 312.173 126.844 312.227 127.126C312.28 127.409 312.548 127.594 312.828 127.54C316.191 126.889 317.901 128.089 317.919 128.1C318.01 128.165 318.115 128.197 318.218 128.197Z" fill="#7C3021"/>
<path d="M299.611 131.676C299.759 131.676 299.904 131.613 300.007 131.489C303.002 127.856 306.17 128.188 306.202 128.193C306.483 128.227 306.74 128.023 306.774 127.739C306.807 127.454 306.606 127.194 306.325 127.16C306.173 127.142 302.568 126.76 299.22 130.822C299.039 131.044 299.068 131.371 299.287 131.554C299.379 131.635 299.495 131.676 299.611 131.676Z" fill="#7C3021"/>
<path d="M190.242 102.159C190.403 102.159 190.559 102.084 190.66 101.942C190.825 101.709 190.774 101.384 190.544 101.217C190.374 101.093 186.313 98.1919 180.094 98.1919C179.81 98.1919 179.58 98.4246 179.58 98.7115C179.58 98.9984 179.81 99.2311 180.094 99.2311C185.967 99.2311 189.905 102.032 189.943 102.062C190.034 102.127 190.139 102.159 190.242 102.159Z" fill="#7C3021"/>
<path d="M164.52 100.964C164.612 100.964 164.705 100.939 164.79 100.887C169.327 98.0544 173.897 99.0552 173.944 99.0642C174.221 99.1274 174.496 98.9512 174.559 98.6711C174.621 98.391 174.447 98.1131 174.17 98.0499C173.966 98.0024 169.141 96.9474 164.25 100.002C164.008 100.153 163.932 100.474 164.082 100.718C164.18 100.878 164.348 100.964 164.52 100.964Z" fill="#7C3021"/>
<path d="M177.768 128.593C181.113 128.593 183.086 128.053 183.218 128.014C183.583 127.91 183.795 127.529 183.694 127.16C183.591 126.792 183.214 126.578 182.85 126.679C182.778 126.7 177.672 128.073 169.899 126.259C169.53 126.173 169.162 126.406 169.077 126.779C168.992 127.151 169.222 127.524 169.591 127.61C172.813 128.362 175.582 128.593 177.768 128.593Z" fill="#7C3021"/>
<path d="M65.9512 57.7091C73.6835 64.0481 85.6596 60.8379 85.6596 60.8379C85.3646 57.2979 85.2238 55.1089 85.2238 55.1089C72.3806 56.889 68.0451 52.7368 68.0451 52.7368C68.0451 52.7368 67.2093 54.5057 65.9512 57.7091Z" fill="#D1A68F"/>
<path d="M99.095 31.8019C98.2928 31.1287 97.0949 31.3026 96.4848 32.1498C94.621 34.5625 92.5293 36.8216 90.1716 38.7283C89.6844 33.2025 90.775 27.4916 90.7504 27.4622C93.2265 21.0644 96.0423 14.8113 99.1375 8.68688C100.177 6.74858 97.2446 4.96164 96.0446 6.83669C92.3192 12.3873 88.8218 18.1231 85.6261 24.0103C85.5926 23.999 85.5613 23.9922 85.5278 23.9809C86.6809 16.8783 88.2229 9.82998 90.3415 2.95557C87.7536 -8.10495 80.4772 21.2248 79.7934 23.4794C79.7755 23.4817 79.7599 23.4817 79.742 23.4839C79.7085 16.6321 80.504 9.7735 82.008 3.08885C78.3251 -7.70283 73.4064 22.3499 73.498 24.9298C73.4735 24.9388 73.4466 24.9478 73.4221 24.9569C72.6198 19.5689 72.4969 14.0771 72.6533 8.62589C67.8285 -0.731271 67.2251 25.2754 67.4843 27.6113C67.0239 30.2251 65.7993 39.2162 68.9458 51.7203C69.9224 55.6218 81.8471 55.6782 84.683 52.9583C87.3424 50.4078 90.2253 46.2782 91.1996 44.742C93.2869 42.5823 101.585 34.5738 99.095 31.8019Z" fill="#AA5635"/>
<path d="M461.807 116.004C459.374 127.364 445.653 124.43 447.978 113.049C450.412 101.689 464.13 104.62 461.807 116.004Z" fill="#AA5635"/>
<path d="M458.587 118.268C458.223 118.273 457.945 117.898 458.058 117.545C459.996 111.966 457.984 109.109 453.625 110.802C452.962 111.078 452.548 110.014 453.22 109.76C457.828 107.856 461.611 110.807 459.115 117.872C459.044 118.113 458.823 118.268 458.587 118.268Z" fill="#7C3021"/>
<path d="M453.421 117.487C451.744 117.247 454.926 112.052 459.173 111.704C459.479 111.682 459.742 111.917 459.761 112.224C459.78 112.534 459.551 112.8 459.247 112.819C454.957 113.269 454.438 117.344 453.421 117.487Z" fill="#7C3021"/>
<path d="M390.349 116.004C392.782 127.364 406.503 124.43 404.177 113.049C401.746 101.689 388.025 104.62 390.349 116.004Z" fill="#AA5635"/>
<path d="M393.571 118.268C393.334 118.268 393.114 118.113 393.042 117.871C390.542 110.804 394.337 107.854 398.937 109.76C399.607 110.016 399.198 111.073 398.533 110.802C394.588 109.165 392.011 111.644 394.1 117.545C394.212 117.898 393.935 118.275 393.571 118.268Z" fill="#7C3021"/>
<path d="M398.734 117.486C397.732 117.353 397.177 113.258 392.908 112.818C392.605 112.799 392.373 112.53 392.394 112.223C392.416 111.916 392.681 111.679 392.983 111.703C397.177 111.991 400.45 117.341 398.734 117.486Z" fill="#7C3021"/>
<path d="M435.868 145.561H415.058V170.404H435.868V145.561Z" fill="#AA5635"/>
<path d="M415.058 145.561V156.717C426.788 160.853 435.868 156.717 435.868 156.717V145.561H415.058Z" fill="#7C3021"/>
<path d="M359.536 303.625C358.452 281.223 372.946 261.531 380.123 240.466C387.437 219.246 387.078 196.536 387.284 173.415C394.394 169.17 415.072 162.918 413.965 163.719C418.111 166.471 431.248 168.336 436.959 163.719C446.82 166.249 455.096 169.26 463.601 173.422C463.295 190.971 466.74 227.077 475.353 246.889C485.545 271.844 487.871 295.373 486.454 322.354C446.165 331.559 401.026 331.419 359.933 322.354C359.742 319.193 359.38 312.816 359.536 303.625Z" fill="#EB5648"/>
<path d="M380.894 258.029C380.925 258.124 380.958 258.218 380.987 258.312L381.432 257.865C381.248 257.904 381.068 257.957 380.894 258.029ZM396.392 200.754L396.481 200.665C396.469 200.626 396.392 200.754 396.392 200.754ZM414.778 233.52L414.769 233.53C414.785 233.544 414.8 233.554 414.819 233.561L414.778 233.52ZM486.662 306.182C483.141 302.627 476.011 295.417 472.446 291.814C472.681 291.577 484.547 279.581 484.777 279.349C484.315 276.729 483.787 274.212 483.177 271.663C480.217 274.657 470.949 284.029 467.848 287.163C463.049 282.314 456.443 275.629 451.68 270.814C455.35 267.104 464.283 258.073 467.848 254.474C472.305 258.98 478.131 264.869 482.61 269.396C481.44 264.845 480.059 260.412 478.571 256.017C477.124 254.549 473.918 251.318 472.444 249.826C473.296 248.967 474.497 247.756 475.351 246.887C474.521 244.58 473.693 242.304 472.906 240.062C472.332 240.643 468.513 244.508 467.848 245.177L451.68 228.833C454.981 225.493 463.113 217.275 466.822 213.521C466.104 208.745 465.544 204.372 465.104 200.413C461.931 197.209 454.917 190.117 451.68 186.845L463.032 175.369L463.568 174.828C463.573 173.952 463.594 173.48 463.599 173.415C461.86 172.552 460.049 171.715 458.23 170.929C455.419 173.771 448.038 181.232 447.084 182.197C442.194 177.258 436.033 171.026 431.152 166.099C427.942 166.863 424.506 166.791 421.384 166.191C417.62 169.995 409.235 178.472 405.548 182.199L393.822 170.346C391.722 171.255 389.602 172.247 387.535 173.285C391.729 177.524 396.765 182.615 400.95 186.845C396.801 191.039 390.92 196.984 386.657 201.293C386.382 205.335 386.037 209.357 385.628 213.338C389.734 217.488 399.342 227.208 400.95 228.833C396.983 232.843 388.779 241.136 384.781 245.177L380.121 240.461C379.312 242.723 378.451 244.943 377.554 247.161C378.025 247.637 379.755 249.388 380.185 249.823C378.334 251.69 375.388 254.665 373.539 256.532C370.616 263.103 367.479 269.634 364.809 276.263C369.199 280.698 375.824 287.402 380.185 291.811C376.135 295.903 367.981 304.141 364.012 308.151L359.531 303.621C359.416 309.781 359.565 316.134 359.883 321.62C359.883 321.62 364.01 317.445 364.01 317.443C364.61 318.05 370.69 324.198 371.084 324.597C374.766 325.259 378.415 325.837 382.004 326.338C381.695 326.026 369.407 313.602 368.608 312.794C373.051 308.303 380.343 300.934 384.779 296.455C387.724 299.432 397.835 309.65 400.947 312.794L386.913 326.981C389.679 327.315 392.492 327.622 395.229 327.869C396.208 326.885 404.354 318.642 405.543 317.443C406.972 318.887 415.872 327.893 417.068 329.1C423.472 329.228 429.499 329.165 435.739 328.909C436.356 328.28 446.139 318.393 447.079 317.443C447.612 317.982 456.584 327.056 456.864 327.339C459.63 327.032 462.338 326.698 465.054 326.319C462.561 323.799 454.012 315.157 451.677 312.797C456.635 307.788 462.893 301.459 467.846 296.457C471.504 300.15 480.248 308.992 484.014 312.797L471.614 325.332C476.576 324.519 480.418 323.736 482.947 323.177L486.528 319.557C486.636 315.387 486.679 310.693 486.662 306.182ZM426.315 287.163C423.07 283.883 413.221 273.919 410.146 270.814C414.895 266.013 421.556 259.285 426.315 254.474C431.006 259.21 437.77 266.049 442.488 270.814L426.315 287.163ZM436.066 222.349L442.485 228.838C438.741 232.623 429.932 241.523 426.312 245.182C421.343 240.159 415.12 233.868 410.144 228.838C410.819 228.156 425.248 213.565 426.312 212.489L436.066 222.349ZM392.002 247.18L405.548 233.484L421.716 249.828C418.922 252.653 408.127 263.563 405.548 266.168C401.555 262.131 393.413 253.901 389.384 249.828L392.002 247.18ZM463.252 249.828C459.4 253.72 450.857 262.354 447.084 266.168C442.402 261.44 435.607 254.571 430.911 249.828L447.084 233.484L463.252 249.828ZM458.278 202.819C460.881 205.451 462.977 207.569 463.252 207.84C458.754 212.387 451.584 219.638 447.084 224.19C443.122 220.184 434.82 211.792 430.911 207.84C434.837 203.872 443.218 195.402 447.084 191.496C447.871 192.294 453.819 198.307 458.278 202.819ZM424.061 172.784L426.315 170.506C430.846 175.082 437.921 182.233 442.488 186.85L441.418 187.931L426.315 203.192C421.843 198.672 414.623 191.373 410.146 186.848L424.061 172.784ZM394.416 212.929C393.184 211.683 390.581 209.054 389.384 207.84C389.971 207.248 404.866 192.185 405.548 191.496C408.34 194.318 419.14 205.236 421.716 207.84C417.805 211.797 409.395 220.298 405.548 224.19L394.416 212.929ZM384.784 287.163C380.786 283.119 372.673 274.916 368.613 270.814C373.675 265.701 379.731 259.575 384.784 254.474C388.657 258.387 397.201 267.024 400.952 270.814C396.433 275.39 389.317 282.577 384.784 287.163ZM389.384 291.814C393.971 287.177 400.99 280.074 405.548 275.465C408.201 278.144 418.876 288.943 421.716 291.814C419.345 294.208 408.139 305.534 405.548 308.153L389.384 291.814ZM428.018 327.422L426.312 329.146C422.547 325.339 413.8 316.497 410.144 312.802C412.383 310.535 423.829 298.97 426.312 296.462L441.361 311.665L442.485 312.802L428.018 327.422ZM454.474 300.685L447.084 308.156C442.44 303.464 435.542 296.496 430.911 291.816C435.76 286.914 442.201 280.403 447.084 275.467C451.661 280.091 458.67 287.19 463.252 291.816C462.683 292.389 454.725 300.433 454.474 300.685Z" fill="#CE3932"/>
<path d="M443.935 262.712C443.935 262.712 459.34 255.195 469.161 262.712C469.161 262.712 463.111 275.329 452.45 275.465L443.935 262.712Z" fill="#AA5635"/>
<path d="M366.852 301.231C383.305 303.377 409.603 298.39 420.941 294.522C443.988 286.89 452.421 274.664 452.421 274.664C452.421 274.664 453.397 265.232 443.935 262.714C443.935 262.714 398.141 270.773 385.669 265.232C380.623 262.99 377.372 247.516 380.123 240.469C391.04 212.491 387.389 173.628 387.389 173.628C337.207 191.09 302.741 286.121 366.852 301.231Z" fill="#FCB4B4"/>
<path d="M420.936 294.515C542.036 333.516 549.498 217.543 463.601 173.42C463.601 173.42 463.25 210.868 469.649 230.021C479.394 259.183 465.482 271.184 452.421 274.662C452.424 274.662 420.936 294.515 420.936 294.515Z" fill="#FCB4B4"/>
<path d="M495.488 455.671C495.476 456.918 495.457 458.171 495.436 459.422H429.166C427.173 432.1 425.927 404.676 425.843 377.31C423.001 404.42 420.108 432.008 417.142 459.422H350.464C349.15 413.596 351.581 367.482 359.933 322.354C400.024 327.429 445.964 330.856 486.452 322.354C493.019 366.156 496.024 411.189 495.488 455.671Z" fill="#CE3932"/>
<path d="M397.892 128.851C398.916 162.877 451.278 163.804 454.041 130.135C454.605 117.772 450.684 113.822 449.081 98.4261C446.17 70.4753 406.878 68.9879 403.347 98.2181C401.957 109.745 397.791 118.292 397.892 128.851Z" fill="#AA5635"/>
<path d="M432.547 132.109L418.419 128.549C419.046 136.567 428.176 139.645 432.547 132.109Z" fill="#F9F8F3"/>
<path d="M418.529 111.731C419.434 109.994 416.714 108.596 415.862 110.359C414.955 112.098 417.675 113.494 418.529 111.731Z" fill="#7C3021"/>
<path d="M406.608 94.9728C406.608 94.9728 424.834 89.2845 447.715 94.9728L446.34 87.5625H403.988L406.608 94.9728Z" fill="#7C3021"/>
<path d="M436.471 111.764C437.375 110.028 434.655 108.63 433.803 110.393C432.899 112.132 435.616 113.53 436.471 111.764Z" fill="#7C3021"/>
<path d="M432.547 132.68C432.219 132.33 417.056 129.507 417.869 128.409C417.448 127.009 432.444 131.79 432.683 131.553C433.32 131.694 433.193 132.702 432.547 132.68Z" fill="#7C3021"/>
<path d="M427.41 124.889C426.702 124.817 425.221 124.955 425.381 123.929C425.477 123.629 425.795 123.463 426.094 123.559C428.004 124.244 432.623 122.906 430.406 121.535C427.195 119.777 425.039 113.634 424.951 113.372C424.7 112.678 425.786 112.287 426.02 112.995C426.042 113.056 428.121 118.981 430.946 120.529C434.411 122.991 430.147 124.853 427.41 124.889Z" fill="#7C3021"/>
<path d="M445.706 109.8C445.639 109.423 445.541 109.053 445.409 108.685C444.416 105.911 441.61 103.628 436.992 103.602C431.604 103.631 428.683 106.736 428.233 110.103C428.169 110.557 428.152 111.014 428.181 111.467C428.396 115.024 431.332 118.451 436.992 118.483C443.536 118.451 446.443 113.871 445.706 109.8ZM436.992 117.341C426.705 117.286 426.705 104.806 436.992 104.746C447.28 104.804 447.28 117.283 436.992 117.341Z" fill="#7C3021"/>
<path d="M424.19 110.083C423.728 106.726 420.805 103.633 415.434 103.604C410.701 103.631 407.871 106.032 406.948 108.896C406.83 109.249 406.744 109.612 406.689 109.977C406.067 114.001 408.984 118.449 415.434 118.485C421.051 118.454 423.989 115.075 424.24 111.546C424.279 111.06 424.262 110.569 424.19 110.083ZM415.434 117.341C405.146 117.286 405.146 104.806 415.434 104.746C425.721 104.804 425.721 117.283 415.434 117.341Z" fill="#7C3021"/>
<path d="M428.563 111.617C427.982 111.6 426.465 109.724 424.355 111.467C424.123 111.68 423.767 111.666 423.554 111.431C423.343 111.199 423.36 110.836 423.59 110.623C425.176 108.476 430.8 110.372 428.563 111.617Z" fill="#7C3021"/>
<path d="M454.096 75.1818C448.311 62.3588 408.589 60.2668 396.746 76.0766C396.746 76.0766 396.746 94.4138 401.397 107.409C401.397 107.409 407.342 100.937 408.869 91.6301C430.212 86.1498 444.938 91.7897 444.938 91.7897C445.634 97.8457 450.459 107.409 450.459 107.409C454.249 93.918 454.096 75.1818 454.096 75.1818Z" fill="#3D0B0B"/>
<path d="M422.269 294.926C420.915 294.967 420.554 292.872 421.891 292.481C439.342 286.814 450.591 274.455 450.701 274.332C458.969 272.644 439.511 289.907 422.269 294.926Z" fill="#F49F9F"/>
<path d="M435.485 163.296C435.485 163.296 444.126 162.2 447.828 166.919C442.684 172.677 430.126 188.419 425.46 166.645C423.867 183.756 410.306 179.154 403.1 166.766C416.297 156.205 416.981 172.413 435.485 163.296Z" fill="#FCB4B4"/>
<path d="M445.172 109.958C444.564 109.979 444.387 109.046 444.976 108.848L450.263 106.872C450.948 106.603 451.349 107.699 450.656 107.945C450.349 108.016 445.519 109.946 445.172 109.958Z" fill="#7C3021"/>
<path d="M407.204 110.137C406.928 110.154 401.703 107.996 401.454 107.943C401.163 107.83 401.017 107.498 401.129 107.203C401.285 106.03 406.921 109.082 407.407 109.029C407.986 109.235 407.809 110.159 407.204 110.137Z" fill="#7C3021"/>
<path d="M365.756 259.054C368.436 254.164 375.702 248.19 385.899 251.837C400.952 257.976 404.321 267.11 404.321 267.11C399.043 267.188 392.463 268.615 388.028 267.473C385.762 268.262 383.961 270.281 382.776 275.063C381.654 280.098 377.168 277.534 377.92 273.05C376.154 277.781 371.68 275.147 373.345 270.16C366.967 273.761 370.362 262.044 372.537 259.195C371.63 259.92 370.795 260.822 370.065 261.92C366.732 266.939 363.175 263.766 365.756 259.054Z" fill="#AA5635"/>
<path d="M377.92 273.626C376.391 273.59 378.915 265.362 383.008 262.344C384.229 261.49 387.82 260.223 388.494 262.005C388.03 262.982 385.133 261.751 383.647 263.29C379.123 266.412 379.118 273.443 377.92 273.626Z" fill="#7C3021"/>
<path d="M373.345 270.734C371.063 271.491 377.764 252.945 383.494 257.258C383.458 257.572 383.183 257.797 382.865 257.758C376.173 257.168 374.448 270.927 373.345 270.734Z" fill="#7C3021"/>
<path d="M372.537 259.771C370.687 259.662 374.843 252.196 381.054 253.158C381.779 253.26 381.611 254.411 380.884 254.29C374.733 253.548 373.577 259.7 372.537 259.771Z" fill="#7C3021"/>
<path d="M496.232 144.334C496.232 144.334 484.592 134.297 471.864 149.487C459.136 164.679 465.674 167.717 448.24 183.821C430.808 199.924 449.875 227.467 464.583 231.868C479.291 236.269 462.571 253.94 491.905 258.321C521.241 262.702 593.797 185.117 496.232 144.334Z" fill="#5E1226"/>
<path d="M481.342 247.09L476.344 255.698L453.561 294.949L448.531 303.613C444.851 304.837 441.136 305.888 437.412 306.787C436.056 307.113 434.7 307.42 433.347 307.708C391.58 316.566 350.201 307.123 350.201 307.123L355.74 264.449C355.74 264.449 384.082 263.562 424.667 251.391C447.033 244.686 463.628 244.696 472.899 245.636C478.419 246.199 481.342 247.09 481.342 247.09Z" fill="#1D3F70"/>
<path d="M507.386 244.133C541.792 246.333 585.403 268.319 606.474 295.872C639.071 338.492 608.471 392.677 578.472 403.363C563.9 408.555 559.882 401.651 570.601 390.742C604.29 356.447 573.062 322.428 543.475 312.285C533.16 308.748 510.622 244.356 507.386 244.133Z" fill="#AA5635"/>
<path d="M453.561 294.948L448.532 303.613C443.512 305.281 438.427 306.629 433.347 307.707C430.949 283.789 451.741 267.901 451.741 267.901L453.561 294.948Z" fill="#103663"/>
<path d="M443.075 414C572.799 407.146 533.002 443.329 531.476 340.809C528.738 307.914 550.142 257.526 507.388 244.134C506.074 234.502 507.075 217.087 508.96 208.508C513.024 193.176 488.562 187.117 485.234 202.727C484.415 205.647 482.875 221.768 482.411 235.764C482.275 241.228 483.268 246.769 478.749 250.497C436.916 294.797 444.36 356.591 443.075 414Z" fill="#AA5635"/>
<path d="M563.975 418.246C561.089 407.123 558.312 398.299 554.1 388.944C546.729 375.662 536.913 367.103 540.009 348.485C540.524 337.244 543.05 327.892 543.575 317.197C543.687 314.726 543.675 312.231 543.475 309.679L542.411 307.746C540.266 303.881 508.663 246.427 507.388 244.133C483.108 269.112 481.342 247.09 481.342 247.09C410.459 282.342 450.077 316.364 440.842 374.761H440.84V374.764C429.523 394.878 421.674 432.166 421.005 459.422H572.029C569.784 444.495 567.122 430.574 563.975 418.246Z" fill="#1D3F70"/>
<path d="M482.44 235.763C487.461 236.812 497.915 238.199 506.82 234.218C506.82 233.477 506.834 232.715 506.856 231.947C506.693 224.554 507.485 218.115 508.029 213.979C509.281 206.226 510.687 203.325 506.443 197.664C503.379 193.799 497.359 192.205 492.816 194.091C480.984 199.199 484.485 215.976 482.44 235.763Z" fill="#7C3021"/>
<path d="M543.575 317.197C543.424 320.549 543.043 323.855 542.581 327.19C532.365 320.876 524.681 299.979 524.681 299.979L542.411 307.747L543.475 309.679C543.675 312.231 543.687 314.726 543.575 317.197Z" fill="#103663"/>
<path d="M467.63 223.118C475.946 231.704 488.79 234.118 499.074 231.895C499.657 231.767 500.25 231.642 500.809 231.485C523.01 225.664 529.431 190.749 520.298 172.58C514.783 160.194 499.264 152.66 486.827 158.868C478.169 163.515 474.886 172.437 471.016 181.824C469.855 184.267 467.622 187.455 465.433 189.624C457.032 198.183 457.018 211.607 467.63 223.118Z" fill="#AA5635"/>
<path d="M500.267 178.994C518.155 184.869 516.127 199.491 516.127 199.491L523.226 191.863L508.168 164.313L493.19 156.878C489.439 157.35 486.021 158.919 483.113 161.38C483.113 161.378 482.379 173.119 500.267 178.994Z" fill="#7C3021"/>
<path d="M602.196 394.132C598.112 396.644 594.312 397.285 591.618 395.937C591.618 395.937 587.262 385.683 575.938 384.622C575.938 384.622 574.784 381.911 574.66 376.501C574.585 373.347 574.85 369.297 575.89 364.336C580.513 342.361 557.241 322.971 543.582 317.2C543.58 317.2 543.578 317.197 543.575 317.197C530.74 311.765 518.685 291.088 518.685 291.088C511.657 278.244 509.001 263.211 507.998 253.682C507.388 247.891 507.388 244.134 507.388 244.134C510.211 243.824 513.537 243.763 517.252 243.969C552.557 245.899 622.747 271.76 624.941 336.597C625.983 367.47 613.068 387.442 602.196 394.132Z" fill="#1D3F70"/>
<path d="M517.252 243.969C514.399 247.638 508.481 253.424 505.024 256.276C492.277 267.315 474.393 265.5 472.897 245.639L472.899 245.637C478.419 246.199 481.341 247.091 481.341 247.091C481.341 247.091 483.108 269.113 507.388 244.134C510.211 243.824 513.537 243.763 517.252 243.969Z" fill="#103663"/>
<path d="M474.197 209.427L487.782 202.41C489.021 210.746 480.426 216.072 474.197 209.427Z" fill="#F9F8F3"/>
<path d="M484.5 190.837C483.552 189.017 486.402 187.554 487.296 189.4C488.244 191.223 485.394 192.686 484.5 190.837Z" fill="#7C3021"/>
<path d="M471.315 188.598C470.368 186.778 473.217 185.314 474.111 187.161C475.061 188.983 472.212 190.445 471.315 188.598Z" fill="#7C3021"/>
<path d="M474.199 210.026C474.537 210.065 487.751 203.029 488.054 202.945C488.346 202.795 488.462 202.434 488.312 202.137C488.414 200.607 474.228 209.078 473.929 208.891C473.375 209.151 473.599 210.048 474.199 210.026Z" fill="#7C3021"/>
<path d="M476.303 202.385C477.046 202.309 478.596 202.451 478.429 201.378C478.329 201.061 477.994 200.889 477.683 200.99C475.683 201.707 470.841 200.305 473.164 198.868C476.529 197.026 478.786 190.589 478.88 190.317C479.143 189.59 478.006 189.18 477.76 189.921C477.739 189.985 475.559 196.194 472.598 197.815C468.966 200.396 473.431 202.348 476.303 202.385Z" fill="#7C3021"/>
<path d="M433.347 392.224C434.015 392.489 469.94 406.466 554.1 388.943C548.903 377.427 543.267 371.483 543.267 371.483C493.989 384.406 440.837 374.76 440.837 374.76C440.837 374.76 434.44 384.9 433.347 392.224Z" fill="#103663"/>
<path d="M556.648 394.967C552.564 398.643 547.727 400.858 547.72 400.895C541.179 402.698 534.557 404.14 527.866 405.279C525.713 405.591 526.044 409.019 528.243 408.877C534.856 408.587 541.476 408.005 548.04 407.087C548.052 407.119 548.065 407.151 548.077 407.182C541.767 410.471 535.269 413.413 528.568 415.788C521.355 424.448 548.903 412.9 551.092 412.111C551.104 412.124 551.114 412.136 551.126 412.148C545.71 416.255 539.795 419.693 533.595 422.453C527.409 431.813 553.98 417.922 555.987 416.331C556.009 416.346 556.031 416.36 556.053 416.375C552.265 420.226 547.989 423.586 543.582 426.7C539.015 436.238 560.404 420.933 562.066 419.278C563.927 418.74 573.36 411.836 581.008 402.359C583.516 399.252 575.357 391.322 571.516 390.649C564.801 389.684 560.227 390.05 554.639 390.141L556.648 394.967Z" fill="#AA5635"/>
<path d="M486.827 158.871C489.56 142.402 527.55 114.753 552.899 158.164C570.882 192.417 620.446 230.316 576.264 249.121C559.556 252.056 572.629 268.138 561.735 276.252C550.839 284.366 536.313 276.655 535.587 296.113C534.86 315.571 522.66 320.014 509.329 318.894C495.999 317.774 480.523 281.351 495.884 268.867C511.246 256.384 498.338 246.268 505.704 229.705C513.07 213.14 521.374 209.667 521.374 209.667L518.43 194.664C518.092 175.188 485.702 176.853 486.827 158.871Z" fill="#5E1226"/>
<path d="M530.616 202.589C528.068 214.49 513.692 211.418 516.127 199.492C518.675 187.591 533.051 190.663 530.616 202.589Z" fill="#AA5635"/>
<path d="M526.88 205.047C527.135 205.047 527.368 204.88 527.448 204.622C530.13 197.041 526.059 193.875 521.124 195.921C520.408 196.196 520.842 197.331 521.557 197.038C525.789 195.28 528.554 197.945 526.311 204.274C526.192 204.649 526.489 205.055 526.88 205.047Z" fill="#7C3021"/>
<path d="M521.341 204.21C522.417 204.068 523.012 199.674 527.589 199.202C527.917 199.18 528.162 198.895 528.143 198.564C528.121 198.232 527.844 197.977 527.511 198.004C522.954 198.382 519.543 203.947 521.341 204.21Z" fill="#7C3021"/>
<path d="M492.699 187.871C492.49 187.871 492.284 187.777 492.143 187.598C489.344 184.034 484.677 183.293 484.629 183.288C484.242 183.229 483.975 182.865 484.031 182.475C484.087 182.082 484.442 181.819 484.835 181.871C485.049 181.903 490.097 182.691 493.251 186.711C493.494 187.021 493.443 187.473 493.137 187.718C493.01 187.821 492.855 187.871 492.699 187.871Z" fill="#7C3021"/>
<path d="M471.238 184.027C471.016 184.027 470.798 183.922 470.659 183.727C470.433 183.406 470.506 182.961 470.822 182.73C470.963 182.63 474.337 180.233 479.085 181.397C479.466 181.49 479.699 181.876 479.607 182.261C479.515 182.644 479.133 182.883 478.752 182.789C474.653 181.79 471.677 183.875 471.648 183.897C471.522 183.985 471.378 184.027 471.238 184.027Z" fill="#7C3021"/>
<path d="M602.196 394.131C598.112 396.644 594.312 397.285 591.618 395.936C591.618 395.936 587.26 385.683 575.936 384.622C575.936 384.622 574.782 381.908 574.66 376.5C576.929 375.257 579.905 374.656 583.015 377.303C589.13 382.51 585.729 384.747 594.103 387.613C598.661 389.17 601.27 391.464 602.196 394.131Z" fill="#103663"/>
<path d="M485.766 268.951C485.766 270.52 484.507 271.792 482.955 271.792C481.402 271.792 480.144 270.52 480.144 268.951C480.144 267.382 481.402 266.109 482.955 266.109C484.507 266.109 485.766 267.382 485.766 268.951Z" fill="#103663"/>
<path d="M481.925 281.085C481.925 282.654 480.666 283.929 479.114 283.929C477.561 283.929 476.303 282.657 476.303 281.085C476.303 279.513 477.561 278.244 479.114 278.244C480.666 278.244 481.925 279.516 481.925 281.085Z" fill="#103663"/>
<path d="M582.534 402.226C582.296 402.226 582.073 402.072 581.995 401.831C578.805 391.879 571.944 389.816 571.876 389.797C571.575 389.711 571.4 389.394 571.485 389.089C571.57 388.785 571.883 388.608 572.185 388.694C572.491 388.78 579.699 390.949 583.074 401.477C583.171 401.779 583.008 402.101 582.709 402.199C582.651 402.219 582.592 402.226 582.534 402.226Z" fill="#F39200"/>
<path d="M585.731 400.517C585.498 400.517 585.277 400.369 585.197 400.131C581.635 389.772 573.742 387.854 573.662 387.837C573.358 387.768 573.166 387.461 573.234 387.151C573.302 386.842 573.606 386.65 573.91 386.717C574.257 386.795 582.488 388.763 586.268 399.753C586.37 400.052 586.215 400.377 585.918 400.482C585.858 400.504 585.795 400.517 585.731 400.517Z" fill="#F39200"/>
<path d="M547.431 414.11C547.151 414.11 546.908 413.902 546.87 413.617C546.449 410.544 544.787 409.14 544.77 409.125C544.53 408.926 544.491 408.565 544.688 408.319C544.885 408.074 545.239 408.035 545.482 408.231C545.565 408.297 547.508 409.908 547.992 413.457C548.036 413.772 547.819 414.059 547.508 414.103C547.484 414.11 547.457 414.11 547.431 414.11Z" fill="#F39200"/>
<path d="M522.818 217.671C519.822 217.671 517.383 215.205 517.383 212.177C517.383 209.149 519.822 206.683 522.818 206.683C523.131 206.683 523.384 206.939 523.384 207.255C523.384 207.572 523.131 207.828 522.818 207.828C520.446 207.828 518.515 209.778 518.515 212.177C518.515 214.574 520.444 216.526 522.818 216.526C525.191 216.526 527.12 214.576 527.12 212.177C527.12 211.254 526.928 210.571 526.481 209.893C526.306 209.63 526.377 209.274 526.637 209.1C526.897 208.923 527.249 208.994 527.422 209.257C527.997 210.124 528.255 211.025 528.255 212.177C528.252 215.205 525.813 217.671 522.818 217.671Z" fill="#F39200"/>
<path d="M300.408 310.338C279.773 331.83 234.996 347.905 202.423 339.522C196.873 338.23 191.516 336.267 186.465 333.673C177.893 329.274 170.208 323.054 163.973 315.215C163.949 315.186 163.924 315.154 163.9 315.125C151.469 300.351 125.069 227.338 116.257 211.133C192.471 230.939 206.186 312.952 296.337 290.349L300.408 310.338Z" fill="#EB5648"/>
<path d="M249.515 338.047V338.052C249.466 338.064 249.422 338.078 249.372 338.09C249.42 338.074 249.464 338.061 249.515 338.047Z" fill="#D1E0F2"/>
<path d="M116.807 112.798C116.807 112.798 123.771 108.899 127.949 115.156C132.126 121.412 127.423 125.667 132.623 131.175C137.824 136.681 141.041 137.683 139.555 142.94C138.07 148.197 134.082 148.778 135.829 155.371C134.736 155.181 101.143 119.959 116.807 112.798Z" fill="#5E1226"/>
<path d="M186.468 333.672H186.465C177.893 329.273 170.208 323.053 163.973 315.214L156.433 256.665C156.433 256.665 175.128 285.501 186.468 333.672Z" fill="#CE3932"/>
<path d="M182.36 459.411L29.001 459.421C29.001 459.421 19.4445 392.672 44.3297 336.025C44.3297 336.025 166.954 346.656 170.524 344.959C176.679 382.211 180.358 421.329 182.36 459.411Z" fill="#1D3F70"/>
<path d="M116.25 211.134C117.796 197.502 115.688 177.844 113.807 169.746C110.418 153.787 85.383 159.964 89.5438 175.649C90.3518 175.137 92.9351 204.053 91.1502 212.08C67.6567 219.207 138.313 242.632 116.25 211.134Z" fill="#AA5635"/>
<path d="M72.5436 390.063C72.5436 390.063 92.4286 405.959 104.841 415.007C117.254 424.056 132.363 425.924 132.363 425.924C132.363 425.924 138.345 422.749 139.423 418.826C139.423 418.826 143.487 422.934 145.335 425.924C147.182 428.913 170.731 421.937 175.018 418.826C179.304 415.715 181.081 413.771 178.419 406.151L72.5436 390.063Z" fill="#E8C0A6"/>
<path d="M179.248 403.839C171.92 431.285 99.4404 406.85 72.5459 390.062C70.3534 388.695 67.7435 387.846 64.9648 387.358C53.6908 385.378 39.6213 389.338 39.1895 388.565C29.1698 370.666 52.2171 311.178 67.8521 268.634C74.7988 249.73 80.2814 234.171 80.7493 227.093C80.291 222.713 87.2716 214.801 91.1477 212.08C102.907 220.385 119.55 226.034 116.262 211.144C124.687 218.241 134.123 225.942 142.151 234.963C170.49 264.04 191.569 366.547 179.248 403.839Z" fill="#EB5648"/>
<path d="M67.7749 313.673C54.4048 342.211 57.3861 362.242 64.9648 387.359C53.6908 385.379 39.6213 389.339 39.1895 388.566C29.1698 370.666 52.2171 311.179 67.852 268.635L89.5533 260.54C89.5533 260.54 81.1425 285.137 67.7749 313.673Z" fill="#CE3932"/>
<path d="M89.3025 174.335C89.3652 174.774 89.4424 175.22 89.5437 175.652C90.125 175.262 91.7555 191.218 91.77 202.798C102.535 207.745 114.535 205.57 116.732 205.114C116.966 190.445 115.635 177.083 113.503 168.691C108.862 154.451 87.3077 159.508 89.3025 174.335Z" fill="#7C3021"/>
<path d="M133.455 191.627C120.852 204.008 100.178 205.586 86.8542 195.282H86.8398C72.2154 181.698 67.7845 154.313 76.4317 136.911C82.9057 121.927 103.741 113.642 116.807 124.883C123.525 130.571 126.277 138.588 129.789 146.918C131.036 149.561 133.47 153.016 135.826 155.366C144.925 164.63 144.939 179.157 133.455 191.627Z" fill="#AA5635"/>
<path d="M89.551 260.54C75.906 305.692 32.6119 325.921 66.9283 400.958C56.0258 415.617 42.1034 412.971 42.1034 412.971C32.8049 402.794 25.2599 392.718 19.2732 382.819C-32.4703 297.249 32.0402 224.728 84.3819 213.231C86.6637 212.732 88.9214 212.346 91.1454 212.081C95.0239 231.758 93.5743 247.231 89.551 260.54Z" fill="#EB5648"/>
<path d="M124.374 213.546C124.374 213.546 125.811 225.321 116.257 227.157C97.887 230.69 82.5005 213.671 82.5005 213.671C86.6468 211.454 91.1477 212.081 91.1477 212.081C99.1968 217.284 104.455 219.34 108.264 220.044C118.626 221.956 116.392 211.693 116.262 211.147C116.262 211.147 116.265 211.149 116.269 211.154C120.577 211.132 124.374 213.546 124.374 213.546Z" fill="#CE3932"/>
<path d="M115.189 156.68C116.216 154.71 113.131 153.125 112.162 155.124C111.137 157.094 114.222 158.679 115.189 156.68Z" fill="#7C3021"/>
<path d="M129.463 154.254C130.488 152.283 127.406 150.698 126.436 152.698C125.409 154.668 128.494 156.253 129.463 154.254Z" fill="#7C3021"/>
<path d="M123.235 132.646C113.194 141.402 101.751 127.937 101.546 140.814C101.737 146.064 92.2669 144.52 91.1453 146.983C90.0334 149.446 91.3262 154.137 89.1964 157.329C87.0641 160.52 76.3883 164.446 76.3883 164.446C78.9041 175.221 77.3387 184.445 89.1602 196.995C88.3594 196.473 87.59 195.9 86.8543 195.281H86.8398C69.8493 179.025 65.9996 145.152 82.7514 127.947C94.1315 115.848 115.49 117.16 123.235 132.646Z" fill="#7C3021"/>
<path d="M124.065 169.178C123.262 169.097 121.581 169.251 121.764 168.088C121.873 167.747 122.237 167.556 122.572 167.669C124.736 168.444 129.977 166.927 127.464 165.372C123.892 163.619 119.174 153.161 122.488 155.684C122.512 155.753 124.871 162.475 128.076 164.228C132.008 167.025 127.172 169.136 124.065 169.178Z" fill="#7C3021"/>
<path d="M120.896 129.223C120.896 129.223 126.359 122.415 120.577 117.409C114.796 112.403 115.155 104.893 107.176 106.147C99.1968 107.398 96.2252 108.373 87.5586 106.008C78.8921 103.643 71.5425 112.065 71.8754 117.617C72.2083 123.166 60.5701 123.166 58.8358 130.676C57.1015 138.186 58.8358 140.437 58.8358 143.692C58.8358 146.945 48.6834 151.202 50.6662 158.961C52.6465 166.719 59.0842 165.53 60.3216 170.506C61.559 175.48 57.7721 184.014 63.4525 186.816C71.8754 190.971 79.1261 185.494 79.1261 185.494C63.6262 152.192 88.468 167.361 86.2923 148.695C84.5894 141.436 95.2 143.69 97.6941 139.934C100.188 136.179 98.3888 131.676 103.003 130.674C107.615 129.674 110.656 135.282 120.896 129.223Z" fill="#5E1226"/>
<path d="M65.2639 169.398C68.0233 182.282 83.5859 178.956 80.9495 166.045C78.1926 153.161 62.6299 156.489 65.2639 169.398Z" fill="#AA5635"/>
<path d="M69.3114 172.06C69.0364 172.06 68.7808 171.88 68.6963 171.599C65.7922 163.392 70.2015 159.964 75.5418 162.178C76.3184 162.475 75.8457 163.702 75.0738 163.387C70.4909 161.485 67.5 164.367 69.9265 171.219C70.0567 171.631 69.7335 172.068 69.3114 172.06Z" fill="#7C3021"/>
<path d="M75.3078 171.154C74.1428 170.998 73.4987 166.243 68.542 165.733C68.1874 165.709 67.9197 165.399 67.9438 165.043C67.9679 164.685 68.2622 164.419 68.6264 164.439C73.5012 164.773 77.3001 170.985 75.3078 171.154Z" fill="#7C3021"/>
<path d="M42.7039 415.007C41.4666 414.951 34.0012 415.029 34.0109 413.159C34.0446 412.386 40.1303 411.564 40.8877 411.596C58.6452 412.176 62.4177 402.974 65.6957 398.215C67.1043 396.171 68.9447 392.794 70.2087 392.672C72.5508 393.943 68.7783 402.148 63.7516 407.185C59.6873 410.801 54.1805 415.007 42.7039 415.007Z" fill="#103663"/>
<path d="M123.631 177.278C117.531 177.278 113.435 173.721 113.228 173.535C112.946 173.284 112.917 172.85 113.165 172.565C113.414 172.28 113.843 172.25 114.125 172.502C114.183 172.553 119.977 177.559 127.763 175.308C128.125 175.203 128.501 175.415 128.605 175.781C128.708 176.147 128.499 176.527 128.137 176.632C126.542 177.09 125.035 177.278 123.631 177.278Z" fill="#7C3021"/>
<path d="M104.46 153.341C104.373 153.341 104.286 153.324 104.199 153.288C103.852 153.141 103.688 152.742 103.83 152.39C103.936 152.132 106.493 146.063 114.675 144.395C115.042 144.32 115.401 144.561 115.476 144.934C115.551 145.307 115.312 145.668 114.943 145.744C107.501 147.26 105.181 152.688 105.087 152.917C104.978 153.183 104.725 153.341 104.46 153.341Z" fill="#7C3021"/>
<path d="M128.426 146.672C128.284 146.672 128.142 146.629 128.018 146.536C124.736 144.046 120.809 145.161 120.77 145.17C120.411 145.275 120.032 145.068 119.926 144.705C119.82 144.341 120.025 143.959 120.387 143.851C120.572 143.795 124.994 142.522 128.836 145.436C129.138 145.663 129.198 146.095 128.971 146.399C128.836 146.577 128.631 146.672 128.426 146.672Z" fill="#7C3021"/>
<path d="M345.664 245.527C345.664 245.527 317.127 252.486 301.177 275.485C271.624 318.093 276.158 371.222 282.724 423.38H349.286L345.664 245.527Z" fill="#D1A68F"/>
<path d="M388.33 246.823C388.33 246.823 426.008 254.098 447.656 304.16C473.385 363.662 433.782 442.398 433.782 442.398L399.92 428.831L388.33 246.823Z" fill="#D1A68F"/>
<path d="M341.36 175.094C341.36 175.094 337.742 154.478 355.642 147.806L366.946 156.392L341.36 175.094Z" fill="#3D0B0B"/>
<path d="M436.706 459.528L282.77 459.519C278.886 405.336 296.548 380.155 296.548 380.155C339.371 383.81 384.814 383.082 426.411 371.076C433.231 397.941 434.388 429.448 436.706 459.528Z" fill="#EB5648"/>
<path d="M353.484 244.174C352.986 228.484 351.056 197.372 363.651 193.2C372.697 190.025 383.405 197.815 380.621 208.12C379.802 207.598 377.176 236.982 378.987 245.14C402.859 252.378 331.064 276.184 353.484 244.174Z" fill="#AA5635"/>
<path d="M380.866 206.783C380.803 207.229 380.726 207.683 380.621 208.122C380.03 207.725 378.374 223.937 378.359 235.704C367.421 240.732 355.513 238.761 353.282 238.298C352.674 222.056 351.692 197.736 363.653 193.202C372.191 189.51 382.367 197.376 380.866 206.783Z" fill="#7C3021"/>
<path d="M398.053 195.944C396.215 207.464 392.369 220.448 383.369 228.069H383.354C370.234 238.114 351.013 237.042 337.667 225.971H337.66C327.359 216.242 324.103 203.145 329.522 193.054C333.07 187.105 339.599 181.872 341.362 175.094C356.643 129.996 404.539 155.218 398.053 195.944Z" fill="#AA5635"/>
<path d="M354.56 188.841C353.517 186.839 356.653 185.228 357.637 187.263C358.68 189.265 355.545 190.873 354.56 188.841Z" fill="#7C3021"/>
<path d="M340.058 186.378C339.015 184.376 342.15 182.765 343.135 184.8C344.177 186.8 341.042 188.41 340.058 186.378Z" fill="#7C3021"/>
<path d="M398.05 195.947C396.215 207.467 392.367 220.451 383.366 228.072H383.352C382.605 228.699 382.093 229.003 381.281 229.533C388.131 222.66 391.829 208.198 391.829 208.198L390.216 195.714C379.159 184.387 383.919 171.651 383.919 171.651C365.428 176.897 359.199 165.362 359.199 165.362C353.353 166.124 346.932 163.479 346.932 163.479C368.381 128.986 404.561 165.036 398.05 195.947Z" fill="#7C3021"/>
<path d="M392.379 165.923C384.518 169.065 381.759 187.52 400.335 200.136C400.335 200.136 409.333 169.732 392.379 165.923Z" fill="#3D0B0B"/>
<path d="M345.542 201.543C342.385 201.504 337.473 199.351 341.466 196.515C344.723 194.731 347.121 187.902 347.145 187.833C347.412 187.027 348.67 187.461 348.377 188.27C348.273 188.571 345.79 195.65 342.09 197.675C339.534 199.258 344.859 200.793 347.058 200.008C347.405 199.896 347.768 200.089 347.88 200.435C348.067 201.621 346.36 201.454 345.542 201.543Z" fill="#7C3021"/>
<path d="M434.495 428.828C391.227 450.619 294.157 442.795 284.026 431.858C266.491 412.933 291.366 402.741 293.956 350.249C296.288 302.981 320.669 259.505 345.664 245.526C346.001 245.338 350.797 244.193 353.471 244.188C353.287 244.943 348.564 264.807 378.99 245.137C379.164 245.345 386.412 245.475 388.344 246.821C388.344 246.821 417.061 268.317 426.217 351.392C430.05 386.178 449.179 421.433 434.495 428.828Z" fill="#E8C0A6"/>
<path d="M337.718 146.549C338.305 142.497 342.482 138.222 350.916 140.718C349.555 137.913 349.303 133.7 352.528 131.7C356.762 129.075 361.131 131.805 364.114 135.183C365.287 127.278 372.106 125.474 377.971 126.511C392.791 129.133 392.171 148.525 392.171 148.525C392.171 148.525 424.919 150.985 402.626 181.042L391.492 166.494C379.933 173.666 367.979 170.379 360.493 163.138C351.476 163.084 335.999 158.43 337.718 146.549Z" fill="#3D0B0B"/>
<path d="M405.291 201.765C402.488 214.857 386.674 211.477 389.353 198.358C392.154 185.269 407.968 188.649 405.291 201.765Z" fill="#AA5635"/>
<path d="M401.178 204.472C400.749 204.477 400.422 204.036 400.555 203.619C403.024 196.655 399.968 193.726 395.323 195.66C390.752 194.084 406.928 189.824 401.802 204.004C401.717 204.29 401.46 204.472 401.178 204.472Z" fill="#7C3021"/>
<path d="M395.085 203.55C393.107 203.268 396.86 197.138 401.874 196.724C402.721 196.65 402.806 197.998 401.962 198.04C396.913 198.569 396.281 203.381 395.085 203.55Z" fill="#7C3021"/>
<path d="M388.33 246.823C383.495 253.725 342.116 279.771 345.664 245.526C346.035 245.423 350.797 244.195 353.471 244.19C353.287 244.945 350.215 263.53 378.99 245.139C379.113 245.061 386.446 245.575 388.33 246.823Z" fill="#D1A68F"/>
<path d="M363.728 187.62C363.83 187.654 363.946 187.659 364.058 187.625C364.339 187.537 364.494 187.235 364.407 186.951C362.237 179.918 358.11 177.842 357.935 177.759C357.671 177.629 357.353 177.742 357.225 178.011C357.099 178.279 357.208 178.6 357.472 178.727C357.53 178.757 361.371 180.735 363.391 187.272C363.444 187.441 363.573 187.566 363.728 187.62Z" fill="#7C3021"/>
<path d="M349.643 176.926C345.492 176.806 342.895 178.137 341.917 178.637C341.808 178.693 341.685 178.755 341.634 178.777L341.624 178.779C341.35 178.853 341.178 179.137 341.243 179.419C341.309 179.708 341.597 179.89 341.881 179.821C342.01 179.791 342.15 179.72 342.395 179.593C343.307 179.125 345.732 177.884 349.611 177.997C349.66 177.997 349.703 177.995 349.747 177.985C349.977 177.931 350.152 177.725 350.159 177.475C350.167 177.181 349.934 176.933 349.643 176.926Z" fill="#7C3021"/>
<path d="M350.957 209.445C349.82 209.445 348.86 209.009 348.375 208.158C347.499 206.624 348.552 204.41 350.77 203.114C351.786 202.52 352.897 202.219 353.893 202.261C354.994 202.307 355.845 202.761 356.289 203.538C356.733 204.315 356.696 205.285 356.187 206.273C355.724 207.17 354.909 207.989 353.896 208.582C352.904 209.161 351.874 209.443 350.957 209.445ZM353.702 203.484C352.965 203.484 352.145 203.726 351.376 204.175C349.8 205.094 348.908 206.638 349.427 207.545C349.946 208.452 351.713 208.442 353.29 207.523C354.107 207.045 354.754 206.401 355.113 205.709C355.292 205.361 355.549 204.695 355.241 204.155C354.934 203.614 354.235 203.506 353.845 203.489C353.796 203.484 353.748 203.484 353.702 203.484Z" fill="#722310"/>
<path d="M358.53 285.926C344.136 285.926 336.35 280.85 335.909 280.553L337.587 278.001L339.25 275.44C339.282 275.462 342.55 277.57 348.717 278.835C354.429 280.006 363.871 280.676 376.415 277.207L378.015 283.117C370.571 285.176 364.06 285.926 358.53 285.926Z" fill="#D1A68F"/>
<path d="M356.422 302.444C342.017 302.444 332.994 297.081 332.466 296.758L335.589 291.505C335.63 291.529 339.728 293.961 346.665 295.341C353.037 296.611 363.199 297.228 375.425 292.966L377.401 298.758C369.598 301.481 362.525 302.444 356.422 302.444Z" fill="#D1A68F"/>
<path d="M355.062 319.186C351.039 319.186 347.524 318.757 344.645 318.201C336.486 316.617 331.554 313.69 331.348 313.565L334.44 308.295C334.483 308.32 338.853 310.879 346.054 312.234C355.659 314.041 365.498 312.967 375.292 309.045L377.525 314.742C369.131 318.102 361.459 319.186 355.062 319.186Z" fill="#D1A68F"/>
<path d="M259.196 195.299C259.196 195.299 266.233 152.649 237.661 158.82L259.196 195.299Z" fill="#3D0B0B"/>
<path d="M196.342 208.645C196.342 208.645 182.267 218.661 175.814 236.032C168.863 254.741 176.373 265.016 193.059 268.929C209.745 272.845 247.101 273.765 268.739 266.166C290.377 258.567 268.358 222.263 252.851 212.747L196.342 208.645Z" fill="#3D0B0B"/>
<path d="M299.49 459.422H151.999C153.517 446.58 155.428 433.791 157.776 421.085C187.194 425.726 258.31 430.487 294.631 421.085C296.518 433.734 298.141 446.526 299.49 459.422Z" fill="#3A72AA"/>
<path d="M239.162 226.911H216.652V253.906H239.162V226.911Z" fill="#AA5635"/>
<path d="M216.511 228.97V241.094C229.199 245.586 239.02 241.094 239.02 241.094V228.97H216.511Z" fill="#7C3021"/>
<path d="M157.346 400.736C156.17 376.405 171.848 354.993 179.616 332.102C187.529 309.035 187.138 284.363 187.36 259.24C195.038 254.632 217.431 247.832 216.22 248.703C220.704 251.693 234.917 253.721 241.092 248.703C251.76 251.451 260.714 254.725 269.91 259.248C269.581 278.311 273.303 317.541 282.621 339.082C293.596 365.954 296.186 392.022 294.629 421.09C251.055 431.092 202.216 430.939 157.773 421.09C157.568 417.653 157.178 410.723 157.346 400.736Z" fill="#1D3F70"/>
<path d="M248.641 356.276C248.641 356.276 265.305 348.107 275.927 356.276C275.927 356.276 269.381 369.986 257.852 370.134L248.641 356.276Z" fill="#AA5635"/>
<path d="M165.259 398.136C183.058 400.465 211.5 395.047 223.767 390.843C248.695 382.548 257.817 369.263 257.817 369.263C257.817 369.263 258.872 359.012 248.638 356.276C248.638 356.276 199.104 365.034 185.613 359.012C180.153 356.577 176.639 339.761 179.614 332.103C191.424 301.7 187.475 259.47 187.475 259.47C133.119 278.514 95.9535 381.739 165.259 398.136Z" fill="#4B89BC"/>
<path d="M223.762 390.835C354.752 433.218 362.826 307.192 269.913 259.245C269.913 259.245 269.532 299.941 276.454 320.751C286.995 352.439 271.946 365.48 257.82 369.263L223.762 390.835Z" fill="#4B89BC"/>
<path d="M225.204 391.339C243.916 385.891 265.156 366.966 255.911 368.865C255.789 369.001 243.601 382.43 224.772 388.57C223.276 389.01 223.659 391.393 225.204 391.339Z" fill="#23659B"/>
<path d="M239.498 248.244C239.498 248.244 248.846 247.055 252.848 252.182C247.279 258.441 233.705 275.548 228.655 251.886C226.934 270.456 212.286 265.507 204.469 252.019C218.763 240.537 219.483 258.157 239.498 248.244Z" fill="#4B89BC"/>
<path d="M164.075 352.303C166.974 346.989 174.833 340.498 185.864 344.46C202.145 351.129 205.792 361.057 205.792 361.057C200.083 361.141 192.966 362.69 188.168 361.452C185.718 362.308 183.77 364.503 182.487 369.699C181.271 375.171 176.422 372.381 177.232 367.513C175.319 372.657 170.481 369.783 172.282 364.373C165.378 368.283 169.061 355.545 171.409 352.459C170.428 353.248 169.525 354.228 168.736 355.422C165.129 360.872 161.283 357.423 164.075 352.303Z" fill="#AA5635"/>
<path d="M177.232 368.135C178.516 367.965 178.55 360.26 183.443 356.892C185.074 355.22 188.071 356.586 188.673 355.508C187.802 353.562 184.175 354.933 182.75 355.866C178.301 359.165 175.587 368.056 177.232 368.135Z" fill="#7C3021"/>
<path d="M172.283 364.992C173.464 365.229 175.365 350.236 182.579 350.895C182.914 350.934 183.221 350.692 183.26 350.352C176.954 345.766 169.879 365.722 172.283 364.992Z" fill="#7C3021"/>
<path d="M171.157 353.079C172.375 352.822 173.554 346.304 180.185 347.126C180.522 347.178 180.834 346.943 180.886 346.605C180.937 346.267 180.705 345.949 180.371 345.897C173.654 344.856 169.161 352.953 171.157 353.079Z" fill="#7C3021"/>
<path d="M201.303 198.368C201.872 212.569 206.285 229.999 220.84 235.074C221.382 235.291 221.961 235.481 222.529 235.666C245.99 245.12 277.064 219.655 260.458 197.011C258.513 194.601 256.619 191.174 255.721 188.608C255.721 188.608 255.721 188.608 255.721 188.606C247.299 142.971 200.352 157.631 201.303 198.368Z" fill="#AA5635"/>
<path d="M239.462 162.338L239.123 165.575C246.439 167.374 255.626 188.345 255.626 188.345C254.337 179.335 249.524 166.866 239.462 162.338Z" fill="#7C3021"/>
<path d="M202.324 207.882C203.866 217.449 207.844 227.809 216.157 232.758C206.177 225.3 206.426 209.527 206.426 209.527L202.324 207.882Z" fill="#7C3021"/>
<path d="M201.303 198.368L208.396 202.528C218.07 199.183 228.548 184.824 228.548 184.824L207.62 174.047C203.454 180.652 201.101 189.176 201.303 198.368Z" fill="#7C3021"/>
<path d="M241.348 196.17C242.483 194.458 239.803 192.679 238.715 194.433C237.58 196.146 240.257 197.924 241.348 196.17Z" fill="#7C3021"/>
<path d="M254.711 195.349C255.845 193.637 253.166 191.858 252.077 193.612C250.942 195.324 253.622 197.103 254.711 195.349Z" fill="#7C3021"/>
<path d="M249.107 208.645C251.819 208.585 255.575 207.152 252.47 204.433C249.688 202.489 248.172 196.045 248.158 195.981C247.994 195.221 246.81 195.492 246.998 196.255C247.064 196.538 248.636 203.219 251.792 205.422C252.15 205.674 252.543 206.039 252.373 206.348C250.486 208.605 246.745 206.434 246.288 207.367C246.076 208.662 248.17 208.531 249.107 208.645Z" fill="#7C3021"/>
<path d="M231.918 192.238C231.755 192.238 231.591 192.164 231.484 192.023C231.298 191.781 231.342 191.431 231.581 191.241C236.25 187.58 242.305 187.071 242.562 187.052C242.864 187.027 243.13 187.256 243.152 187.565C243.177 187.871 242.95 188.14 242.647 188.162C242.588 188.167 236.66 188.67 232.257 192.122C232.155 192.198 232.035 192.238 231.918 192.238Z" fill="#7C3021"/>
<path d="M254.503 188.903C254.415 188.903 254.328 188.88 254.245 188.836C254.208 188.816 251.423 187.356 247.482 188.153C247.182 188.214 246.894 188.017 246.833 187.716C246.774 187.415 246.967 187.121 247.264 187.06C251.618 186.179 254.637 187.785 254.764 187.854C255.033 188 255.133 188.338 254.989 188.609C254.889 188.796 254.698 188.903 254.503 188.903Z" fill="#7C3021"/>
<path d="M241.622 163.48C241.622 163.48 237.073 184.952 208.376 198.696L194.995 197.285C194.995 197.285 185.886 179.566 198.358 162.343C212.706 142.519 234.898 152.196 241.622 163.48Z" fill="#3D0B0B"/>
<path d="M194.196 202.952C195.488 215.138 210.124 213.603 208.95 201.415C207.656 189.233 193.023 190.767 194.196 202.952Z" fill="#AA5635"/>
<path d="M197.723 205.82C198.092 205.822 198.382 205.472 198.309 205.104C196.747 198.549 199.759 196.158 203.8 198.379C204.476 198.751 205.042 197.661 204.352 197.31C199.619 194.727 195.273 197.481 197.14 205.331C197.191 205.617 197.442 205.82 197.723 205.82Z" fill="#7C3021"/>
<path d="M203.327 205.575C204.996 205.385 202.277 199.595 197.772 198.704C197.45 198.645 197.14 198.867 197.084 199.193C197.028 199.521 197.245 199.832 197.567 199.889C202.155 200.878 202.128 205.363 203.327 205.575Z" fill="#7C3021"/>
<path d="M202.324 219.107C199.314 219.107 196.864 216.63 196.864 213.588C196.864 212.431 197.123 211.525 197.701 210.654C197.877 210.39 198.231 210.319 198.489 210.497C198.751 210.674 198.821 211.029 198.646 211.293C198.194 211.974 198.001 212.66 198.001 213.588C198.001 215.996 199.939 217.957 202.324 217.957C204.706 217.957 206.646 215.998 206.646 213.588C206.646 211.18 204.708 209.219 202.324 209.219C202.009 209.219 201.755 208.962 201.755 208.644C201.755 208.325 202.009 208.069 202.324 208.069C205.335 208.069 207.783 210.546 207.783 213.588C207.783 216.63 205.333 219.107 202.324 219.107Z" fill="#F39200"/>
<path d="M244.685 214.079C244.68 214.079 244.672 214.079 244.668 214.079C240.68 213.936 238.664 209.826 238.581 209.651C238.464 209.406 238.564 209.11 238.808 208.992C239.049 208.873 239.342 208.975 239.459 209.221C239.477 209.258 241.309 212.974 244.702 213.095C244.97 213.105 245.183 213.334 245.173 213.605C245.163 213.869 244.946 214.079 244.685 214.079Z" fill="#722310"/>
</svg>
