<svg width="331" height="200" viewBox="0 0 331 200" fill="none" xmlns="http://www.w3.org/2000/svg">
<path d="M233.124 227.91C236.09 228.127 239.082 228.314 242.024 228.778C250.871 230.183 261.766 229.817 263.27 224.168C264.777 218.511 265.451 209.268 265.461 206.099C265.472 202.931 265.925 192.375 271.8 193.073C277.675 193.771 279.563 196.149 285.601 196.812C291.643 197.466 296.77 188.594 296.396 182.988C296.013 177.381 290.404 174.121 285.535 173.842C280.664 173.57 274.508 177.94 270.883 176.297C267.257 174.654 268.219 168.292 268.803 165.728C269.38 163.154 270.341 150.566 270.246 147.839C270.159 145.115 266.227 141.175 261.501 141.289C256.776 141.403 249.744 143.923 245.563 142.16C241.374 140.395 242.728 132.829 243.317 130.729C243.907 128.629 249.674 114.283 241.27 109.586C233.86 105.449 227.387 108.108 225.085 109.464C222.781 110.829 217.974 115.496 219.601 123.383C221.229 131.27 223.813 138.075 217.619 138.447C212.808 138.737 207.997 137.123 203.458 135.731C199.702 134.586 195.736 133.672 191.779 134.084C188.55 134.418 185.588 136.641 184.363 139.649C183.98 140.593 183.755 141.59 183.529 142.586C182.736 146.124 182.008 149.653 181.482 153.238C181.078 155.997 180.051 158.463 180.016 161.362C179.983 163.709 180.457 166.343 182.375 167.679C183.384 168.378 184.668 168.612 185.897 168.559C188.157 168.45 189.959 167.551 191.896 166.491C195.257 164.653 199.299 164.039 203.015 165.164C206.983 166.36 210.411 169.514 211.509 173.511C211.94 175.072 212.016 176.707 211.889 178.32C211.646 181.351 210.584 184.423 208.402 186.547C206.967 187.947 205.122 188.87 203.21 189.484C199.288 190.739 194.986 190.763 191.052 189.541C189.661 189.106 188.321 188.521 186.896 188.239C185.474 187.948 183.913 187.99 182.661 188.735C179.26 190.78 179.872 196.605 180 199.958C180.165 204.308 180.862 208.635 181.992 212.84C182.622 215.182 183.397 217.52 184.775 219.52C188.646 225.128 196.226 226.014 202.48 226.556C205.858 226.852 209.262 226.829 212.646 226.945C212.906 226.955 213.174 226.967 213.434 226.976C219.997 227.224 226.562 227.436 233.124 227.91Z" fill="#ACB75F"/>
<path d="M193.334 225.275C189.798 224.282 186.697 222.614 184.618 219.593C183.175 217.503 182.387 215.017 181.806 212.86C180.635 208.508 179.962 204.16 179.808 199.931C179.8 199.639 179.782 199.316 179.766 198.986C179.605 195.588 179.367 190.465 182.559 188.552C183.998 187.688 185.726 187.792 186.917 188.036C187.868 188.231 188.801 188.556 189.691 188.869C190.152 189.035 190.624 189.194 191.09 189.343C194.956 190.547 199.262 190.541 203.146 189.294C205.278 188.606 206.999 187.639 208.271 186.401C210.215 184.51 211.433 181.626 211.708 178.287C211.851 176.551 211.722 174.947 211.337 173.544C210.293 169.771 207.004 166.546 202.962 165.321C202.886 165.3 202.802 165.276 202.718 165.253C199.258 164.281 195.357 164.781 191.975 166.631C190.005 167.709 188.195 168.605 185.897 168.721C184.905 168.769 183.463 168.645 182.265 167.811C180.196 166.369 179.805 163.505 179.831 161.346C179.852 159.558 180.259 157.915 180.644 156.319C180.891 155.31 181.147 154.268 181.301 153.205C181.849 149.445 182.646 145.7 183.353 142.537C183.574 141.557 183.798 140.532 184.194 139.574C185.439 136.526 188.481 134.245 191.757 133.905C195.92 133.47 200.037 134.49 203.508 135.555L204.441 135.844C208.719 137.163 213.149 138.524 217.599 138.26C219.028 138.172 220.01 137.741 220.615 136.941C222.05 135.025 221.163 131.151 220.14 126.66C219.902 125.605 219.653 124.521 219.423 123.405C217.853 115.797 222.183 110.96 224.986 109.3C226.3 108.527 233.237 104.893 241.345 109.416C249.101 113.741 245.084 125.888 243.763 129.885C243.638 130.266 243.536 130.564 243.482 130.757C242.76 133.327 241.742 140.344 245.623 141.978C248.304 143.111 252.18 142.441 255.93 141.8C257.938 141.457 259.842 141.131 261.495 141.087C266.457 140.967 270.331 145.081 270.418 147.806C270.507 150.522 269.552 163.157 268.972 165.739C268.514 167.758 267.318 174.472 270.951 176.117C272.888 176.996 275.598 176.09 278.477 175.131C280.856 174.34 283.316 173.517 285.545 173.645C290.602 173.932 296.193 177.287 296.57 182.947C296.816 186.622 294.74 191.566 291.736 194.456C289.801 196.314 287.672 197.184 285.589 196.953C282.493 196.619 280.461 195.822 278.485 195.049C276.599 194.311 274.646 193.555 271.779 193.212C270.64 193.074 269.63 193.379 268.796 194.123C265.964 196.627 265.647 203.306 265.634 206.066C265.623 209.008 264.981 218.396 263.439 224.179C261.902 229.945 250.928 230.335 241.992 228.923C239.32 228.499 236.566 228.305 233.902 228.11L233.112 228.052C227.677 227.658 222.146 227.447 216.797 227.232C215.668 227.187 214.547 227.144 213.418 227.099C213.158 227.089 212.89 227.077 212.629 227.068C211.606 227.034 210.589 227.011 209.563 226.986C207.229 226.938 204.816 226.885 202.447 226.674C199.342 226.436 196.198 226.079 193.334 225.275ZM187.712 188.594C187.426 188.514 187.138 188.442 186.846 188.387C185.713 188.16 184.084 188.056 182.734 188.864C179.725 190.674 179.96 195.679 180.111 198.983C180.127 199.313 180.137 199.633 180.153 199.928C180.308 204.121 180.978 208.45 182.138 212.772C182.71 214.899 183.482 217.345 184.899 219.4C188.575 224.736 195.598 225.766 202.471 226.363C204.823 226.57 207.236 226.623 209.561 226.668C210.587 226.694 211.605 226.716 212.628 226.75C212.888 226.76 213.157 226.772 213.417 226.781C214.546 226.826 215.666 226.869 216.795 226.914C222.147 227.121 227.684 227.343 233.119 227.736L233.909 227.795C236.583 227.984 239.346 228.18 242.026 228.606C250.813 230.004 261.601 229.661 263.075 224.122C264.609 218.364 265.248 209.02 265.262 206.098C265.271 203.291 265.61 196.5 268.542 193.898C269.459 193.086 270.55 192.749 271.794 192.899C274.706 193.245 276.682 194.017 278.584 194.76C280.537 195.517 282.553 196.309 285.604 196.64C288.103 196.907 290.178 195.487 291.471 194.237C294.412 191.411 296.447 186.582 296.2 183.006C295.83 177.547 290.407 174.303 285.502 174.022C283.345 173.897 280.915 174.71 278.566 175.491C275.628 176.469 272.849 177.393 270.791 176.462C266.907 174.71 268.139 167.771 268.613 165.693C269.189 163.127 270.144 150.556 270.053 147.848C269.967 145.251 266.095 141.355 261.488 141.466C259.863 141.508 257.979 141.831 255.979 142.176C252.18 142.831 248.257 143.505 245.48 142.327C241.364 140.592 242.396 133.334 243.139 130.688C243.193 130.495 243.297 130.189 243.425 129.799C244.725 125.878 248.674 113.939 241.17 109.748C233.235 105.318 226.44 108.866 225.159 109.621C222.433 111.229 218.221 115.936 219.755 123.353C219.987 124.46 220.236 125.545 220.466 126.597C221.509 131.176 222.412 135.126 220.878 137.169C220.211 138.06 219.143 138.54 217.606 138.625C213.1 138.891 208.637 137.52 204.326 136.192L203.392 135.903C199.953 134.856 195.891 133.833 191.782 134.266C188.627 134.594 185.709 136.792 184.507 139.717C184.127 140.652 183.901 141.649 183.683 142.62C182.976 145.784 182.183 149.512 181.637 153.264C181.48 154.343 181.221 155.394 180.98 156.413C180.592 157.99 180.198 159.619 180.179 161.363C180.152 163.43 180.522 166.179 182.462 167.531C183.585 168.308 184.938 168.425 185.877 168.372C188.101 168.262 189.879 167.384 191.806 166.33C195.35 164.389 199.438 163.897 203.056 164.985C207.215 166.243 210.596 169.566 211.672 173.447C212.07 174.9 212.201 176.532 212.055 178.312C211.775 181.731 210.517 184.694 208.511 186.641C207.203 187.914 205.436 188.913 203.255 189.614C199.48 190.829 195.346 190.901 191.524 189.828C191.348 189.778 191.163 189.726 190.989 189.668C190.515 189.517 190.044 189.358 189.583 189.192C188.968 188.992 188.35 188.774 187.712 188.594Z" fill="black"/>
<path d="M91.5681 191.004L90.7946 219.632C90.7946 219.632 90.2985 224.683 95.8853 225.997C101.472 227.311 133.941 223.658 158.909 222.464C175.806 221.659 178.123 221.149 180.591 217.527C183.059 213.905 180.703 201.513 180.703 201.513C180.703 201.513 177.088 189.095 185.72 188.776C194.345 188.458 203.961 193.167 208.175 185.855C212.39 178.552 210.626 169.783 203.848 166.852C197.072 163.931 190.894 166.742 190.894 166.742C190.894 166.742 184.012 168.542 183.261 162.137C182.507 155.723 185.121 144.49 185.282 141.071C185.445 137.661 186.647 130.561 179.572 131.474C172.486 132.38 164.15 134.985 164.15 134.985C164.15 134.985 155.363 137.693 154.515 132.947C153.667 128.201 161.984 116.198 152.252 108.545C142.519 100.892 130.612 106.95 127.976 112.426C126.464 115.571 127.135 123.193 129.25 128.357C131.366 133.521 134.236 139.918 125.179 139.394C116.121 138.871 107.975 135.08 105.885 134.151C103.793 133.214 95.3747 131.373 93.0065 138.497C90.6297 145.623 90.9601 162.557 90.9601 162.557C90.9601 162.557 90.1504 169.335 94.5971 169.217C99.0438 169.099 106.599 164.087 114.849 163.148C123.099 162.208 127.788 170.07 127.401 176.269C127.008 182.478 117.263 191.273 107.867 188.241C98.4776 185.199 91.7934 182.838 91.5681 191.004Z" fill="#D37D42"/>
<path d="M175.256 221.211C172.245 221.897 167.426 222.225 158.922 222.64C149.089 223.107 137.896 223.974 128.024 224.745C112.595 225.941 99.2656 226.972 95.854 226.174C90.1829 224.844 90.6263 219.679 90.6317 219.624L91.4006 191.015C91.4627 188.576 92.1043 186.954 93.3525 186.07C95.9715 184.213 100.947 185.826 107.244 187.864L107.921 188.086C111.938 189.381 116.562 188.552 120.606 185.797C124.363 183.241 127.024 179.406 127.221 176.265C127.451 172.598 125.889 168.606 123.25 166.093C121.652 164.578 118.91 162.867 114.862 163.323C110.397 163.83 106.175 165.525 102.444 167.019C99.3366 168.263 96.6558 169.339 94.6018 169.395C93.5516 169.419 92.6973 169.086 92.054 168.382C90.3372 166.501 90.7707 162.707 90.7868 162.542C90.7814 162.4 90.4796 145.514 92.8425 138.445C93.5767 136.247 94.9406 134.693 96.8996 133.826C100.202 132.376 104.432 133.31 105.958 134L106.207 134.114C108.748 135.253 116.501 138.731 125.195 139.23C128.033 139.397 129.826 138.9 130.674 137.713C132.092 135.727 130.588 132.07 129.263 128.846L129.098 128.436C126.929 123.151 126.329 115.485 127.827 112.362C129.339 109.217 133.572 106.276 138.119 105.223C138.145 105.217 138.17 105.211 138.196 105.205C143.24 104.057 148.267 105.193 152.366 108.42C159.288 113.868 157.194 121.529 155.66 127.13C155.011 129.506 154.449 131.557 154.691 132.934C154.842 133.794 155.288 134.453 156.015 134.896C158.633 136.492 164.047 134.848 164.107 134.834C164.19 134.806 172.538 132.216 179.562 131.315C181.544 131.061 183.056 131.414 184.069 132.365C185.949 134.138 185.709 137.565 185.538 140.074C185.515 140.446 185.487 140.792 185.476 141.099C185.43 142.192 185.121 144.096 184.767 146.315C183.998 151.152 182.94 157.781 183.457 162.136C183.664 163.87 184.338 165.139 185.481 165.917C187.663 167.406 190.844 166.601 190.87 166.595C190.902 166.579 197.166 163.793 203.942 166.715C206.809 167.95 208.953 170.333 209.974 173.402C211.279 177.328 210.685 181.91 208.35 185.958C205.356 191.158 199.662 190.397 193.644 189.584C191.042 189.237 188.345 188.867 185.754 188.965C183.846 189.032 182.403 189.728 181.464 191.024C178.926 194.537 180.878 201.42 180.902 201.486C181.003 202.009 183.243 214.007 180.762 217.649C179.486 219.47 178.293 220.52 175.256 221.211ZM91.568 191.004L91.7393 191.01L90.9658 219.637C90.9423 219.848 90.5571 224.562 95.927 225.826C99.2836 226.619 112.594 225.584 127.998 224.393C137.872 223.63 149.064 222.764 158.904 222.286C175.818 221.477 178.03 220.973 180.451 217.425C182.854 213.907 180.558 201.663 180.539 201.542C180.458 201.265 178.522 194.45 181.162 190.798C182.162 189.416 183.693 188.673 185.724 188.596C188.35 188.499 191.056 188.867 193.677 189.219C199.584 190.012 205.159 190.765 208.039 185.769C210.321 181.805 210.905 177.333 209.637 173.497C208.646 170.52 206.574 168.218 203.796 167.016C197.169 164.159 191.042 166.878 190.986 166.909C190.826 166.954 187.603 167.769 185.285 166.194C184.056 165.355 183.327 164 183.106 162.163C182.585 157.754 183.648 151.106 184.419 146.242C184.768 144.042 185.077 142.138 185.13 141.07C185.147 140.753 185.167 140.409 185.198 140.035C185.368 137.598 185.595 134.272 183.837 132.605C182.914 131.733 181.49 131.413 179.621 131.651C172.639 132.542 164.308 135.128 164.225 135.156C163.999 135.226 158.6 136.857 155.848 135.185C155.037 134.689 154.536 133.944 154.362 132.982C154.103 131.529 154.674 129.44 155.332 127.026C156.835 121.522 158.903 113.983 152.158 108.683C148.146 105.525 143.222 104.41 138.28 105.535C138.254 105.541 138.229 105.547 138.203 105.552C133.75 106.584 129.622 109.439 128.154 112.502C126.685 115.556 127.296 123.076 129.432 128.289L129.597 128.699C130.959 132.012 132.501 135.759 130.977 137.904C130.054 139.197 128.166 139.743 125.192 139.57C116.433 139.059 108.642 135.572 106.08 134.42L105.831 134.307C104.346 133.643 100.247 132.733 97.0516 134.141C95.189 134.958 93.8814 136.446 93.1789 138.547C90.8385 145.558 91.1437 162.381 91.1465 162.55C91.143 162.613 90.7122 166.38 92.3195 168.134C92.8905 168.756 93.6566 169.055 94.5989 169.029C96.5915 168.978 99.2467 167.908 102.322 166.68C106.068 165.174 110.317 163.481 114.834 162.963C118.139 162.586 121.13 163.578 123.503 165.83C126.221 168.414 127.825 172.513 127.581 176.273C127.379 179.513 124.653 183.453 120.811 186.072C116.674 188.884 111.939 189.739 107.823 188.403L107.146 188.182C100.946 186.176 96.0482 184.589 93.5668 186.344C92.411 187.162 91.8181 188.683 91.7583 191.014L91.568 191.004Z" fill="black"/>
<path d="M180.439 63.1114L182.851 134.885C182.851 134.885 182.391 143.318 190.924 143.561C199.456 143.804 211.564 143.674 217.146 142.574C222.728 141.474 224.64 136.535 222.414 132.177C220.181 127.816 215.981 122.63 219.054 115.05C222.126 107.47 236.236 103.392 243.896 111.864C251.557 120.336 242.784 129.818 241.866 133.731C240.948 137.644 241.697 140.376 247.096 141.131C252.494 141.887 268.733 140.702 272.222 139.821C277.333 138.527 281.492 134.479 281.144 128.937C280.997 126.602 280.22 124.362 279.444 122.151C278.47 119.38 277.506 116.604 276.532 113.833C275.462 110.771 274.57 103.031 278.946 102.012C281.106 101.503 283.353 102.766 285.341 103.426C288.606 104.507 299.087 105.452 303.051 98.4904C307.012 91.5368 306.433 84.1895 300.563 80.1931C294.695 76.1883 286.11 78.5582 282.407 81.7681C280.366 83.5397 277.126 84.4395 274.673 82.9517C271.41 80.9704 271.812 76.6778 272.181 73.3939C272.589 69.8215 273.474 66.3264 274.271 62.8232C274.943 59.8379 275.734 56.415 275.285 53.3446C274.894 50.6917 271.655 48.8449 269.32 48.3108C266.246 47.6038 263.058 48.1098 259.951 48.221C256.246 48.3558 252.543 48.5458 248.849 48.8569C246.724 49.0304 244.013 48.9401 242.017 49.7882C239.778 50.7469 234.256 51.8009 237.136 58.6262C240.024 65.4539 245.832 73.1431 241.768 81.74C237.704 90.3369 224.282 88.4148 220.615 85.0592C216.948 81.7036 214.613 76.2395 218.517 65.4399C220.937 58.7499 219.624 52.3778 214.095 52.0656C208.566 51.7534 188.078 52.7584 188.078 52.7584C188.078 52.7584 180.098 52.7691 180.439 63.1114Z" fill="#ACC1ED"/>
<path d="M188.236 143.332C186.897 142.937 185.772 142.25 184.891 141.29C182.501 138.693 182.673 135.024 182.682 134.872L180.274 63.1174C180.152 59.5524 180.998 56.8095 182.783 54.9529C185.041 52.5996 187.963 52.5611 188.09 52.5622C188.286 52.5471 208.65 51.5603 214.116 51.8719C216.038 51.9842 217.589 52.8328 218.58 54.344C220.253 56.8748 220.296 61.0442 218.687 65.4811C215.43 74.4887 216.084 80.6574 220.74 84.9143C222.927 86.9055 228.632 88.3792 233.662 87.3893C236.3 86.8666 239.819 85.4492 241.622 81.6515C244.861 74.8031 241.706 68.4153 238.923 62.7736C238.222 61.3571 237.557 60.0057 236.994 58.6755C236.077 56.513 235.925 54.713 236.531 53.3089C237.386 51.333 239.533 50.5293 241.106 49.9472C241.422 49.8313 241.719 49.7188 241.967 49.6191C243.53 48.9434 245.54 48.8539 247.314 48.7589C247.849 48.7347 248.366 48.7056 248.859 48.6691C252.317 48.3883 255.953 48.1786 259.97 48.0356C260.723 48.0121 261.502 47.9601 262.254 47.909C264.6 47.7553 267.032 47.5904 269.383 48.1294C271.607 48.6398 275.059 50.4405 275.477 53.3105C275.92 56.3701 275.158 59.7561 274.489 62.733L274.463 62.8527C274.326 63.4399 274.197 64.0296 274.061 64.6168C273.399 67.4775 272.715 70.4412 272.377 73.4066C272.041 76.3636 271.526 80.8231 274.783 82.7935C277.175 84.2448 280.38 83.3076 282.312 81.6308C286.03 78.3984 294.713 75.9754 300.679 80.0457C306.411 83.9559 307.413 91.2276 303.217 98.5759C299.315 105.42 289.225 104.753 285.577 103.677C285.476 103.648 285.384 103.62 285.303 103.587C284.856 103.437 284.397 103.266 283.924 103.081C282.301 102.447 280.628 101.799 279.004 102.184C278.019 102.412 277.256 103.024 276.726 103.986C275.294 106.592 275.877 111.367 276.72 113.78L279.633 122.098C280.397 124.288 281.194 126.551 281.337 128.931C281.706 134.897 277.047 138.789 272.28 139.993C268.614 140.922 252.347 142.044 247.088 141.311C244.608 140.962 242.98 140.19 242.122 138.937C241.288 137.726 241.161 136.061 241.71 133.704C241.934 132.76 242.597 131.5 243.369 130.054C245.832 125.406 249.551 118.38 243.785 111.995C240.397 108.249 235.358 106.644 229.976 107.594C224.947 108.485 220.736 111.444 219.239 115.132C216.659 121.502 219.225 126.061 221.492 130.095C221.886 130.793 222.262 131.459 222.597 132.113C223.732 134.339 223.828 136.76 222.854 138.764C221.858 140.817 219.848 142.234 217.202 142.754C211.862 143.808 200.159 144.012 190.942 143.748C189.944 143.709 189.047 143.572 188.236 143.332ZM215.508 52.4554C215.073 52.3271 214.596 52.2499 214.095 52.2204C208.646 51.9137 188.301 52.8971 188.097 52.9097C188.061 52.9082 185.183 52.9507 183.029 55.1983C181.31 56.9835 180.506 59.6477 180.624 63.1024L183.035 134.876C183.029 134.929 182.863 138.573 185.159 141.06C186.516 142.534 188.467 143.318 190.948 143.386C200.155 143.656 211.822 143.45 217.135 142.398C219.673 141.901 221.591 140.548 222.539 138.599C223.464 136.698 223.372 134.388 222.282 132.256C221.956 131.605 221.577 130.948 221.182 130.249C218.993 126.356 216.265 121.513 218.908 114.989C220.448 111.187 224.764 108.149 229.908 107.238C235.417 106.261 240.57 107.909 244.039 111.752C249.971 118.313 246.185 125.473 243.678 130.209C242.919 131.641 242.264 132.875 242.052 133.777C241.524 136.032 241.64 137.612 242.41 138.731C243.213 139.895 244.76 140.633 247.137 140.962C252.368 141.696 268.544 140.573 272.191 139.648C276.821 138.476 281.343 134.708 280.987 128.946C280.848 126.613 280.063 124.371 279.3 122.209L276.388 113.891C275.686 111.892 274.777 106.803 276.422 103.815C276.998 102.757 277.848 102.097 278.932 101.844C280.66 101.445 282.392 102.11 284.065 102.758C284.538 102.943 284.988 103.113 285.427 103.26C288.733 104.354 299.03 105.245 302.929 98.4093C307.021 91.2303 306.067 84.1363 300.493 80.3365C294.671 76.3633 286.191 78.7461 282.55 81.9013C280.584 83.6041 277.265 84.7081 274.612 83.0976C271.163 81.0069 271.69 76.4145 272.042 73.3714C272.385 70.3892 273.071 67.4172 273.727 64.5456C273.864 63.9584 274.001 63.3712 274.129 62.7815L274.155 62.6619C274.817 59.71 275.575 56.3683 275.134 53.3639C274.742 50.6835 271.352 48.9468 269.31 48.4715C267.011 47.9389 264.607 48.1029 262.28 48.2531C261.528 48.3042 260.748 48.3563 259.985 48.3857C255.968 48.5286 252.342 48.7325 248.885 49.0132C248.392 49.0497 247.866 49.0764 247.329 49.1089C245.585 49.1947 243.609 49.294 242.108 49.9426C241.858 50.0507 241.552 50.1607 241.234 50.285C239.721 50.8485 237.648 51.6193 236.859 53.4603C236.292 54.7665 236.448 56.4862 237.329 58.5561C237.892 59.8863 238.554 61.2186 239.255 62.635C242.074 68.3417 245.275 74.8162 241.964 81.8162C240.103 85.7512 236.477 87.2193 233.755 87.7532C228.628 88.7602 222.781 87.2446 220.532 85.1893C215.759 80.8344 215.078 74.5397 218.388 65.3839C219.959 61.0449 219.926 56.9967 218.317 54.5574C217.595 53.4895 216.663 52.7961 215.508 52.4554Z" fill="black"/>
<path d="M1.08304 148.212L3.4942 219.986C3.4942 219.986 3.03492 228.418 11.5675 228.662C20.1 228.905 32.208 228.775 37.7897 227.675C43.3715 226.574 45.2832 221.636 43.058 217.277C40.8245 212.917 36.6244 207.73 39.6971 200.151C42.7699 192.571 56.8794 188.493 64.5397 196.965C72.2001 205.437 63.4273 214.919 62.5094 218.832C61.5915 222.745 62.3411 225.476 67.7391 226.232C73.1372 226.987 89.3766 225.802 92.8653 224.922C97.9765 223.628 102.136 219.58 101.788 214.038C101.64 211.702 100.864 209.463 100.088 207.251C99.1136 204.481 98.1499 201.705 97.1754 198.934C96.1052 195.871 95.214 188.132 99.5895 187.113C101.75 186.604 103.996 187.867 105.985 188.526C109.25 189.608 119.731 190.553 123.694 183.591C127.656 176.637 127.076 169.29 121.206 165.294C115.339 161.289 106.754 163.659 103.051 166.869C101.01 168.64 97.7699 169.54 95.3164 168.052C92.0535 166.071 92.4558 161.778 92.8242 158.494C93.2323 154.922 94.1178 151.427 94.9148 147.924C95.5862 144.938 96.3777 141.516 95.9283 138.445C95.5375 135.792 92.2987 133.945 89.9641 133.411C86.8892 132.704 83.702 133.21 80.595 133.322C76.8897 133.456 73.1864 133.646 69.4928 133.957C67.3679 134.131 64.6568 134.041 62.6603 134.889C60.422 135.847 54.8993 136.901 57.7792 143.727C60.6675 150.554 66.4759 158.244 62.4118 166.841C58.3477 175.437 44.9259 173.515 41.259 170.16C37.592 166.804 35.2565 161.34 39.1609 150.54C41.5801 143.85 40.2674 137.478 34.7385 137.166C29.2096 136.854 8.72128 137.859 8.72128 137.859C8.72128 137.859 0.741408 137.87 1.08304 148.212Z" fill="#EDACB7"/>
<path d="M8.87918 228.433C7.54042 228.038 6.41507 227.351 5.53412 226.391C3.14409 223.794 3.31692 220.125 3.32541 219.973L0.917669 148.218C0.796008 144.653 1.64156 141.91 3.42622 140.054C5.68488 137.7 8.60679 137.662 8.73381 137.663C8.92927 137.648 29.294 136.661 34.7594 136.972C36.6818 137.085 38.2323 137.933 39.2236 139.445C40.8964 141.975 40.9398 146.145 39.3308 150.582C36.0732 159.589 36.7274 165.758 41.3837 170.015C43.5704 172.006 49.2751 173.48 54.3058 172.49C56.9431 171.967 60.4628 170.55 62.2652 166.752C65.5043 159.904 62.3498 153.516 59.5665 147.874C58.8656 146.458 58.2001 145.106 57.6375 143.776C56.7201 141.614 56.5689 139.814 57.1741 138.41C58.0299 136.434 60.177 135.63 61.7494 135.048C62.0656 134.932 62.3625 134.819 62.6103 134.72C64.1739 134.044 66.1831 133.955 67.9574 133.859C68.4921 133.835 69.01 133.806 69.5029 133.77C72.9601 133.489 76.5965 133.279 80.6134 133.136C81.3661 133.113 82.1455 133.061 82.8973 133.01C85.2438 132.856 87.6754 132.691 90.0268 133.23C92.2501 133.74 95.7027 135.541 96.1203 138.411C96.5639 141.471 95.8015 144.857 95.1325 147.834L95.1063 147.953C94.9694 148.54 94.841 149.13 94.7041 149.717C94.0421 152.578 93.3588 155.542 93.0207 158.507C92.685 161.464 92.1698 165.924 95.4268 167.894C97.8183 169.345 101.024 168.408 102.955 166.731C106.674 163.499 115.356 161.076 121.323 165.146C127.054 169.056 128.056 176.328 123.86 183.677C119.959 190.52 109.868 189.854 106.22 188.778C106.12 188.748 106.028 188.721 105.946 188.688C105.5 188.538 105.041 188.366 104.568 188.181C102.945 187.548 101.271 186.9 99.6479 187.285C98.6622 187.512 97.8996 188.124 97.37 189.087C95.9373 191.693 96.5207 196.467 97.3641 198.881L100.277 207.198C101.04 209.388 101.837 211.651 101.981 214.031C102.349 219.997 97.6903 223.889 92.9238 225.094C89.2573 226.022 72.9909 227.145 67.7317 226.412C65.2517 226.062 63.6238 225.291 62.7657 224.037C61.9312 222.827 61.8041 221.161 62.3539 218.804C62.5777 217.861 63.2404 216.601 64.0125 215.155C66.4754 210.506 70.1941 203.481 64.4284 197.096C61.0404 193.35 56.0019 191.745 50.6192 192.695C45.5905 193.585 41.3794 196.545 39.8822 200.233C37.3028 206.603 39.8689 211.161 42.1352 215.195C42.5295 215.894 42.906 216.56 43.2408 217.213C44.3757 219.44 44.4712 221.86 43.4978 223.865C42.5011 225.918 40.4914 227.335 37.8457 227.855C32.5053 228.908 20.8029 229.112 11.5851 228.849C10.5872 228.809 9.69081 228.672 8.87918 228.433ZM36.1517 137.556C35.7166 137.428 35.2391 137.35 34.7384 137.321C29.2898 137.014 8.94424 137.998 8.74041 138.01C8.70448 138.009 5.82688 138.051 3.67218 140.299C1.95405 142.084 1.14991 144.748 1.26772 148.203L3.67889 219.977C3.67244 220.03 3.50702 223.674 5.80212 226.161C7.15921 227.634 9.11058 228.419 11.5918 228.487C20.7987 228.756 32.4652 228.551 37.7781 227.499C40.3169 227.001 42.235 225.648 43.1828 223.699C44.1074 221.798 44.0158 219.488 42.9256 217.357C42.5992 216.706 42.2202 216.048 41.8259 215.35C39.6363 211.457 36.9084 206.614 39.5515 200.09C41.0916 196.287 45.4077 193.249 50.5516 192.338C56.0603 191.362 61.2135 193.01 64.6822 196.852C70.6141 203.414 66.8283 210.574 64.3216 215.31C63.5627 216.741 62.9075 217.976 62.696 218.878C62.1674 221.132 62.2833 222.713 63.0539 223.831C63.8564 224.996 65.4031 225.734 67.7802 226.062C73.0119 226.796 89.1872 225.674 92.8345 224.749C97.4641 223.577 101.987 219.809 101.631 214.046C101.492 211.713 100.707 209.472 99.9438 207.309L97.0312 198.992C96.3293 196.993 95.4202 191.904 97.0659 188.915C97.6418 187.857 98.4911 187.198 99.5754 186.945C101.303 186.545 103.035 187.211 104.708 187.859C105.181 188.044 105.632 188.213 106.07 188.361C109.377 189.454 119.674 190.345 123.573 183.51C127.664 176.331 126.71 169.237 121.137 165.437C115.315 161.464 106.835 163.847 103.194 167.002C101.227 168.705 97.909 169.809 95.2553 168.198C91.8064 166.107 92.3334 161.515 92.6854 158.472C93.0285 155.49 93.7143 152.518 94.3704 149.646C94.5072 149.059 94.6441 148.472 94.7726 147.882L94.7988 147.762C95.4604 144.811 96.2188 141.469 95.7771 138.464C95.3855 135.784 91.9958 134.047 89.9531 133.572C87.6545 133.04 85.2504 133.203 82.9231 133.354C82.1713 133.405 81.3919 133.457 80.6283 133.486C76.6115 133.629 72.9859 133.833 69.5287 134.114C69.0359 134.15 68.5096 134.177 67.9724 134.21C66.2281 134.295 64.2524 134.395 62.7513 135.043C62.5011 135.151 62.1958 135.261 61.8771 135.386C60.3648 135.949 58.2911 136.72 57.5024 138.561C56.9351 139.867 57.0918 141.587 57.9728 143.657C58.5354 144.987 59.1975 146.319 59.8984 147.736C62.7171 153.442 65.9188 159.917 62.6077 166.917C60.7466 170.852 57.121 172.32 54.3986 172.854C49.2718 173.861 43.4249 172.345 41.1752 170.29C36.4024 165.935 35.7217 159.64 39.032 150.484C40.603 146.146 40.5694 142.097 38.9606 139.658C38.2387 138.59 37.3064 137.897 36.1517 137.556Z" fill="black"/>
<path d="M187.489 128.077L185.836 56.2811C185.836 56.2811 186.384 47.854 177.854 47.5207C169.325 47.1875 157.216 47.1897 151.623 48.2309C146.03 49.2722 144.066 54.1905 146.245 58.572C148.433 62.9561 152.578 68.1866 149.425 75.7333C146.273 83.2801 132.121 87.2091 124.55 78.6568C116.98 70.1044 125.852 60.7158 126.811 56.8126C127.771 52.9094 127.05 50.1702 121.66 49.3576C116.27 48.545 100.019 49.5587 96.5215 50.4027C91.3969 51.6423 87.1951 55.6465 87.4846 61.1916C87.6077 63.5287 88.3605 65.7759 89.1127 67.9956C90.0579 70.7762 90.9922 73.5627 91.9374 76.3433C92.9753 79.417 93.7848 87.1654 89.3988 88.1386C87.2333 88.6245 84.9999 87.3378 83.0186 86.6575C79.7656 85.5418 69.2951 84.4859 65.2581 91.4057C61.2235 98.3171 61.7254 105.67 67.5529 109.728C73.3779 113.795 81.9873 111.515 85.7237 108.345C87.7839 106.595 91.0328 105.729 93.4705 107.243C96.7123 109.259 96.2648 113.547 95.8617 116.826C95.4159 120.394 94.4936 123.88 93.6597 127.375C92.9567 130.353 92.1292 133.767 92.5462 136.842C92.9089 139.499 96.1282 141.38 98.457 141.938C101.524 142.678 104.717 142.205 107.825 142.127C111.531 142.031 115.236 141.88 118.933 141.608C121.06 141.457 123.769 141.576 125.775 140.749C128.023 139.814 133.557 138.818 130.749 131.963C127.933 125.105 122.206 117.355 126.36 108.802C130.515 100.248 143.916 102.312 147.547 105.706C151.179 109.1 153.456 114.589 149.438 125.346C146.948 132.01 148.194 138.396 153.719 138.767C159.244 139.137 179.742 138.348 179.742 138.348C179.742 138.348 187.722 138.422 187.489 128.077Z" fill="#ACEDCD"/>
<path d="M180.54 47.7781C181.875 48.1871 182.993 48.8856 183.863 49.8551C186.226 52.4771 186.014 56.1441 186.004 56.2962L187.655 128.072C187.739 131.638 186.864 134.372 185.06 136.21C182.777 138.539 179.855 138.547 179.728 138.544C179.532 138.558 159.158 139.329 153.696 138.96C151.775 138.827 150.234 137.963 149.258 136.441C147.612 133.893 147.613 129.723 149.269 125.303C152.621 116.331 152.032 110.155 147.421 105.85C145.255 103.835 139.566 102.302 134.526 103.238C131.883 103.733 128.349 105.113 126.506 108.892C123.195 115.706 126.282 122.127 129.005 127.797C129.691 129.221 130.343 130.579 130.891 131.915C131.786 134.087 131.918 135.889 131.298 137.287C130.421 139.253 128.266 140.034 126.687 140.6C126.37 140.712 126.072 140.822 125.823 140.919C124.252 141.578 122.242 141.646 120.467 141.723C119.932 141.741 119.414 141.765 118.921 141.796C115.461 142.04 111.822 142.212 107.804 142.312C107.051 142.328 106.271 142.372 105.519 142.415C103.171 142.544 100.738 142.683 98.3923 142.119C96.1745 141.585 92.7411 139.748 92.3538 136.874C91.9426 133.81 92.7406 130.432 93.441 127.462L93.4685 127.343C93.6115 126.757 93.7462 126.169 93.8892 125.583C94.5814 122.73 95.2959 119.773 95.6653 116.812C96.0322 113.858 96.5944 109.405 93.3583 107.4C90.9823 105.924 87.7674 106.827 85.8181 108.483C82.0656 111.676 73.3582 114.007 67.435 109.874C61.7448 105.904 60.8197 98.6221 65.0931 91.3185C69.0668 84.5161 79.1495 85.289 82.7861 86.4036C82.8862 86.4343 82.9779 86.4624 83.0588 86.4963C83.5041 86.651 83.9609 86.8276 84.4319 87.0176C86.0483 87.6681 87.7147 88.334 89.3421 87.966C90.3302 87.7488 91.0992 87.145 91.6389 86.1881C93.0991 83.5973 92.566 78.817 91.7482 76.3947L88.9235 68.047C88.1829 65.8491 87.4101 63.5775 87.2915 61.1962C86.9861 55.2265 91.6858 51.384 96.4648 50.2301C100.141 49.3404 116.418 48.3895 121.669 49.1779C124.146 49.5536 125.765 50.342 126.61 51.6046C127.432 52.8237 127.541 54.4905 126.967 56.8418C126.733 57.783 126.057 59.0357 125.27 60.4732C122.758 65.0958 118.965 72.0814 124.663 78.5269C128.011 82.3088 133.033 83.9664 138.425 83.0736C143.463 82.2362 147.705 79.321 149.241 75.6494C151.888 69.307 149.37 64.7213 147.146 60.6637C146.759 59.9612 146.39 59.2914 146.062 58.6343C144.951 56.3958 144.881 53.9746 145.875 51.9801C146.893 49.9382 148.918 48.5422 151.569 48.05C156.92 47.0532 168.624 46.9726 177.839 47.3333C178.836 47.3835 179.731 47.5301 180.54 47.7781ZM152.31 138.362C152.744 138.495 153.22 138.577 153.721 138.612C159.166 138.976 179.521 138.207 179.725 138.197C179.761 138.199 182.638 138.187 184.817 135.962C186.554 134.195 187.386 131.539 187.304 128.084L185.651 56.2882C185.658 56.2356 185.862 52.5936 183.593 50.0825C182.251 48.5946 180.308 47.7892 177.828 47.6951C168.625 47.3285 156.957 47.4111 151.633 48.4072C149.089 48.8775 147.157 50.2105 146.188 52.1491C145.244 54.0403 145.311 56.3511 146.379 58.4941C146.698 59.1486 147.07 59.8102 147.457 60.5127C149.605 64.4286 152.282 69.3002 149.57 75.7959C147.99 79.5818 143.642 82.574 138.489 83.4307C132.97 84.3488 127.835 82.647 124.407 78.7677C118.545 72.1441 122.406 65.0244 124.962 60.3151C125.736 58.8917 126.404 57.664 126.625 56.7646C127.178 54.5159 127.078 52.9344 126.32 51.8076C125.53 50.6348 123.991 49.8802 121.617 49.5268C116.394 48.7378 100.207 49.6892 96.5505 50.5757C91.9087 51.6987 87.3468 55.4192 87.6416 61.1849C87.7564 63.5194 88.5176 65.7692 89.2576 67.9395L92.0823 76.2873C92.763 78.2934 93.6184 83.3915 91.9412 86.3629C91.3542 87.4148 90.498 88.0648 89.4111 88.3065C87.6791 88.6881 85.9543 88.0043 84.2879 87.3384C83.817 87.1484 83.3684 86.9745 82.9315 86.8223C79.6368 85.6938 69.3498 84.6941 65.3787 91.4881C61.2116 98.6236 62.091 105.727 67.6239 109.586C73.4039 113.62 81.9081 111.327 85.5824 108.21C87.567 106.528 90.8965 105.459 93.5331 107.098C96.9598 109.225 96.3843 113.811 96.0002 116.851C95.6256 119.829 94.9086 122.794 94.2222 125.658C94.0791 126.244 93.9361 126.83 93.8014 127.418L93.774 127.537C93.0813 130.482 92.2876 133.815 92.6975 136.824C93.0609 139.509 96.432 141.281 98.4696 141.778C100.762 142.335 103.168 142.196 105.497 142.07C106.249 142.027 107.029 141.983 107.793 141.962C111.811 141.862 115.439 141.696 118.899 141.452C119.392 141.42 119.918 141.399 120.456 141.372C122.201 141.305 124.178 141.227 125.685 140.594C125.937 140.488 126.243 140.382 126.563 140.261C128.081 139.713 130.163 138.964 130.971 137.132C131.552 135.832 131.414 134.11 130.555 132.031C130.006 130.695 129.358 129.356 128.672 127.932C125.914 122.196 122.781 115.688 126.165 108.724C128.068 104.808 131.709 103.379 134.437 102.874C139.574 101.921 145.404 103.498 147.632 105.577C152.359 109.982 152.973 116.283 149.566 125.404C147.95 129.726 147.941 133.774 149.524 136.23C150.234 137.306 151.159 138.009 152.31 138.362Z" fill="black"/>
</svg>
