<svg width="201" height="172" viewBox="0 0 201 172" fill="none" xmlns="http://www.w3.org/2000/svg">
<g clip-path="url(#clip0_111_707)">
<path d="M169.49 139.72C168.706 142.281 168.544 145.045 168.936 147.69C169.772 153.277 173.974 157.704 174.883 163.202C174.768 163.861 174.632 164.53 174.455 165.194C174.455 165.204 174.449 165.22 174.444 165.225C174.444 165.23 174.439 165.235 174.444 165.241C174.444 165.246 174.444 165.246 174.444 165.246C174.444 165.251 174.444 165.251 174.444 165.256C174.449 165.288 174.47 165.309 174.496 165.319C174.533 165.246 174.57 165.167 174.601 165.094C174.669 164.953 174.732 164.817 174.784 164.681C174.873 164.483 174.946 164.289 175.019 164.086C175.04 164.096 175.066 163.997 175.066 163.971C177.115 158.321 175.233 152.054 174.277 146.316C173.728 143.039 173.958 139.725 173.472 136.464C173.352 135.685 173.362 134.206 172.239 134.504C170.979 134.849 169.814 138.669 169.49 139.72Z" fill="#EBEBEB"/>
<path d="M170.315 144.538C169.96 151.338 176.232 157.281 174.773 164.07C174.726 164.263 174.679 164.451 174.627 164.639C174.591 164.77 174.554 164.901 174.512 165.031C174.512 165.031 174.512 165.031 174.512 165.037C174.496 165.089 174.476 165.141 174.455 165.199C174.455 165.209 174.449 165.225 174.444 165.23C174.444 165.235 174.439 165.241 174.444 165.246C174.444 165.251 174.444 165.251 174.444 165.251C174.444 165.256 174.444 165.256 174.444 165.261C174.449 165.293 174.47 165.314 174.496 165.324C174.507 165.329 174.517 165.329 174.523 165.329C174.543 165.329 174.564 165.314 174.58 165.288C174.658 165.089 174.726 164.885 174.789 164.681C174.951 164.18 175.066 163.678 175.134 163.176C175.139 163.176 175.134 163.171 175.134 163.171C175.793 160.181 175.631 157.213 174.998 154.072C174.219 150.214 173.237 146.472 172.531 142.573C172.442 142.092 172.442 140.195 171.669 140.446C170.692 140.77 170.362 143.754 170.315 144.538ZM170.655 143.53C170.718 143.148 171.209 140.592 171.841 140.859C172.218 141.016 172.265 142.95 172.327 143.221C172.552 144.272 172.777 145.317 173.002 146.373C173.482 148.584 173.979 150.789 174.455 153C175.04 155.734 175.406 158.462 175.212 161.174C174.862 155.221 169.662 149.702 170.655 143.53Z" fill="white"/>
<path d="M176.43 195.23C176.409 195.251 176.415 195.282 176.436 195.298C176.457 195.319 176.488 195.319 176.514 195.293C176.624 195.188 176.728 195.089 176.833 194.979C177.225 194.592 177.601 194.206 177.967 193.808C178.035 193.735 178.103 193.667 178.166 193.589C178.192 193.584 178.207 193.578 178.223 193.568C182.336 189.361 188.572 188.075 192.078 183.199C193.641 181.03 194.634 178.516 195.382 175.96C195.706 174.857 197.289 171.491 195.899 170.618C194.817 169.939 193.129 171.413 192.423 172.04C190.181 174.031 188.592 176.812 187.035 179.336C185.504 181.803 184.113 184.348 182.655 186.857C181.301 189.183 179.728 191.253 178.056 193.291C177.523 193.939 176.979 194.587 176.43 195.23Z" fill="#EBEBEB"/>
<path d="M170.404 180.972C170.362 181.045 170.357 181.113 170.378 181.176C170.409 181.265 170.503 181.328 170.608 181.338C170.66 181.348 170.713 181.338 170.76 181.322C170.791 181.328 170.822 181.317 170.848 181.291C173.336 178.861 177.131 176.592 179.692 174.261C181.657 172.469 183.267 170.331 184.625 168.042C186.125 165.517 187.416 162.774 188.263 159.946C188.665 158.598 189.826 155.415 188.728 154.087C186.481 151.359 181.934 161.279 181.28 162.392C177.643 168.575 173.995 174.758 170.404 180.972Z" fill="#EBEBEB"/>
<path d="M170.383 181.176C170.415 181.265 170.509 181.327 170.613 181.338C170.76 181.129 170.906 180.915 171.052 180.706C172.024 179.561 172.997 178.422 174.037 177.329C175.725 175.552 177.653 174.016 179.284 172.186C182.122 168.998 187.443 158.838 185.911 157.824C185.112 157.296 184.129 159.387 183.836 159.883C182.692 161.843 181.803 163.929 180.632 165.873C179.409 167.916 178.066 169.882 176.728 171.852C174.664 174.883 172.589 177.899 170.556 180.956C170.493 181.035 170.441 181.103 170.383 181.176ZM172.422 178.714C174.256 176.038 176.07 173.341 177.889 170.65C179.143 168.789 180.382 166.913 181.5 164.969C182.122 163.876 182.681 162.753 183.241 161.629C183.518 161.085 183.789 160.531 184.098 160.003C184.364 159.549 185.357 157.652 185.807 158.347C186.241 159.016 184.908 162.016 184.594 162.716C184.077 163.845 183.544 164.969 182.969 166.071C181.835 168.24 180.533 170.341 178.882 172.165C177.235 173.984 175.317 175.521 173.655 177.329C173.247 177.784 172.829 178.244 172.422 178.714Z" fill="white"/>
<path d="M146.263 158.796C145.965 161.216 145.934 163.688 146.211 166.113C146.749 170.859 148.411 175.302 150.993 179.3C151.04 179.368 151.082 179.441 151.134 179.514C151.176 179.744 151.218 179.979 151.275 180.204C151.286 180.256 151.296 180.309 151.307 180.361C151.312 180.376 151.312 180.382 151.317 180.392H151.322C151.354 180.429 151.427 180.413 151.427 180.345C151.427 180.063 151.432 179.77 151.437 179.488C151.531 173.603 152.618 167.833 151.829 161.937C151.652 160.652 150.815 152.221 147.868 153.664C146.503 154.333 146.409 157.563 146.263 158.796Z" fill="#EBEBEB"/>
<path d="M147.439 159.977C147.235 163.605 148.186 167.504 148.934 171.037C149.514 173.781 150.13 176.592 150.998 179.295C151.066 179.514 151.139 179.739 151.212 179.958C151.233 180.037 151.254 180.12 151.28 180.199C151.291 180.261 151.306 180.324 151.327 180.387H151.333C151.364 180.423 151.437 180.408 151.437 180.34C151.437 180.058 151.442 179.765 151.448 179.483C151.39 179.268 151.327 179.054 151.27 178.835C150.841 175.631 150.883 172.417 150.909 169.166C150.925 167.41 150.899 165.664 150.742 163.918C150.59 162.241 150.517 160.432 149.995 158.817C149.765 158.112 149.289 156.721 148.301 157.239C147.46 157.673 147.486 159.209 147.439 159.977ZM149.603 158.754C150.225 160.662 150.319 162.899 150.455 164.896C150.59 166.803 150.564 168.727 150.549 170.634C150.528 172.662 150.507 174.721 150.695 176.754C150 174.204 149.326 171.643 148.829 169.025C148.437 166.976 148.097 164.916 147.857 162.847C147.732 161.781 147.653 160.704 147.752 159.627C147.784 159.246 147.826 158.859 147.909 158.493C148.16 157.307 149.32 157.892 149.603 158.754Z" fill="white"/>
<path d="M182.42 143.498C182.399 143.592 182.383 143.686 182.362 143.78C182.336 143.927 182.472 144 182.582 143.974C182.645 143.958 182.692 143.916 182.707 143.838C182.744 143.671 182.786 143.493 182.828 143.326V143.321C182.859 143.179 182.89 143.049 182.922 142.908C183.047 142.678 183.183 142.458 183.334 142.239C184.897 139.876 187.599 137.88 189.439 135.862C191.111 134.028 192.695 132.105 193.97 129.972C195.267 127.819 196.28 125.456 196.599 122.943C196.683 122.268 197.002 120.559 196.16 120.136C195.094 119.598 193.463 121.641 192.888 122.179C190.908 124.035 189.214 126.193 187.793 128.503C184.939 133.145 183.481 138.209 182.42 143.498Z" fill="#EBEBEB"/>
<path d="M182.895 142.328C182.713 142.715 182.551 143.107 182.42 143.499C182.399 143.593 182.383 143.687 182.362 143.781C182.336 143.927 182.472 144 182.582 143.974C182.603 143.906 182.624 143.838 182.645 143.77C182.707 143.624 182.765 143.472 182.828 143.326V143.321C182.984 142.955 183.152 142.594 183.334 142.239C183.967 140.985 184.725 139.798 185.624 138.601C187.124 136.6 188.697 134.655 190.118 132.596C190.834 131.566 196.322 123.627 194.164 122.87C193.756 122.723 193.364 123.267 193.15 123.492C192.387 124.286 191.765 125.227 191.179 126.152C189.805 128.305 188.509 130.511 187.28 132.753C185.598 135.842 184.098 139.025 182.895 142.328ZM186.821 134.127C187.866 132.141 188.979 130.192 190.139 128.274C190.704 127.338 191.268 126.398 191.885 125.488C192.188 125.039 193.73 123.026 194.153 123.293C194.77 123.68 193.301 126.816 192.857 127.662C192.345 128.624 191.791 129.565 191.206 130.485C190.035 132.34 188.739 134.112 187.406 135.857C186.23 137.404 184.829 139.04 183.726 140.817C184.641 138.533 185.681 136.302 186.821 134.127Z" fill="white"/>
<path d="M163.563 171.125C163.594 171.22 163.625 171.303 163.657 171.397C163.704 171.538 163.86 171.533 163.944 171.455C163.991 171.408 164.007 171.35 163.986 171.277C163.934 171.11 163.881 170.943 163.834 170.775V170.77C163.793 170.634 163.751 170.503 163.709 170.368C163.704 170.106 163.709 169.845 163.73 169.584C163.892 166.756 165.23 163.672 165.81 161.007C166.338 158.582 166.74 156.125 166.777 153.632C166.813 151.118 166.51 148.568 165.528 146.232C165.261 145.605 164.681 143.969 163.74 144.026C162.549 144.094 162.167 146.681 161.937 147.434C161.153 150.037 160.772 152.749 160.704 155.462C160.547 160.902 161.822 166.019 163.563 171.125Z" fill="#EBEBEB"/>
<path d="M163.385 169.871C163.422 170.295 163.479 170.718 163.563 171.126C163.594 171.22 163.625 171.303 163.657 171.397C163.704 171.539 163.861 171.533 163.944 171.455C163.929 171.387 163.913 171.319 163.897 171.246C163.876 171.089 163.85 170.927 163.829 170.77V170.765C163.782 170.368 163.746 169.976 163.725 169.573C163.641 168.173 163.704 166.762 163.876 165.277C164.169 162.795 164.551 160.322 164.754 157.829C164.854 156.58 165.617 146.958 163.369 147.387C162.946 147.465 162.878 148.134 162.805 148.437C162.544 149.509 162.481 150.633 162.434 151.725C162.324 154.275 162.308 156.836 162.376 159.392C162.465 162.91 162.768 166.411 163.385 169.871ZM162.664 160.809C162.575 158.561 162.559 156.319 162.596 154.077C162.617 152.984 162.632 151.887 162.711 150.795C162.747 150.256 163.071 147.737 163.573 147.753C164.305 147.779 164.608 151.228 164.645 152.185C164.686 153.277 164.676 154.364 164.634 155.451C164.551 157.641 164.321 159.831 164.044 162.005C163.803 163.929 163.411 166.051 163.348 168.141C162.988 165.716 162.774 163.265 162.664 160.809Z" fill="white"/>
<path d="M150.711 175.077C151.495 180.194 152.462 185.19 153.815 190.192C154.855 194.044 155.911 197.953 156.057 201.962C156.235 206.755 154.85 212.075 152.415 216.669C153.821 215.101 155.211 213.507 156.585 211.892C159.387 208.605 162.172 205.228 164.164 201.371C164.362 200.99 164.54 200.603 164.718 200.216C164.702 200.19 164.692 200.159 164.702 200.122C165.847 194.89 166.124 189.779 165.706 184.605C164.827 181.876 163.746 179.425 162.324 176.838C160.918 174.282 159.57 171.805 158.828 168.962C158.786 168.8 159.01 168.7 159.073 168.868C160.505 172.62 163.448 176.279 165.183 180.173C165.084 179.53 164.979 178.887 164.859 178.244C163.73 172.082 161.598 165.889 163.855 159.732C163.929 159.528 164.226 159.669 164.164 159.868C162.037 166.73 165.382 174.288 166.369 181.108C167.106 186.178 167.352 191.645 166.124 196.694C167.07 193.913 167.739 191.033 168.382 188.169C172.26 170.875 176.744 153.68 185.153 137.958C185.237 137.807 185.483 137.911 185.404 138.068C176.796 155.122 173.383 173.66 168.904 192.042C168.852 192.251 168.8 192.46 168.747 192.669C170.237 190.244 172.207 188.023 174.152 186.136C174.251 186.042 174.408 186.162 174.319 186.277C171.857 189.439 169.97 192.894 167.749 196.192C166.934 198.758 165.915 201.251 164.535 203.592C162.888 206.389 160.892 208.939 158.812 211.422C162.324 208.474 165.868 205.573 169.165 202.364C174.152 197.519 178.908 192.382 183.209 186.92C183.272 186.842 183.387 186.936 183.329 187.019C179.085 192.93 174.523 198.549 169.359 203.692C164.99 208.04 160.307 212.467 155.059 215.802C150.047 221.577 144.685 227.373 138.34 231.601C138.037 231.805 137.754 231.387 138.016 231.152C139.181 230.117 140.315 229.066 141.439 228C142.531 225.554 144.047 223.312 145.024 220.782C146.169 217.803 146.937 214.741 147.35 211.584C147.382 211.349 147.721 211.411 147.706 211.636C147.444 215.943 146.477 221.242 144.178 225.356C145.782 223.767 147.355 222.157 148.897 220.516C153.016 214.223 155.702 206.749 154.798 199.223C154.333 195.356 153.225 191.619 152.315 187.845C151.307 183.638 150.779 179.43 150.418 175.129C150.408 174.925 150.685 174.894 150.711 175.077Z" fill="#EBEBEB"/>
<path d="M59.0435 150.69C59.932 153.141 59.7491 156.157 59.6393 158.713C59.5191 161.639 59.1428 164.545 58.6201 167.425C58.1341 170.106 57.5173 172.761 56.8536 175.401C56.8484 175.427 56.8379 175.448 56.8327 175.474C56.7909 175.652 56.7438 175.824 56.702 175.997C56.6759 176.211 56.6497 176.425 56.6132 176.645C56.6027 176.707 56.5504 176.749 56.4982 176.754C56.425 176.765 56.3518 176.728 56.3623 176.634C56.3727 176.514 56.3884 176.394 56.3937 176.279C56.8222 171.324 53.9686 166.803 53.7909 161.896C53.6968 159.209 54.3449 156.512 54.8466 153.883C55.1236 152.43 55.1968 150.544 55.7612 149.18C55.9128 148.814 55.9442 148.427 56.3518 148.234C57.6114 147.643 58.7299 149.838 59.0435 150.69Z" fill="#EBEBEB"/>
<path d="M57.8677 152.53C57.089 151.892 56.629 153.664 56.4775 154.15C55.4583 157.422 54.8886 161.315 55.4688 164.702C56.1012 168.423 56.7806 172.145 56.5036 175.913C56.467 176.038 56.4304 176.159 56.3939 176.284C56.3834 176.399 56.3729 176.519 56.3625 176.639C56.352 176.733 56.4252 176.77 56.4984 176.76C56.5088 176.681 56.5245 176.613 56.535 176.535C56.6447 176.185 56.744 175.829 56.8329 175.479C56.8381 175.453 56.8486 175.432 56.8538 175.406C57.5019 172.882 57.7945 170.237 58.1552 167.686C58.6621 164.075 59.028 160.411 58.7353 156.763C58.6674 155.885 58.5628 155.002 58.406 154.134C58.3329 153.695 58.2493 152.838 57.8677 152.53ZM58.3067 154.735C58.4479 155.655 58.5367 156.58 58.589 157.51C58.7614 160.714 58.4635 163.929 58.0297 167.106C57.6639 169.819 57.3608 172.641 56.6656 175.327C56.8433 173.185 56.697 171.031 56.3939 168.888C56.1691 167.279 55.8346 165.695 55.5942 164.091C55.3224 162.277 55.5158 160.49 55.7876 158.686C56.0332 157.035 56.2527 155.242 56.8747 153.679C57.0001 153.361 57.3608 152.655 57.6378 152.702C58.1186 152.791 58.2545 154.369 58.3067 154.735Z" fill="white"/>
<path d="M42.8048 156.052C43.1811 158.958 42.5957 161.99 41.8065 164.791C39.9668 171.256 36.4233 177.267 35.2996 183.941C35.2525 184.202 35.2159 184.469 35.1794 184.725C35.2368 185.07 35.195 184.986 35.0853 184.579C35.0853 184.579 35.0801 184.579 35.0801 184.573C34.594 182.802 32.9058 174.977 33.6794 169.364C34.1654 165.863 35.3675 162.554 36.5801 159.251C37.2752 157.369 37.9494 155.478 38.655 153.601C38.8849 153 39.2037 151.281 40.1132 151.145C41.864 150.889 42.6532 154.913 42.8048 156.052Z" fill="#EBEBEB"/>
<path d="M39.7476 156.638C39.4288 156.476 39.1832 156.591 38.9636 156.842C38.718 157.14 38.671 157.641 38.5821 157.986C38.4044 158.676 38.2267 159.361 38.049 160.045C36.826 164.781 35.1744 169.615 34.7197 174.507C34.4166 177.748 34.5891 181.025 35.0699 184.26C35.0699 184.364 35.0751 184.474 35.0751 184.579C35.0699 184.584 35.0804 184.584 35.0804 184.584C35.1901 184.991 35.2372 185.075 35.1744 184.73C35.211 184.469 35.2476 184.208 35.2947 183.946C35.2947 183.58 35.3051 183.22 35.3312 182.854C35.488 180.324 36.2093 177.899 36.9828 175.505C38.4514 170.953 39.7528 166.312 40.3225 161.551C40.4427 160.5 40.5525 159.403 40.4323 158.342C40.3748 157.845 40.2598 156.894 39.7476 156.638ZM40.171 158.164C40.2128 158.404 40.2337 158.629 40.2389 158.87C40.265 159.371 40.2389 159.878 40.2023 160.385C40.1187 161.603 39.9253 162.805 39.7163 164.007C38.9584 168.298 37.6936 172.401 36.4027 176.551C35.765 178.599 35.2319 180.685 35.1013 182.838C34.9236 181.04 34.8243 179.237 34.8295 177.439C34.8452 172.824 36.1309 168.455 37.2703 164.018C37.5525 162.92 37.8347 161.822 38.1222 160.725C38.2633 160.176 38.4044 159.627 38.5455 159.079L38.7546 158.253C38.8957 157.704 38.8121 157.469 39.4288 157.302C40.1866 157.098 40.0664 157.526 40.171 158.164Z" fill="white"/>
<path d="M19.9286 161.284C24.4338 166.369 28.6202 171.716 32.6028 177.209C32.655 177.282 32.6498 177.366 32.608 177.418C32.6028 177.434 32.5975 177.444 32.5871 177.455C32.6132 177.491 32.6394 177.528 32.6603 177.559C32.6864 177.601 32.6707 177.643 32.6394 177.664C32.6289 177.669 32.6237 177.674 32.6132 177.674C32.608 177.68 32.6028 177.68 32.6028 177.68C32.5766 177.685 32.5453 177.68 32.5244 177.659C29.7178 174.91 27.0784 172.333 23.5401 170.509C20.3049 168.847 17.1219 167.462 14.3153 165.099C11.9216 163.077 5.12193 153.089 6.22472 150.706C6.97211 149.106 16.3432 157.244 19.9286 161.284Z" fill="#EBEBEB"/>
<path d="M14.352 157.887C13.7666 157.323 12.0419 155.086 10.9443 155.54C9.8415 155.995 11.5976 158.253 11.9216 158.728C13.1237 160.474 14.399 162.194 15.9251 163.683C17.446 165.162 19.2492 166.145 21.0053 167.305C25.3223 170.164 29.1324 173.875 32.6028 177.685C32.6028 177.685 32.6081 177.685 32.6133 177.68C32.6237 177.674 32.629 177.669 32.6394 177.669C32.6708 177.648 32.6865 177.606 32.6603 177.565C32.6394 177.528 32.6133 177.497 32.5871 177.46C32.5976 177.45 32.6028 177.439 32.6081 177.424C27.1725 170.352 20.7335 164.086 14.352 157.887ZM32.2265 177.199C29.8642 174.549 27.2875 172.025 24.5645 169.746C21.3868 167.086 17.5558 165.377 14.8067 162.215C13.5 160.715 12.0889 159.011 11.2056 157.218C11.0854 156.978 10.6359 156.162 10.9391 155.843C11.2056 155.556 11.9791 155.911 12.9513 156.8C13.7561 157.537 14.5192 158.321 15.2979 159.089C18.3659 162.089 21.4234 165.105 24.3711 168.225C27.1046 171.12 29.723 174.11 32.2265 177.199Z" fill="white"/>
<path d="M29.3834 191.572C29.399 191.619 29.399 191.671 29.3886 191.723C29.3834 191.749 29.3729 191.77 29.3625 191.796C29.3468 191.828 29.3259 191.854 29.305 191.875C29.2997 191.885 29.2945 191.896 29.2841 191.896C29.2266 191.938 29.1482 191.958 29.0541 191.917C28.568 191.739 28.1133 191.53 27.6795 191.295C22.3433 189.262 16.8764 187.113 12.5384 183.345C10.3224 181.422 8.40428 179.18 6.73703 176.765C5.91647 175.584 3.66909 173.101 4.41125 171.439C5.1325 169.824 6.61159 170.849 7.60985 171.523C10.197 173.263 12.7266 175.113 15.0837 177.162C17.4252 179.201 19.5001 181.453 21.3294 183.951C23.514 186.931 25.6046 190.019 29.2057 191.373C29.3102 191.42 29.3677 191.488 29.3834 191.572Z" fill="#EBEBEB"/>
<path d="M19.5785 136.082C21.3764 138.544 22.9391 141.131 23.791 144.078C25.0924 148.584 25.014 153.298 25.6621 157.908C25.6621 157.929 25.6673 157.944 25.6673 157.96C25.8398 159.209 26.0698 160.453 26.399 161.681C26.467 161.943 26.5402 162.204 26.6186 162.465C26.6395 162.533 26.6238 162.591 26.5924 162.627C26.5611 162.653 26.5297 162.674 26.4879 162.679C26.4513 162.685 26.4147 162.69 26.3781 162.674L26.3729 162.669C26.3207 162.653 26.2736 162.612 26.2475 162.544C26.1168 162.173 26.0018 161.801 25.8921 161.425C25.8659 161.42 25.8503 161.404 25.8346 161.378C23.0802 155.624 19.9548 149.812 16.8294 144.115C15.4443 141.596 14.1586 138.988 13.2754 136.244C12.7475 134.624 12.1046 132.12 13.2858 130.62C13.359 130.526 13.4687 130.432 13.5994 130.448C16.2022 130.902 18.1517 134.138 19.5785 136.082Z" fill="#EBEBEB"/>
<path d="M16.704 136.448C15.4601 136.046 15.711 137.519 15.9148 138.267C16.4479 140.242 17.3364 142.176 18.1099 144.079C18.9828 146.227 19.8869 148.359 20.8225 150.481C22.589 154.479 25.0612 158.462 26.3678 162.654C26.3678 162.659 26.373 162.664 26.373 162.674L26.3782 162.68C26.4148 162.695 26.4566 162.69 26.488 162.685C26.5298 162.68 26.5664 162.659 26.5925 162.633C26.5298 162.314 26.4619 162.005 26.3991 161.687C26.1483 160.448 25.9131 159.204 25.6674 157.965C25.6674 157.95 25.657 157.929 25.6622 157.913C24.481 151.945 23.1848 146.028 20.049 140.551C19.3173 139.27 18.2354 136.939 16.704 136.448ZM20.4253 141.669C22.2859 145.134 23.5246 148.824 24.3869 152.603C25.0716 155.624 25.5315 158.681 26.1587 161.713C25.2911 159.283 24.0211 156.967 22.9288 154.61C21.2092 150.915 19.5838 147.173 18.0629 143.394C17.6918 142.485 17.3364 141.575 16.981 140.655C16.6674 139.845 15.9984 138.58 15.9932 137.697C15.988 135.978 17.42 137.143 17.8852 137.655C18.2929 138.1 18.6117 138.617 18.9357 139.124C19.4688 139.955 19.9653 140.807 20.4253 141.669Z" fill="white"/>
<path d="M57.6323 167.127C56.8484 172.788 55.7665 178.244 54.2299 183.747C52.8292 188.754 51.3762 193.761 50.6968 198.93C49.7926 205.793 50.4146 213.314 53.9111 219.282C48.0679 212.514 43.4895 204.679 40.1341 196.249C34.4947 182.096 29.3884 167.545 22.5417 153.904C22.4268 153.68 22.1132 153.852 22.1968 154.082C25.0034 161.53 28.2961 168.789 31.1654 176.216C34.0139 183.591 36.6637 191.054 39.6428 198.371C39.9668 199.166 40.3013 199.944 40.6463 200.723C36.2769 195.308 29.8693 191.321 23.5818 189.005C23.5034 188.974 23.4668 189.099 23.5452 189.131C28.0139 191.096 32.0905 193.887 35.6707 197.19C38.8013 200.075 41.1846 203.42 43.7038 206.801C49.4006 216.941 57.3553 225.35 67.4947 231.627C67.5992 231.69 67.6985 231.533 67.5992 231.465C63.5644 228.753 59.9006 225.648 56.5975 222.23C50.9738 214.788 50.7073 204.847 52.385 195.815C53.263 191.08 54.5174 186.429 55.641 181.746C56.7804 177 58.0191 172.056 57.9041 167.138C57.8989 166.965 57.6585 166.955 57.6323 167.127Z" fill="#EBEBEB"/>
<path d="M100.5 157.155C69.2612 157.155 43.8448 131.739 43.8448 100.5C43.8448 69.2613 69.2612 43.845 100.5 43.845C131.739 43.845 157.155 69.2613 157.155 100.5C157.155 131.739 131.739 157.155 100.5 157.155ZM100.5 44.3519C69.5382 44.3519 44.3518 69.5383 44.3518 100.5C44.3518 131.462 69.5382 156.648 100.5 156.648C131.462 156.648 156.648 131.462 156.648 100.5C156.648 69.5383 131.456 44.3519 100.5 44.3519Z" fill="#EBEBEB"/>
<path d="M100.5 151.014C72.648 151.014 49.986 128.352 49.986 100.5C49.986 72.6481 72.648 49.9861 100.5 49.9861C128.352 49.9861 151.014 72.6481 151.014 100.5C151.014 128.352 128.352 151.014 100.5 151.014ZM100.5 50.4931C72.925 50.4931 50.4929 72.9251 50.4929 100.5C50.4929 128.075 72.925 150.507 100.5 150.507C128.075 150.507 150.507 128.075 150.507 100.5C150.507 72.9251 128.07 50.4931 100.5 50.4931Z" fill="#EBEBEB"/>
<path d="M65.8003 13.9453L65.3302 14.1353L68.8308 22.7999L69.3009 22.61L65.8003 13.9453Z" fill="#EBEBEB"/>
<path d="M70.8561 26.448L70.386 26.6379L76.1597 40.9288L76.6298 40.7389L70.8561 26.448Z" fill="#EBEBEB"/>
<path d="M14.7617 63.8275L14.5636 64.2942L23.1656 67.9453L23.3637 67.4786L14.7617 63.8275Z" fill="#EBEBEB"/>
<path d="M27.1716 69.0995L26.9736 69.5662L41.1611 75.588L41.3592 75.1213L27.1716 69.0995Z" fill="#EBEBEB"/>
<path d="M22.6082 131.697L13.9436 135.198L14.1335 135.668L22.7982 132.167L22.6082 131.697Z" fill="#EBEBEB"/>
<path d="M40.7368 124.374L26.446 130.147L26.6359 130.618L40.9267 124.844L40.7368 124.374Z" fill="#EBEBEB"/>
<path d="M75.1172 159.631L69.0954 173.819L69.5621 174.017L75.5839 159.829L75.1172 159.631Z" fill="#EBEBEB"/>
<path d="M124.84 160.072L124.37 160.262L130.144 174.553L130.614 174.363L124.84 160.072Z" fill="#EBEBEB"/>
<path d="M177.828 133.047L177.63 133.514L186.232 137.165L186.43 136.699L177.828 133.047Z" fill="#EBEBEB"/>
<path d="M159.826 125.407L159.628 125.874L173.815 131.896L174.013 131.429L159.826 125.407Z" fill="#EBEBEB"/>
<path d="M186.868 65.3299L178.203 68.8306L178.393 69.3006L187.058 65.8L186.868 65.3299Z" fill="#EBEBEB"/>
<path d="M174.361 70.3894L160.07 76.1631L160.26 76.6331L174.551 70.8595L174.361 70.3894Z" fill="#EBEBEB"/>
<path d="M136.698 14.5625L133.047 23.1646L133.514 23.3626L137.165 14.7606L136.698 14.5625Z" fill="#EBEBEB"/>
<path d="M131.425 26.9775L125.403 41.165L125.87 41.3631L131.891 27.1755L131.425 26.9775Z" fill="#EBEBEB"/>
<path d="M100.751 0H100.244V22.9861H100.751V0Z" fill="#EBEBEB"/>
<path d="M100.751 28.1655H100.244V36.1464H100.751V28.1655Z" fill="#EBEBEB"/>
<path d="M29.6131 29.2577L29.2546 29.6162L45.5081 45.8697L45.8666 45.5112L29.6131 29.2577Z" fill="#EBEBEB"/>
<path d="M49.5297 49.174L49.1712 49.5325L54.8145 55.1757L55.1729 54.8172L49.5297 49.174Z" fill="#EBEBEB"/>
<path d="M22.9861 100.244H0V100.751H22.9861V100.244Z" fill="#EBEBEB"/>
<path d="M36.1464 100.244H28.1655V100.751H36.1464V100.244Z" fill="#EBEBEB"/>
<path d="M45.5081 155.128L29.2546 171.381L29.6131 171.74L45.8666 155.486L45.5081 155.128Z" fill="#EBEBEB"/>
<path d="M54.8139 145.82L49.1707 151.464L49.5291 151.822L55.1724 146.179L54.8139 145.82Z" fill="#EBEBEB"/>
<path d="M100.751 164.848H100.244V172.829H100.751V164.848Z" fill="#EBEBEB"/>
<path d="M155.486 155.131L155.128 155.49L171.381 171.743L171.74 171.385L155.486 155.131Z" fill="#EBEBEB"/>
<path d="M146.176 145.82L145.818 146.179L151.461 151.822L151.82 151.464L146.176 145.82Z" fill="#EBEBEB"/>
<path d="M201 100.244H178.014V100.751H201V100.244Z" fill="#EBEBEB"/>
<path d="M172.829 100.244H164.848V100.751H172.829V100.244Z" fill="#EBEBEB"/>
<path d="M171.381 29.2544L155.128 45.5078L155.486 45.8663L171.74 29.6128L171.381 29.2544Z" fill="#EBEBEB"/>
<path d="M151.463 49.1761L145.819 54.8193L146.178 55.1778L151.821 49.5346L151.463 49.1761Z" fill="#EBEBEB"/>
<path d="M100.5 101.66C101.141 101.66 101.66 101.141 101.66 100.5C101.66 99.8591 101.141 99.3396 100.5 99.3396C99.8592 99.3396 99.3397 99.8591 99.3397 100.5C99.3397 101.141 99.8592 101.66 100.5 101.66Z" fill="#EBEBEB"/>
<path d="M125.692 77.702C128.545 77.608 131.263 75.9616 132.455 73.317C133.625 70.7142 133.103 67.6254 131.347 65.4355C134.388 65.1324 137.174 63.3972 137.822 60.1306C138.491 56.7491 136.401 53.817 133.286 52.6933C133.265 52.6829 133.244 52.7195 133.265 52.7351C135.988 54.0627 137.942 56.8902 137.284 60C136.719 62.6602 134.77 64.0609 132.449 64.6463C134.315 63.3658 135.8 61.5052 136.15 59.216C136.526 56.7073 135.381 54.0731 133.197 52.7979C134.712 50.3414 135.476 47.1951 134.341 44.4407C133.39 42.1202 131.148 40.4215 128.639 40.4006C129.638 37.7195 129 34.4947 126.852 32.5243C124.84 30.6689 121.876 30.2038 119.357 31.1341C120.564 26.9843 116.989 22.8972 112.662 23.5923C112.845 22.0452 111.977 20.5505 110.629 19.7404C109.077 18.7996 107.179 18.925 105.465 19.3536C104.718 17.932 103.322 16.8553 101.671 16.7195C99.4703 16.5418 97.6201 18.0313 97.1027 20.0696C94.4267 19.0034 91.3692 18.2247 88.5783 19.2543C86.2839 20.101 84.3553 22.1811 84.2926 24.6846C79.249 23.425 74.2682 26.8118 73.5835 31.986C71.425 32.0592 69.4964 33.3867 68.4825 35.2996C67.4633 37.2282 67.3222 38.7595 67.3274 39.486C65.3936 39.7055 63.8257 41.216 63.4389 43.1236C63.0522 44.9999 63.763 46.6567 64.8605 48.0836C64.9024 48.5696 64.8605 49.04 64.6567 49.6045C63.763 52.155 64.0923 54.831 65.6759 57.0209C63.7055 59.5243 64.5417 63.4651 67.3483 64.9547C66.2037 67.9912 67.9442 71.6236 71.0069 72.6585C70.3693 75.1306 70.7874 77.8013 72.2612 79.9181C73.3902 81.5383 75.3449 82.8553 77.3205 82.3902C77.0644 83.9215 78.4807 85.2438 79.9546 85.5731C80.5138 85.6985 81.0888 85.7247 81.6585 85.7247C82.3379 85.7195 83.2003 85.5365 83.8483 85.7769C84.5226 86.0174 84.9146 86.7491 85.3902 87.2299C85.7351 87.5749 86.1219 87.8832 86.5295 88.1498C89.6445 90.1411 94.0138 89.6132 96.5173 86.9268C98.3832 88.777 101.247 88.594 103.568 87.6689C104.331 87.3658 105.01 86.9529 105.711 86.5243C106.354 86.1271 106.939 85.8188 107.728 85.8397C108.204 85.8501 108.674 85.9703 109.155 85.9912C110.78 86.0435 112.014 85.0923 113.122 84.0261C118.322 88.7665 125.55 84.1306 125.692 77.702ZM63.9198 44.0958C64.0295 41.9843 65.3727 40.3693 67.3431 39.7107C67.3484 39.8623 67.364 39.9616 67.364 39.9616C67.364 39.9616 66.81 40.3275 66.5591 40.5365C66.1097 40.9181 65.7229 41.3728 65.3989 41.8693C64.7299 42.9041 64.3693 44.1428 64.3954 45.3763C64.4058 45.9303 64.5156 46.4634 64.6619 46.9965C64.6828 47.0696 64.6933 47.1271 64.709 47.1951C64.2072 46.2491 63.8623 45.2508 63.9198 44.0958ZM102.418 18.1776C100.536 17.77 98.5138 18.5905 97.5208 20.2317C97.4738 20.2107 97.4215 20.1951 97.3745 20.1742C98.1584 18.3501 99.3762 16.9024 101.665 17.1271C103.265 17.2839 104.279 18.256 104.922 19.5052C104.911 19.5104 104.901 19.5104 104.895 19.5104C104.211 18.8623 103.385 18.3815 102.418 18.1776ZM113.362 83.8066C113.378 83.7909 113.394 83.7752 113.415 83.7595C117.59 85.8972 122.451 84.1881 124.557 80.378C122.53 84.7473 118.239 87.3449 113.362 83.8066Z" fill="#263238"/>
<path d="M95.3989 97.8236C80.8745 128.09 67.0766 161.602 70.2752 170.242C77.8693 190.766 90.8205 185.775 92.7439 184.73C105.862 177.59 113.436 127.473 112.829 102.7C112.291 80.5971 103.516 80.9055 95.3989 97.8236Z" fill="#455A64"/>
<path opacity="0.1" d="M70.2752 170.242C77.8745 190.766 90.8205 185.775 92.7438 184.725C105.862 177.58 113.43 127.468 112.829 102.7C112.463 87.7837 108.355 83.0747 103.223 86.7855L71.9268 155.111C69.9773 162.104 69.2456 167.461 70.2752 170.242Z" fill="black"/>
<path d="M95.5294 175.442C95.174 165.272 90.3761 149.409 71.4562 121.322C68.3621 116.733 36.4754 135.209 39.1827 140.456C42.5956 147.063 58.5416 171.601 59.8796 173.273C71.1844 187.38 95.7646 182.2 95.5294 175.442Z" fill="#AD6359"/>
<path d="M39.6166 148.944L84.1828 130.515C84.1828 130.515 101.117 165.392 99.4389 175.787C97.4946 187.834 72.2246 192.564 57.8674 173.461L39.6166 148.944Z" fill="#455A64"/>
<path d="M48.0313 156.763C67.4947 150.752 83.655 142.892 87.1933 141.538C87.3606 141.475 87.2508 141.235 87.0836 141.308C83.6759 142.798 63.6794 149.738 47.9111 156.507C47.7334 156.59 47.8484 156.826 48.0313 156.763Z" fill="#263238"/>
<path d="M83.8117 131.033C82.0556 131.529 81.1044 132.02 78.9772 132.663C78.7159 132.742 78.5329 132.177 78.7943 132.083C81.073 131.284 84.2821 129.622 84.3605 129.747C90.1619 138.904 97.1235 162.439 98.0904 165.522C98.1113 165.574 85.3065 133.808 83.8117 131.033Z" fill="#263238"/>
<path d="M75.8256 111.225C70.066 111.559 61.4005 109.202 57.4231 110.801C53.8325 112.244 54.1775 115.693 54.1775 115.693C54.1775 115.693 50.2785 112.986 46.9074 115.029C45.1722 116.08 45.329 119.775 45.329 119.775C45.329 119.775 42.1095 117.742 39.2245 119.744C36.9249 121.338 37.4266 124.803 37.4266 124.803C37.4266 124.803 33.4283 124.291 31.6095 126.669C27.9144 131.488 39.4545 152.566 48.998 151.568C53.4458 151.103 50.3465 146.111 50.3465 146.111C50.3465 146.111 56.5346 152.216 60.9405 149.948C65.3465 147.679 60.9301 141.434 60.9301 141.434C60.9301 141.434 66.9823 147.298 71.3099 144.486C75.8203 141.559 70.3325 136.066 70.3325 136.066C70.3325 136.066 76.0764 139.014 78.8987 136.103C83.5607 131.294 71.6444 126.282 70.2071 121.05L76.4423 114.313L75.8256 111.225Z" fill="#AD6359"/>
<path d="M66.8778 110.634C72.3029 109.845 74.8116 101.216 79.8917 99.7106C86.7646 97.6775 84.5276 107.885 76.4475 114.308L69.3029 118.191L66.8778 110.634Z" fill="#AD6359"/>
<path d="M37.4267 125.362C37.3954 125.289 37.2856 125.32 37.3065 125.399C39.4128 133.254 44.1375 141.24 50.4877 146.399C50.6968 146.566 51.0626 146.305 50.8692 146.075C45.3344 139.505 40.9494 133.233 37.4267 125.362Z" fill="#263238"/>
<path d="M45.2297 119.697C45.1931 119.613 45.0468 119.67 45.0782 119.77C47.2942 127.855 52.8604 136.703 60.883 141.784C61.16 141.956 61.5782 141.841 61.2803 141.616C56.1949 137.827 48.3656 126.799 45.2297 119.697Z" fill="#263238"/>
<path d="M71.0329 136.254C63.5277 131.085 58.4371 124.024 54.2507 116.028C54.1984 115.923 54.0521 116.012 54.0782 116.111C55.0608 120.585 58.2594 125.404 61.0713 128.942C63.7629 132.334 66.8674 134.853 70.8552 136.515C71.0068 136.578 71.195 136.364 71.0329 136.254Z" fill="#263238"/>
<path d="M80.6811 194.916L165.12 192.021C165.12 192.021 169.557 187.333 169.077 181.798C167.3 161.378 139.223 95.033 127.521 86.4302C122.284 82.5835 110.901 79.573 104.367 84.6166C94.2124 92.4615 82.6358 148.547 76.04 180.198C74.1428 189.272 80.6236 194.827 80.6811 194.916Z" fill="#455A64"/>
<path d="M133.662 92.8064C157.824 120.836 185.023 160.625 178.197 171.434C170.598 183.47 140.362 157.813 139.401 155.874C138.324 153.711 126.131 126.664 119.943 101.069C113.159 73.0085 127.688 85.8761 133.662 92.8064Z" fill="#AD6359"/>
<path d="M133.662 92.8064C157.824 120.836 185.023 160.625 178.197 171.434C170.598 183.47 140.362 157.813 139.401 155.874C138.324 153.711 126.131 126.664 119.943 101.069C113.159 73.0085 127.688 85.8761 133.662 92.8064Z" fill="#455A64"/>
<path d="M139.406 155.874C135.408 147.538 131.874 138.987 128.618 130.332C125.43 121.662 122.383 112.876 120.627 103.787C120.962 104.895 121.291 106.003 121.604 107.111C126.721 123.308 133.437 139.923 139.406 155.874Z" fill="#263238"/>
<path d="M120.188 107.561C121.458 110.033 122.472 112.541 123.496 115.118C121.84 112.892 120.779 110.263 120.188 107.561Z" fill="#263238"/>
<path d="M109.202 104.911C114.497 103.228 118.207 91.3694 117.904 83.744C117.883 83.2213 114.789 79.4321 111.251 74.6551C109.113 71.744 106.803 68.4565 104.917 65.3049L88.0193 81.967C88.0193 81.967 93.9252 87.4129 97.1918 92.9321C97.4583 93.3973 97.6726 93.852 97.8294 94.3067C97.8608 94.3694 97.8869 94.453 97.9287 94.5366C99.0001 97.2335 104.086 106.531 109.202 104.911Z" fill="#AD6359"/>
<path d="M97.1865 92.9266C97.3747 93.2559 97.5367 93.5747 97.6673 93.8935C107.969 87.951 108.81 76.1809 108.528 70.8395C107.258 69.0154 106.014 67.1339 104.911 65.2942L88.014 81.9614C88.0193 81.9667 93.9304 87.4127 97.1865 92.9266Z" fill="#263238"/>
<path d="M109.171 44.1375C112.49 52.0765 110.525 76.1549 105.22 82.0086C97.5315 90.4964 83.7649 92.6026 76.2493 83.1061C68.9636 73.8971 72.0838 42.5643 78.1204 37.1236C87.0001 29.1061 104.268 32.4093 109.171 44.1375Z" fill="#AD6359"/>
<path d="M91.9077 56.1637C91.2021 55.9599 90.5854 55.6515 89.9059 55.3745C89.1428 55.0609 88.5 54.8937 88.0192 54.1776C87.7631 53.7961 87.8989 53.1323 88.2491 52.8449C89.0592 52.1811 90.0941 52.3275 91.0296 52.6672C92.0435 53.033 92.7334 53.5766 93.2874 54.4965C93.8258 55.3954 92.838 56.4355 91.9077 56.1637Z" fill="#263238"/>
<path d="M75.8362 54.6897C76.5732 54.627 77.2422 54.4493 77.9634 54.3134C78.7787 54.1618 79.4425 54.1252 80.0592 53.519C80.3885 53.1949 80.3885 52.5155 80.101 52.1601C79.4373 51.3395 78.392 51.282 77.4042 51.4232C76.3328 51.5799 75.5436 51.9719 74.8118 52.7716C74.1115 53.5451 74.8641 54.7681 75.8362 54.6897Z" fill="#263238"/>
<path d="M88.9912 75.9877C88.5731 76.3379 88.1393 76.8291 87.5487 76.8291C86.979 76.8291 86.3361 76.5208 85.8344 76.2804C85.7873 76.2542 85.7299 76.3065 85.756 76.3588C86.1271 77.0173 86.9842 77.4772 87.7473 77.4093C88.4947 77.3413 88.9076 76.7351 89.1427 76.0765C89.1741 75.9825 89.0539 75.9406 88.9912 75.9877Z" fill="#263238"/>
<path d="M87.6794 70.9859C86.655 72.3186 85.2543 72.9824 83.7857 73.1444C83.1272 73.2228 82.4477 73.1862 81.7892 73.0713C81.6585 73.0556 81.5279 73.0347 81.4129 72.9981C81.2979 72.972 81.1881 72.951 81.0627 72.9145C80.8746 72.8726 80.7857 72.7054 80.7648 72.5225V72.512C80.77 72.4545 80.7753 72.4075 80.7909 72.3448C80.7909 72.3448 80.7909 72.3448 80.7909 72.3343L80.8066 72.1932C80.8746 70.9389 81.1516 69.0469 81.1516 69.0469C80.676 69.2402 78.2613 70.0974 78.3502 69.4441C79.1132 64.0608 79.9652 58.0765 81.8624 52.8814C81.9146 52.7089 82.1864 52.7716 82.155 52.9493C81.6219 58.1497 80.1847 63.2246 79.5679 68.4406C80.3362 68.2211 81.5906 67.7925 82.2439 67.8605C82.4164 67.9284 81.6429 71.5085 81.6585 72.073C81.6585 72.073 81.6585 72.0991 81.6638 72.1357C83.7439 72.5747 85.3798 72.073 87.5331 70.8291C87.669 70.7455 87.7892 70.8657 87.6794 70.9859Z" fill="#263238"/>
<path d="M78.6794 60.6637C78.669 60.6062 78.5592 60.7369 78.5592 60.7996C78.6219 62.3518 78.439 64.1393 77.0383 64.6672C76.9965 64.6828 77.0017 64.7612 77.054 64.756C78.7683 64.4947 78.993 62.1219 78.6794 60.6637Z" fill="#263238"/>
<path d="M78.7423 62.3466C78.6795 62.7334 78.5175 63.1358 78.2248 63.4912C77.9321 63.8466 77.4356 64.0347 76.9809 64.0452C76.5053 64.0557 76.0088 63.7734 75.7579 63.4076C75.5018 63.0417 75.3659 62.6445 75.3084 62.2525C75.2719 62.0016 75.2614 61.756 75.2614 61.5051C75.2666 60.9773 75.3607 60.4651 75.6011 60.0051C75.575 60.3867 75.5959 60.763 75.6534 61.1236C75.7057 61.4685 75.7788 61.7978 75.8781 62.1114C76.0872 62.7699 76.4687 63.3187 76.9966 63.2874C77.5506 63.303 77.9635 62.8536 78.183 62.1898C78.4025 61.5417 78.5123 60.8152 78.6064 60.0731C78.8154 60.7996 78.8834 61.5678 78.7423 62.3466Z" fill="#263238"/>
<path d="M87.9458 60.9404C87.9615 60.8829 88.0608 61.0188 88.0556 61.0815C87.9249 62.6285 88.0399 64.4212 89.4145 65.0066C89.4563 65.0223 89.4511 65.1007 89.3988 65.0902C87.7002 64.7714 87.5748 62.3881 87.9458 60.9404Z" fill="#263238"/>
<path d="M87.8152 62.6183C87.8623 63.0103 88.0034 63.4179 88.2856 63.7838C88.5626 64.1496 89.0487 64.3587 89.5086 64.3901C89.979 64.4214 90.4912 64.1601 90.7577 63.7995C91.0243 63.4441 91.1811 63.0573 91.2543 62.6653C91.3013 62.4197 91.3222 62.1688 91.3327 61.9232C91.3483 61.3953 91.2752 60.8779 91.0557 60.4075C91.0661 60.789 91.0295 61.1653 90.9564 61.526C90.8884 61.8709 90.8048 62.1897 90.695 62.5033C90.4598 63.1514 90.0522 63.6845 89.5295 63.6322C88.9755 63.6218 88.5835 63.1566 88.3901 62.4876C88.1968 61.8291 88.1184 61.1026 88.0557 60.3552C87.81 61.0713 87.7055 61.8395 87.8152 62.6183Z" fill="#263238"/>
<path d="M72.6011 52.0295C73.5262 52.0034 76.8816 49.8344 77.3259 44.4981C79.0872 44.9372 82.7039 42.2978 83.9269 40.7873C85.0872 46.6358 91.6151 49.1184 96.0367 45.9616C96.1935 48.3448 96.7893 50.7595 98.2788 52.4581C100.714 55.2333 103.495 55.7246 103.495 55.7246C103.495 55.7351 103.5 55.7455 103.5 55.7612C102.429 60.1828 106.265 63.9981 109.887 63.1776C110.221 63.141 110.556 63.0678 110.89 62.9581C112.646 62.3623 114.366 61.3744 115.098 59.3361C116.038 56.702 115.092 53.4772 112.965 52.134C114.434 50.4302 114.81 47.7908 113.692 45.6741C113.002 44.3675 111.324 43.7299 111.173 42.1724C111.047 40.8866 110.739 39.7002 110.132 38.6027C109.087 36.7159 107.472 35.472 105.585 35.0278C104.702 34.8239 104.08 34.6044 103.401 33.9145C102.988 33.4912 102.591 33.0835 102.136 32.7281C101.357 32.1218 100.495 31.6567 99.6011 31.3431C98.514 30.9616 97.359 30.8048 96.2196 30.8936C94.9914 30.9877 93.7631 31.688 92.5558 31.2804C91.5053 30.925 88.176 31.1706 87.0889 31.4424C82.359 32.6131 80.3938 35.1009 80.3938 35.1009C80.3938 35.1009 77.9165 35.6758 75.7997 39.0835C73.7771 42.3396 73.9339 44.7856 73.9339 44.7856C73.9339 44.7856 72.9879 45.2769 72.3868 47.3884C71.6969 49.8082 72.4705 52.0347 72.6011 52.0295ZM103.542 55.9859C104.112 59.2786 105.005 60.7943 106.129 61.8396C104.378 60.6532 103.181 58.5365 103.542 55.9859ZM84.3607 40.9075C85.6412 43.9337 88.0245 45.9407 90.7004 46.5208C87.8572 46.1863 85.4008 44.4668 84.3607 40.9075Z" fill="#263238"/>
<path d="M105.768 65.1428C105.768 65.1428 110.451 57.0157 114.099 58.615C117.747 60.2143 114.7 71.6707 110.749 73.547C106.798 75.4286 104.984 71.8118 104.984 71.8118L105.768 65.1428Z" fill="#AD6359"/>
<path d="M113.143 61.8712C113.206 61.8608 113.226 61.9496 113.174 61.981C110.415 63.3921 109.139 66.1778 108.329 69.021C109.087 67.8869 110.195 67.2074 111.706 68.0907C111.784 68.1378 111.721 68.2632 111.643 68.2527C110.446 68.1064 109.62 68.3834 108.909 69.3921C108.408 70.1081 108.099 70.981 107.765 71.7806C107.655 72.0472 107.179 71.9531 107.253 71.65C107.258 71.6291 107.263 71.6029 107.268 71.582C106.871 67.9392 109.254 62.5872 113.143 61.8712Z" fill="#263238"/>
<path d="M177.423 173.545C170.195 180.752 147.732 187.526 107.3 188.179C101.702 188.268 105.366 148.448 111.34 148.045C118.861 147.538 148.15 147.193 150.298 147.439C168.387 149.514 182.326 168.658 177.423 173.545Z" fill="#AD6359"/>
<path d="M122.556 150.277C122.556 150.277 120.151 150 107.692 146.483C99.0783 144.047 76.5365 143.624 61.3431 163.678C55.5208 171.361 58.3692 178.803 65.8327 171.894C71.0905 167.028 74.3152 163.207 76.479 162.099C76.479 162.099 74.817 172.939 79.3849 177.361C81.4233 179.336 87.1201 184.599 92.1375 188.064C92.1375 188.064 93.1881 187.176 94.3536 185.859C94.3536 185.859 100.286 191.237 108.486 187.547L122.556 150.277Z" fill="#AD6359"/>
<path d="M99.0991 145.469C94.8604 147.475 85.944 151.881 79.9022 158.028C73.1914 164.848 62.1113 179.801 67.1966 184.698C70.9284 188.289 75.6583 182.958 75.6583 182.958C75.6583 182.958 72.3813 190.103 76.458 192.611C80.174 194.895 83.5921 190.552 83.5921 190.552C83.5921 190.552 82.3482 195.23 86.3517 196.74C91.1705 198.559 92.9841 188.462 99.4545 186.089C100.913 185.55 99.0991 145.469 99.0991 145.469Z" fill="#AD6359"/>
<path d="M88.296 163.913C84.6165 166.453 77.7437 174.371 75.6061 182.765C75.559 182.953 75.674 183.094 75.7576 182.932C80.0747 174.193 85.7611 166.918 88.3639 163.976C88.3953 163.934 88.3378 163.882 88.296 163.913Z" fill="#263238"/>
<path d="M94.9857 170.885C92.038 173.404 85.3167 181.882 83.4404 190.464C83.3986 190.657 83.524 190.788 83.6024 190.62C87.7366 181.302 92.6338 174.042 95.0537 170.948C95.085 170.901 95.0223 170.854 94.9857 170.885Z" fill="#263238"/>
<path d="M119.838 146.89L118.557 191.2C118.557 191.2 176.09 182.66 178.808 172.604C181.526 162.549 162.063 147.768 151.866 146.979C141.664 146.195 119.838 146.89 119.838 146.89Z" fill="#455A64"/>
<path d="M157.845 152.812C156.246 151.902 152.179 148.557 145.672 147.261C139.991 146.127 123.941 146.462 120.094 146.759C120 146.765 119.989 146.859 120.089 146.869C123.591 147.183 139.05 146.995 145.118 148.139C151.463 149.336 156.199 152.132 157.766 152.895C157.845 152.937 157.918 152.854 157.845 152.812Z" fill="#263238"/>
<path d="M128.765 184.97C128.477 182.195 128.608 179.331 128.608 176.545C128.608 173.639 128.697 170.733 128.775 167.828C128.854 164.927 129.549 153.314 129.721 150.418C129.732 150.287 129.925 150.298 129.925 150.429C129.93 153.34 129.956 164.869 129.868 167.718C129.779 170.566 129.711 173.42 129.544 176.268C129.376 179.148 129.345 182.117 128.885 184.965C128.875 185.023 128.775 185.044 128.765 184.97Z" fill="#263238"/>
<path d="M141.481 73.7717C147.376 81.0208 140.174 93.3553 138.261 98.9267C136.348 104.498 148.385 104.148 149.388 113.185C150.397 122.221 138.063 132.167 141.355 137.78C144.648 143.394 149.388 145.876 149.388 145.876C149.388 145.876 139.28 152.827 125.341 143.995C111.402 135.162 114.998 124.855 112.625 120.214C110.253 115.573 95.3937 113.185 91.547 90.6689C88.4686 72.6585 101.969 45.8727 125.901 54.0313C138.7 58.3954 141.481 73.7717 141.481 73.7717Z" fill="#263238"/>
<path d="M117.387 189.909L112.714 160.531C112.714 160.531 119.226 153.815 117.596 146.796C116.184 140.728 107.111 115.756 99.5068 107.064C93.0678 99.7002 87.0625 99.6584 81.0625 105.925C65.6444 122.038 52.7141 158.739 52.7141 158.739C52.7141 158.739 41.5817 175.813 36.7786 189.93L117.387 189.909Z" fill="#FFC727"/>
<path d="M99.8675 157.51C95.749 158.017 91.6149 158.666 87.6114 159.779C85.6201 160.333 83.6654 160.976 81.7159 161.66C80.7438 162 79.7665 162.308 78.7839 162.617C77.7752 162.93 76.6881 163.223 75.6271 163.275C75.533 163.281 75.5382 163.422 75.6323 163.422C76.6672 163.427 77.655 163.432 78.6846 163.307C79.6619 163.181 80.6288 162.956 81.58 162.7C83.6079 162.157 85.6044 161.524 87.6271 160.96C91.7037 159.826 95.7804 158.692 99.9302 157.855C100.118 157.814 100.066 157.49 99.8675 157.51Z" fill="#263238"/>
<path d="M110.179 160.975C106.777 160.698 103.312 160.578 99.8935 160.688C98.174 160.74 96.4754 160.897 94.7716 161.096C93.9562 161.19 93.1461 161.3 92.336 161.42C91.4423 161.55 90.5695 161.801 89.6758 161.921C89.5817 161.932 89.5869 162.078 89.681 162.068C90.5277 161.979 91.39 162.036 92.242 162C93.0939 161.963 93.951 161.916 94.8029 161.88C96.512 161.807 98.2211 161.749 99.9353 161.655C103.359 161.472 106.766 161.32 110.195 161.258C110.378 161.253 110.357 160.991 110.179 160.975Z" fill="#263238"/>
<path d="M87.6847 103.756C87.23 105.235 94.547 120.836 101.263 121.364C103.5 121.542 102.758 110.885 102.758 110.885L103.39 110.205L112.218 100.677L104.148 84.9301L102.925 82.7559C102.925 82.7559 100.683 85.5207 97.9233 88.9963C97.7927 89.1583 97.6672 89.3151 97.5313 89.4928C97.3693 89.6862 97.2178 89.8639 97.0714 90.052C96.6533 90.5642 96.2247 91.0921 95.8118 91.6252C95.4982 92.0276 95.1847 92.4196 94.8711 92.8586C94.5418 93.2872 94.2334 93.7106 93.9042 94.1444C90.7578 98.4458 87.8885 103.134 87.6847 103.756Z" fill="#EB9481"/>
<path d="M97.918 88.9963C95.9842 99.5433 100.887 107.148 103.39 110.205L112.218 100.677L104.148 84.9301L102.925 82.7559C102.925 82.7559 100.678 85.5207 97.918 88.9963Z" fill="#263238"/>
<path d="M136.479 91.6775C125.99 111.914 112.672 107.921 108.308 105.658C104.347 103.599 91.1132 96.0938 99.4494 74.8796C107.786 53.6653 120.523 52.1391 129.836 56.3674C139.15 60.5904 146.963 71.4353 136.479 91.6775Z" fill="#EB9481"/>
<path d="M134.796 85.0241C134.331 84.7314 133.949 84.3865 133.521 84.052C133.035 83.6757 132.611 83.4196 132.408 82.8133C132.298 82.484 132.533 82.0398 132.841 81.9039C133.557 81.5903 134.268 81.9039 134.869 82.3377C135.523 82.8081 135.909 83.3359 136.118 84.1095C136.327 84.8568 135.408 85.4056 134.796 85.0241Z" fill="#263238"/>
<path d="M119.634 80.9422C120.152 81.1199 120.664 81.1931 121.192 81.3186C121.793 81.4544 122.253 81.6269 122.854 81.397C123.178 81.2715 123.376 80.8064 123.287 80.4875C123.078 79.7349 122.383 79.3848 121.667 79.1861C120.889 78.9771 120.24 79.0085 119.503 79.3377C118.798 79.6513 118.949 80.7123 119.634 80.9422Z" fill="#263238"/>
<path d="M114.737 96.8882C114.867 97.4004 114.92 98.0328 115.385 98.3778C115.829 98.707 116.509 98.8325 117.042 98.9318C117.094 98.9422 117.11 99.0154 117.057 99.0363C116.388 99.3394 115.453 99.2088 114.899 98.7175C114.355 98.2366 114.376 97.5258 114.57 96.8725C114.596 96.7785 114.721 96.815 114.737 96.8882Z" fill="#263238"/>
<path d="M123.439 94.7298C123.439 94.7298 122.608 96.9615 122.08 97.944C122.028 98.0329 121.772 97.9493 121.427 97.7925C121.406 97.7873 121.395 97.7925 121.385 97.7716C119.509 97.1078 118.087 95.5712 117.794 93.5904C117.779 93.4597 117.956 93.4231 118.014 93.5329C118.798 95.1792 120.094 96.1932 121.615 97.0451C121.829 96.8099 122.911 93.1723 123.073 93.2454C123.632 93.4911 124.495 94.4214 125.028 94.9493C126.899 90.3447 128.012 85.4789 129.946 80.9266C130.019 80.7646 130.265 80.8378 130.239 80.9998C129.429 86.1845 127.395 91.5259 125.587 96.3291C125.368 96.9301 123.742 95.1061 123.439 94.7298Z" fill="#263238"/>
<path d="M121.202 97.3274C121.202 97.3274 119.728 98.1427 118.275 98.0121C117.737 97.965 117.214 97.803 116.759 97.4267C115.819 96.6584 116.242 95.6654 116.822 94.918C117.298 94.3013 117.888 93.8518 117.888 93.8518C117.888 93.8518 118.772 96.026 121.202 97.3274Z" fill="#263238"/>
<path d="M118.275 98.012C117.737 97.965 117.214 97.803 116.76 97.4267C115.819 96.6584 116.242 95.6654 116.822 94.918C117.909 95.5608 118.683 96.857 118.275 98.012Z" fill="#FF99BA"/>
<path d="M129.172 90.1616C129.209 90.1145 129.24 90.2818 129.209 90.334C128.441 91.6302 127.782 93.2452 128.739 94.3428C128.77 94.3741 128.728 94.4421 128.686 94.4107C127.338 93.402 128.237 91.2644 129.172 90.1616Z" fill="#263238"/>
<path d="M132.105 91.0291C131.995 91.2904 131.843 91.536 131.686 91.766C131.666 91.996 131.681 92.2259 131.723 92.435C131.828 92.8897 132.084 93.2555 132.528 93.3757C133.411 93.6162 134.117 92.8845 134.509 92.0482C134.54 91.9855 134.514 91.9385 134.467 91.9594C133.939 92.2677 133.348 92.5604 132.889 92.2834C132.491 92.0534 132.361 91.4628 132.131 91.0604C132.12 91.0552 132.12 91.0395 132.105 91.0447V91.0291Z" fill="#263238"/>
<path d="M128.347 91.5727C128.221 91.9334 128.174 92.3515 128.263 92.7905C128.352 93.2295 128.687 93.6163 129.073 93.8358C129.476 94.0605 130.03 94.0449 130.417 93.8515C130.803 93.6529 131.101 93.3811 131.331 93.0727C131.478 92.8794 131.598 92.6703 131.713 92.456C131.948 92.0013 132.105 91.5152 132.11 91.0135C131.958 91.3532 131.765 91.6668 131.551 91.949C131.347 92.2208 131.133 92.4665 130.908 92.6964C130.427 93.1668 129.847 93.4595 129.408 93.1929C128.927 92.9525 128.781 92.3776 128.896 91.7086C129.005 91.0553 129.246 90.3811 129.507 89.7017C128.995 90.2139 128.582 90.841 128.347 91.5727Z" fill="#263238"/>
<path d="M120.826 86.3202C120.841 86.2627 120.69 86.3359 120.664 86.3934C120.063 87.7784 119.148 89.2575 117.7 89.1321C117.653 89.1269 117.627 89.2 117.674 89.2157C119.279 89.707 120.481 87.7262 120.826 86.3202Z" fill="#263238"/>
<path d="M118.395 84.4544C118.249 84.7 118.139 84.9614 118.045 85.2227C117.873 85.3742 117.674 85.4997 117.481 85.5833C117.052 85.7662 116.603 85.7715 116.247 85.4892C115.537 84.9143 115.714 83.9161 116.153 83.1059C116.185 83.0485 116.237 83.0328 116.253 83.0903C116.315 83.7018 116.425 84.3446 116.916 84.5589C117.34 84.7471 117.888 84.5014 118.354 84.4492C118.364 84.4544 118.374 84.4439 118.38 84.4596L118.395 84.4544Z" fill="#263238"/>
<path d="M120.167 87.8149C119.948 88.1285 119.639 88.4107 119.232 88.5989C118.824 88.7818 118.312 88.74 117.909 88.557C117.491 88.3637 117.178 87.909 117.11 87.4804C117.042 87.0518 117.089 86.6494 117.204 86.2783C117.277 86.0431 117.371 85.8236 117.475 85.6041C117.705 85.1494 118.003 84.7365 118.406 84.4333C118.223 84.7574 118.082 85.0971 117.977 85.4368C117.878 85.7609 117.805 86.0797 117.752 86.3985C117.658 87.0623 117.758 87.7051 118.233 87.9037C118.714 88.1494 119.263 87.9299 119.733 87.4438C120.198 86.9682 120.601 86.3828 120.998 85.7713C120.883 86.4926 120.617 87.1929 120.167 87.8149Z" fill="#263238"/>
<path d="M99.4494 74.8744C101.545 76.3274 109.709 81.9563 121.254 73.1184C128.624 67.4738 135.836 64.2751 141.481 73.7664C141.481 73.7664 147.512 67.5469 144.303 61.7873C141.089 56.033 133.28 57.9407 133.28 57.9407C133.28 57.9407 123.094 50.4668 112.469 55.2386C101.843 60.0103 99.4494 74.8744 99.4494 74.8744Z" fill="#263238"/>
<path d="M104.049 77.8484C104.049 77.8484 102.361 69.3345 98.6864 69.6533C95.0122 69.9773 94.2805 80.9216 97.1864 83.7386C100.087 86.5557 102.753 83.9216 102.753 83.9216L104.049 77.8484Z" fill="#EB9481"/>
<path d="M98.5557 72.7996C98.5034 72.7682 98.4564 72.8414 98.4982 72.8832C100.5 74.9372 100.787 77.7595 100.651 80.493C100.322 79.2752 99.5539 78.3501 97.9703 78.6794C97.8867 78.6951 97.9023 78.8205 97.9807 78.8362C99.0731 79.0609 99.7159 79.5522 100.035 80.6445C100.265 81.4181 100.275 82.2752 100.327 83.0801C100.343 83.3466 100.787 83.4041 100.819 83.1167C100.819 83.0958 100.824 83.0749 100.824 83.054C102.251 79.9756 101.754 74.5766 98.5557 72.7996Z" fill="#263238"/>
<path d="M80.4562 115.599C81.3343 145.448 92.7959 182.054 102.747 184.761C113.833 187.777 118.191 156.611 116.853 155.493C115.845 154.646 102.972 132.036 94.0764 112.756C85.1862 93.4859 80.2367 108.214 80.4562 115.599Z" fill="#FFC727"/>
<path d="M118.5 159.977C111.178 147.606 104.383 134.921 98.1532 121.96C105.481 134.331 112.27 147.021 118.5 159.977Z" fill="#263238"/>
<path d="M102.22 129.245C101.42 127.505 100.965 125.686 100.646 123.805C101.556 125.477 102.026 127.359 102.22 129.245Z" fill="#263238"/>
<path d="M104.524 183.005C112.746 182.441 122.065 177.136 143.969 152.911C147 149.561 127.03 123.173 123.308 126.256C118.249 130.453 104.268 143.765 103.281 145.202C94.913 157.291 98.9478 183.387 104.524 183.005Z" fill="#EB9481"/>
<path d="M130.521 119.78C138.293 113.963 141.178 113.665 145.134 105.277C147.727 99.7734 152.357 99.0626 152.634 105.387C153.084 115.73 144.632 125.336 140.744 127.824L130.521 119.78Z" fill="#EB9481"/>
<path d="M112.636 140.216C112.636 140.216 119.195 129.747 126.868 122.734C132.172 117.883 144.883 108.612 165.402 114.889C170.268 116.378 176.148 121.95 167.315 122.404C161.044 122.728 156.967 121.04 153.355 121.892C153.355 121.892 159.993 129.868 158.31 134.681C157.557 136.835 155.373 142.662 153.021 146.953C153.021 146.953 151.949 146.692 150.638 146.169C150.638 146.169 146.378 154.197 138.319 157.511L112.636 140.216Z" fill="#EB9481"/>
<path d="M132.664 118.908C136.432 118.819 144.413 118.767 150.962 120.998C158.232 123.476 171.575 130.202 169.693 135.554C168.314 139.474 162.993 137.357 162.993 137.357C162.993 137.357 167.922 141.303 165.899 144.57C164.054 147.549 160.04 145.662 160.04 145.662C160.04 145.662 162.617 148.568 160.291 151.098C157.49 154.14 152.545 147.549 147.047 148.181C145.814 148.317 132.664 118.908 132.664 118.908Z" fill="#EB9481"/>
<path d="M147.063 128.242C150.617 128.739 158.404 131.943 162.962 137.195C163.066 137.315 163.03 137.457 162.915 137.368C156.669 132.653 149.964 129.486 147.042 128.315C147 128.295 147.026 128.237 147.063 128.242Z" fill="#263238"/>
<path d="M144.779 135.659C147.8 136.406 155.676 140.065 160.119 145.542C160.218 145.662 160.176 145.803 160.061 145.709C153.737 140.514 147.601 137.07 144.753 135.727C144.716 135.706 144.742 135.648 144.779 135.659Z" fill="#263238"/>
<path d="M141.58 114.272C150.016 111.836 159.319 111.632 167.467 115.254C169.056 115.892 170.65 116.754 171.659 118.207C173.075 120.188 172.009 122.101 169.761 122.571C166.443 123.193 163.124 122.597 159.836 122.247C157.688 121.996 155.509 121.489 153.35 121.881C155.467 121.254 157.725 121.641 159.889 121.725C162.063 121.887 164.232 122.007 166.396 121.981C167.922 121.934 169.584 121.965 170.807 121.056C171.565 120.439 171.329 119.519 170.817 118.787C169.223 116.665 166.411 116.012 164.049 115.071C156.784 112.662 149.054 112.892 141.58 114.272Z" fill="#263238"/>
<path d="M147.068 120.23C154.719 121.139 162.235 124.369 167.827 129.742C171.35 132.873 171.81 139.108 165.585 138.266C164.786 138.157 164.017 137.958 163.265 137.718L163.699 136.939C165.476 138.674 167.399 141.162 166.589 143.791C165.69 146.54 162.319 146.822 160.066 145.698C164.028 147.157 167.786 144.475 165.387 140.336C164.514 138.763 162.904 137.446 161.566 136.28C163.495 136.803 165.794 137.744 167.775 137.19C170.89 136.118 168.81 132.031 167.091 130.484C161.639 125.179 154.469 121.855 147.068 120.23Z" fill="#263238"/>
<path d="M118.265 123.496L134.498 168.549C134.498 168.549 110.937 186.387 103.333 184.97C97.8974 183.956 93.2824 157.97 102.586 144.585L118.265 123.496Z" fill="#FFC727"/>
<path d="M97.223 164.252C96.7161 161.08 97.3119 152.367 102.575 144.559C102.622 144.491 102.742 144.549 102.7 144.622C99.345 150.82 97.129 161.153 97.3537 164.252C97.3642 164.331 97.2387 164.331 97.223 164.252Z" fill="#263238"/>
<path d="M125.368 167.158C123.46 162.941 121.782 158.629 120.115 154.306C118.448 149.984 116.77 145.662 115.207 141.298C114.324 138.831 113.43 136.369 112.631 133.876C112.61 133.808 112.714 133.761 112.746 133.824C114.648 138.031 116.352 142.348 118.04 146.65C119.739 150.961 121.39 155.294 123 159.637C123.909 162.094 124.777 164.566 125.571 167.059C125.619 167.185 125.425 167.284 125.368 167.158Z" fill="#263238"/>
<path d="M117.925 123.272C116.645 124.547 115.578 125.995 114.481 127.427C113.383 128.859 112.312 130.307 111.256 131.77C109.15 134.671 104.362 140.587 101.43 146.43C101.399 146.493 101.88 146.321 101.906 146.258C103.16 143.404 117.183 125.498 118.129 123.925C118.202 124.045 119.305 126.878 119.399 126.988C119.462 127.061 119.608 127.035 119.592 126.92C119.556 126.648 118.432 123.69 118.38 123.423C118.338 123.193 118.092 123.104 117.925 123.272Z" fill="#263238"/>
<path d="M81.6114 128.399C83.958 143.561 88.3535 168.476 97.9964 180.324C99.6061 182.169 101.498 183.883 103.84 184.61C105.256 184.819 106.714 184.317 108.078 183.857C109.965 183.167 111.81 182.3 113.624 181.38C120.867 177.617 127.725 173.111 134.498 168.554C129.423 172.275 107.414 188.932 102.104 184.955C88.3274 177.758 82.9964 143.028 81.6114 128.399Z" fill="#263238"/>
<path d="M136.197 57.6428C135.209 57.7055 134.211 57.7892 133.265 58.04L133.228 58.0139C126.397 53.1689 117.199 51.1411 109.28 54.3867C106.678 55.4425 104.253 56.9372 102.042 58.709C104.122 56.7857 106.516 55.1759 109.129 54.0313C115.74 51.0993 123.559 52.0609 129.768 55.5365C130.908 56.1794 132.528 57.1202 133.254 57.8676C134.232 57.6637 135.219 57.6324 136.197 57.6428Z" fill="white"/>
<path d="M54.3085 78.8573C54.3085 78.8573 39.3712 73.0872 32.8904 66.3242C26.4095 59.5611 25.6621 51.8364 28.1656 50.1952C32.1952 47.5506 40.5994 60.3033 40.5994 60.3033C40.5994 60.3033 33.9357 41.697 41.8381 40.0924C48.3451 38.7701 49.3224 60.3973 51.575 69.2719C52.9444 74.6708 54.3085 78.8573 54.3085 78.8573Z" fill="#FFC727"/>
<path d="M56.8326 42.282C56.8326 42.282 52.1706 33.2924 51.5695 26.4458C50.9685 19.5938 53.0382 15.1775 55.2333 15.3029C58.2385 15.4754 57.5173 25.3586 57.5173 25.3586C57.5173 25.3586 61.2437 13.8813 64.9963 15.9039C69.2873 18.214 62.4615 29.4248 59.6758 35.5346C57.9772 39.2611 56.8326 42.282 56.8326 42.282Z" fill="#FFC727"/>
<path d="M162.225 98.2682C162.225 98.2682 168.821 92.0748 171.826 87.2194C174.972 82.1393 174.559 78.7369 172.824 78.1776C170.336 77.3727 166.49 84.8623 166.49 84.8623C166.49 84.8623 167.66 75.3083 164.216 76.1288C160.275 77.0644 159.883 85.4895 161.253 92.216C161.942 95.5452 162.225 98.2682 162.225 98.2682Z" fill="#FFC727"/>
</g>
<defs>
<clipPath id="clip0_111_707">
<rect width="201" height="231.883" fill="white"/>
</clipPath>
</defs>
</svg>
