<svg width="32" height="33" viewBox="0 0 32 33" fill="none" xmlns="http://www.w3.org/2000/svg">
<g id="facebook">
<g id="vuesax/linear/facebook">
<g id="facebook_2">
<path id="Vector" d="M18.6667 12.753V16.6197H22.1333C22.4 16.6197 22.5333 16.8864 22.5333 17.153L22 19.6864C22 19.8197 21.7333 19.953 21.6 19.953H18.6667V29.6864H14.6667V20.0864H12.4C12.1333 20.0864 12 19.953 12 19.6864V17.153C12 16.8864 12.1333 16.753 12.4 16.753H14.6667V12.353C14.6667 10.0864 16.4 8.35303 18.6667 8.35303H22.2667C22.5333 8.35303 22.6667 8.48636 22.6667 8.75303V11.953C22.6667 12.2197 22.5333 12.353 22.2667 12.353H19.0667C18.8 12.353 18.6667 12.4864 18.6667 12.753Z" stroke="#B9EB00" stroke-width="1.5" stroke-miterlimit="10" stroke-linecap="round"/>
<path id="Vector_2" d="M20 29.6862H12C5.33333 29.6862 2.66667 27.0195 2.66667 20.3529V12.3529C2.66667 5.6862 5.33333 3.01953 12 3.01953H20C26.6667 3.01953 29.3333 5.6862 29.3333 12.3529V20.3529C29.3333 27.0195 26.6667 29.6862 20 29.6862Z" stroke="#B9EB00" stroke-width="1.5" stroke-linecap="round" stroke-linejoin="round"/>
</g>
</g>
</g>
</svg>
