<svg width="32" height="33" viewBox="0 0 32 33" fill="none" xmlns="http://www.w3.org/2000/svg">
<g id="instagram">
<g id="vuesax/linear/instagram">
<g id="instagram_2">
<path id="Vector" d="M12 29.6862H20C26.6667 29.6862 29.3333 27.0195 29.3333 20.3529V12.3529C29.3333 5.6862 26.6667 3.01953 20 3.01953H12C5.33333 3.01953 2.66667 5.6862 2.66667 12.3529V20.3529C2.66667 27.0195 5.33333 29.6862 12 29.6862Z" stroke="#B9EB00" stroke-width="1.5" stroke-linecap="round" stroke-linejoin="round"/>
<path id="Vector_2" d="M16 21.0199C18.5773 21.0199 20.6667 18.9305 20.6667 16.3532C20.6667 13.7759 18.5773 11.6865 16 11.6865C13.4227 11.6865 11.3333 13.7759 11.3333 16.3532C11.3333 18.9305 13.4227 21.0199 16 21.0199Z" stroke="#B9EB00" stroke-width="1.5" stroke-linecap="round" stroke-linejoin="round"/>
<path id="Vector_3" d="M23.5148 9.6862H23.5302" stroke="#B9EB00" stroke-width="1.5" stroke-linecap="round" stroke-linejoin="round"/>
</g>
</g>
</g>
</svg>
