<svg width="1280" height="317" viewBox="0 0 1280 317" fill="none" xmlns="http://www.w3.org/2000/svg">
<g clip-path="url(#clip0_83_131)">
<path d="M57.1829 60.7252C35.8105 87.6914 0 122.087 0 159.11C0 201.213 31.8043 222.723 60.7858 248.677V56.2119C59.5936 57.6872 58.3926 59.1975 57.1829 60.7252Z" fill="#B9EB00"/>
<path d="M66.0546 253.013C94.589 280.049 115.707 316.697 158.198 316.697C207.754 316.697 226.075 284.021 255.25 248.64L60.786 248.666C62.0922 249.853 64.7747 251.791 66.0546 253.013Z" fill="#B9EB00"/>
<path d="M317.684 157.17C317.684 195.31 277.797 221.316 255.25 248.649L255.417 56.1924C258.038 58.82 265.2 63.8309 267.768 66.38C270.749 69.3481 275.553 72.9011 278.349 75.6859C302.606 99.815 317.684 117.955 317.684 157.17Z" fill="#B9EB00"/>
<path d="M255.417 56.1924H60.8038C88.2162 22.0591 110.518 0.706055 159.066 0.706055C198.961 0.706055 228.697 29.4444 255.417 56.1924Z" fill="#B9EB00"/>
<path d="M60.7935 56.1924C60.7935 56.1924 60.7855 56.2004 60.7775 56.2084V56.1924H60.7935Z" fill="#B9EB00"/>
<path d="M460.601 224.031C441.149 204.659 431.427 180.801 431.427 152.438C431.427 124.075 441.149 100.216 460.601 80.8451C480.054 61.4738 504.012 51.7925 532.494 51.7925C560.976 51.7925 584.934 61.4738 604.387 80.8451C623.839 100.216 633.561 124.084 633.561 152.438C633.561 180.792 623.839 204.659 604.387 224.031C584.934 243.402 560.967 253.083 532.494 253.083C504.021 253.083 480.054 243.402 460.601 224.031ZM489.776 105.533C478.844 117.309 473.374 132.944 473.374 152.438C473.374 171.931 478.835 187.566 489.776 199.343C500.707 211.119 514.944 217.003 532.494 217.003C550.044 217.003 564.272 211.119 575.212 199.343C586.144 187.566 591.614 171.94 591.614 152.438C591.614 132.936 586.144 117.309 575.212 105.533C564.281 93.7565 550.044 87.8726 532.494 87.8726C514.944 87.8726 500.707 93.7565 489.776 105.533Z" fill="#B9EB00"/>
<path d="M667.881 249.286V55.5899H707.925V82.1721H709.828C713.133 76.6025 717.454 71.5392 722.793 66.9823C734.996 56.8557 749.741 51.7925 767.037 51.7925C787.629 51.7925 804.285 57.8684 816.996 70.0202C822.335 75.0835 826.657 81.0372 829.962 87.8726H831.864C835.423 81.2904 840.376 75.3367 846.74 70.0202C860.469 57.8684 877.756 51.7925 898.611 51.7925C921.237 51.7925 938.971 58.8199 951.814 72.8749C964.648 86.9298 971.073 107.122 971.073 133.451V249.286H931.029V135.345C931.029 103.7 917.047 87.8726 889.073 87.8726C875.59 87.8726 863.958 93.1279 854.174 103.63C844.382 114.14 839.491 127.244 839.491 142.94V249.286H799.446V135.345C799.446 103.7 785.464 87.8726 757.49 87.8726C744.008 87.8726 732.375 93.1279 722.592 103.63C712.8 114.14 707.908 127.244 707.908 142.94V249.286H667.863H667.881Z" fill="#B9EB00"/>
<path d="M1032.68 224.031C1013.22 204.659 1003.5 180.801 1003.5 152.438C1003.5 124.075 1013.22 100.216 1032.68 80.8451C1052.13 61.4738 1076.09 51.7925 1104.57 51.7925C1133.05 51.7925 1157.01 61.4738 1176.46 80.8451C1195.91 100.216 1205.64 124.084 1205.64 152.438C1205.64 180.792 1195.91 204.659 1176.46 224.031C1157.01 243.402 1133.04 253.083 1104.57 253.083C1076.1 253.083 1052.13 243.402 1032.68 224.031ZM1061.85 105.533C1050.92 117.309 1045.45 132.944 1045.45 152.438C1045.45 171.931 1050.91 187.566 1061.85 199.343C1072.78 211.119 1087.02 217.003 1104.57 217.003C1122.12 217.003 1136.35 211.119 1147.29 199.343C1158.22 187.566 1163.69 171.94 1163.69 152.438C1163.69 132.936 1158.22 117.309 1147.29 105.533C1136.35 93.7565 1122.12 87.8726 1104.57 87.8726C1087.02 87.8726 1072.78 93.7565 1061.85 105.533Z" fill="#B9EB00"/>
<path d="M1239.96 249.285V55.5894H1280V249.285H1239.96Z" fill="#B9EB00"/>
</g>
<defs>
<clipPath id="clip0_83_131">
<rect width="1280" height="316" fill="white" transform="translate(0 0.706055)"/>
</clipPath>
</defs>
</svg>
