<svg width="160" height="40" viewBox="0 0 160 40" fill="none" xmlns="http://www.w3.org/2000/svg">
<g id="OmoiBlack logo 1" clip-path="url(#clip0_2008_585)">
<g id="Layer_1-2">
<g id="Group">
<g id="Group_2">
<g id="Group_3">
<path id="Vector" d="M7.14786 7.70082C4.47631 11.0857 0 15.4031 0 20.0504C0 25.3354 3.97554 28.0354 7.59823 31.2932V7.13429C7.4492 7.31948 7.29908 7.50905 7.14786 7.70082Z" fill="#B9EB00"/>
<path id="Vector_2" d="M8.25678 31.8378C11.8236 35.2315 14.4633 39.8316 19.7747 39.8316C25.9692 39.8316 28.2594 35.7301 31.9062 31.2888L7.59821 31.2921C7.76148 31.4412 8.09679 31.6844 8.25678 31.8378Z" fill="#B9EB00"/>
<path id="Vector_3" d="M39.7104 19.8071C39.7104 24.5947 34.7246 27.859 31.9062 31.2899L31.927 7.1321C32.2546 7.46193 33.1499 8.09091 33.471 8.41089C33.8436 8.78346 34.444 9.22944 34.7936 9.579C37.8257 12.6078 39.7104 14.8848 39.7104 19.8071Z" fill="#B9EB00"/>
<path id="Vector_4" d="M31.927 7.1321H7.6004C11.0269 2.84755 13.8146 0.167236 19.8831 0.167236C24.8701 0.167236 28.587 3.77459 31.927 7.1321Z" fill="#B9EB00"/>
</g>
<path id="Vector_5" d="M7.5993 7.1321C7.5993 7.1321 7.5982 7.13319 7.59711 7.13429V7.1321H7.5993Z" fill="#B9EB00"/>
</g>
<g id="Group_4">
<path id="Vector_6" d="M57.5751 28.1998C55.1436 25.7682 53.9283 22.7734 53.9283 19.2132C53.9283 15.653 55.1436 12.6582 57.5751 10.2266C60.0067 7.79505 63.0015 6.57982 66.5617 6.57982C70.122 6.57982 73.1168 7.79505 75.5483 10.2266C77.9799 12.6582 79.1951 15.6541 79.1951 19.2132C79.1951 22.7723 77.9799 25.7682 75.5483 28.1998C73.1168 30.6314 70.1209 31.8466 66.5617 31.8466C63.0026 31.8466 60.0067 30.6314 57.5751 28.1998ZM61.2219 13.3255C59.8555 14.8037 59.1717 16.7663 59.1717 19.2132C59.1717 21.6601 59.8544 23.6227 61.2219 25.1009C62.5884 26.5791 64.368 27.3177 66.5617 27.3177C68.7555 27.3177 70.534 26.5791 71.9015 25.1009C73.268 23.6227 73.9518 21.6612 73.9518 19.2132C73.9518 16.7652 73.268 14.8037 71.9015 13.3255C70.5351 11.8473 68.7555 11.1087 66.5617 11.1087C64.368 11.1087 62.5884 11.8473 61.2219 13.3255Z" fill="#B9EB00"/>
<path id="Vector_7" d="M83.4852 31.3699V7.05649H88.4907V10.3932H88.7285C89.1416 9.69406 89.6819 9.0585 90.3492 8.4865C91.8746 7.21538 93.7177 6.57982 95.8797 6.57982C98.4537 6.57982 100.536 7.34249 102.125 8.86783C102.792 9.50339 103.332 10.2507 103.745 11.1087H103.983C104.428 10.2825 105.047 9.53517 105.843 8.86783C107.559 7.34249 109.72 6.57982 112.326 6.57982C115.155 6.57982 117.371 7.46193 118.977 9.22616C120.581 10.9904 121.384 13.525 121.384 16.8299V31.3699H116.379V17.0677C116.379 13.0954 114.631 11.1087 111.134 11.1087C109.449 11.1087 107.995 11.7684 106.772 13.0866C105.548 14.406 104.936 16.0508 104.936 18.021V31.3699H99.9308V17.0677C99.9308 13.0954 98.183 11.1087 94.6864 11.1087C93.001 11.1087 91.5469 11.7684 90.324 13.0866C89.1 14.406 88.4886 16.0508 88.4886 18.021V31.3699H83.483H83.4852Z" fill="#B9EB00"/>
<path id="Vector_8" d="M129.084 28.1998C126.653 25.7682 125.438 22.7734 125.438 19.2132C125.438 15.653 126.653 12.6582 129.084 10.2266C131.516 7.79505 134.511 6.57982 138.071 6.57982C141.631 6.57982 144.626 7.79505 147.058 10.2266C149.489 12.6582 150.704 15.6541 150.704 19.2132C150.704 22.7723 149.489 25.7682 147.058 28.1998C144.626 30.6314 141.63 31.8466 138.071 31.8466C134.512 31.8466 131.516 30.6314 129.084 28.1998ZM132.731 13.3255C131.365 14.8037 130.681 16.7663 130.681 19.2132C130.681 21.6601 131.364 23.6227 132.731 25.1009C134.098 26.5791 135.877 27.3177 138.071 27.3177C140.265 27.3177 142.043 26.5791 143.411 25.1009C144.777 23.6227 145.461 21.6612 145.461 19.2132C145.461 16.7652 144.777 14.8037 143.411 13.3255C142.044 11.8473 140.265 11.1087 138.071 11.1087C135.877 11.1087 134.098 11.8473 132.731 13.3255Z" fill="#B9EB00"/>
<path id="Vector_9" d="M154.994 31.3699V7.05649H160V31.3699H154.994Z" fill="#B9EB00"/>
</g>
</g>
</g>
</g>
<defs>
<clipPath id="clip0_2008_585">
<rect width="160" height="39.6655" fill="white" transform="translate(0 0.167236)"/>
</clipPath>
</defs>
</svg>
