<svg width="301" height="172" viewBox="0 0 301 172" fill="none" xmlns="http://www.w3.org/2000/svg">
<path d="M300.176 204.739C279.541 226.23 234.763 242.306 202.191 233.923C196.641 232.631 191.284 230.668 186.233 228.074C177.66 223.675 169.975 217.455 163.74 209.615C163.716 209.586 163.692 209.555 163.668 209.525C151.236 194.751 124.836 121.739 116.025 105.533C192.239 125.34 205.954 207.353 296.104 184.75L300.176 204.739Z" fill="#EB5648"/>
<path d="M116.575 7.19872C116.575 7.19872 123.538 3.29985 127.716 9.55657C131.894 15.8133 127.19 20.0682 132.391 25.5763C137.591 31.082 140.809 32.0842 139.323 37.3412C137.837 42.5982 133.85 43.1785 135.596 49.7718C134.504 49.5816 100.911 14.3601 116.575 7.19872Z" fill="#5E1226"/>
<path d="M186.235 228.073H186.233C177.66 223.674 169.975 217.454 163.74 209.615L156.2 151.066C156.2 151.066 174.896 179.901 186.235 228.073Z" fill="#CE3932"/>
<path d="M116.018 105.535C117.564 91.9024 115.456 72.2447 113.574 64.147C110.185 48.1883 85.1505 54.3645 89.3114 70.0502C90.1194 69.5382 92.7027 98.4542 90.9178 106.481C67.4243 113.608 138.081 137.033 116.018 105.535Z" fill="#AA5635"/>
<path d="M179.016 298.24C171.688 325.686 99.208 301.251 72.3135 284.463C70.1209 283.095 67.5111 282.247 64.7324 281.759C53.4584 279.779 39.3889 283.739 38.9571 282.966C28.9374 265.066 51.9847 205.579 67.6196 163.035C74.5664 144.131 80.049 128.572 80.5169 121.493C80.0586 117.114 87.0391 109.202 90.9153 106.481C102.674 114.786 119.317 120.435 116.03 105.544C124.455 112.642 133.891 120.343 141.918 129.364C170.258 158.441 191.337 260.948 179.016 298.24Z" fill="#EB5648"/>
<path d="M67.5424 208.074C54.1724 236.612 57.1537 256.643 64.7324 281.76C53.4584 279.78 39.3889 283.74 38.9571 282.967C28.9374 265.067 51.9847 205.579 67.6196 163.036L89.3209 154.94C89.3209 154.94 80.9101 179.538 67.5424 208.074Z" fill="#CE3932"/>
<path d="M89.07 68.7364C89.1328 69.1753 89.2099 69.6216 89.3113 70.0531C89.8926 69.663 91.5231 85.6193 91.5376 97.1989C102.303 102.146 114.303 99.9713 116.5 99.5153C116.734 84.8464 115.403 71.4844 113.27 63.0917C108.629 48.852 87.0753 53.909 89.07 68.7364Z" fill="#7C3021"/>
<path d="M133.223 86.0275C120.62 98.4093 99.946 99.9869 86.6218 89.6825H86.6073C71.983 76.0987 67.5521 48.7139 76.1993 31.3117C82.6733 16.3282 103.509 8.04279 116.575 19.2834C123.292 24.972 126.045 32.9892 129.556 41.3185C130.804 43.9616 133.237 47.4168 135.594 49.7673C144.692 59.0305 144.707 73.5579 133.223 86.0275Z" fill="#AA5635"/>
<path d="M89.3186 154.941C75.6735 200.094 32.3795 220.322 66.6958 295.359C55.7933 310.018 41.8709 307.372 41.8709 307.372C32.5724 297.195 25.0275 287.12 19.0408 277.22C-32.7027 191.65 31.8078 119.129 84.1495 107.633C86.4313 107.133 88.689 106.747 90.9129 106.482C94.7915 126.159 93.3419 141.632 89.3186 154.941Z" fill="#EB5648"/>
<path d="M124.141 107.947C124.141 107.947 125.579 119.722 116.025 121.558C97.6546 125.091 82.2681 108.072 82.2681 108.072C86.4144 105.855 90.9153 106.482 90.9153 106.482C98.9644 111.685 104.223 113.741 108.031 114.445C118.393 116.357 116.16 106.094 116.03 105.548C116.03 105.548 116.032 105.55 116.037 105.555C120.345 105.533 124.141 107.947 124.141 107.947Z" fill="#CE3932"/>
<path d="M114.956 51.0807C115.984 49.1105 112.899 47.5256 111.929 49.525C110.904 51.4952 113.989 53.0801 114.956 51.0807Z" fill="#7C3021"/>
<path d="M129.231 48.6547C130.256 46.6845 127.173 45.0996 126.204 47.099C125.176 49.0692 128.261 50.6541 129.231 48.6547Z" fill="#7C3021"/>
<path d="M123.003 27.0467C112.962 35.8027 101.519 22.3383 101.314 35.2151C101.504 40.4648 92.0345 38.9213 90.9129 41.384C89.8009 43.8467 91.0938 48.538 88.964 51.7298C86.8317 54.9215 76.1559 58.8472 76.1559 58.8472C78.6717 69.6222 77.1063 78.8463 88.9278 91.3963C88.127 90.8745 87.3575 90.3015 86.6219 89.6822H86.6074C69.6168 73.4259 65.7672 39.5528 82.5189 22.3481C93.899 10.2491 115.258 11.561 123.003 27.0467Z" fill="#7C3021"/>
<path d="M123.833 63.5788C123.03 63.4983 121.348 63.6519 121.532 62.4888C121.64 62.1475 122.004 61.9573 122.34 62.0694C124.503 62.8448 129.745 61.3282 127.231 59.7726C123.659 58.0194 118.941 47.5615 122.255 50.0851C122.279 50.1534 124.638 56.8758 127.844 58.629C131.776 61.4257 126.939 63.5373 123.833 63.5788Z" fill="#7C3021"/>
<path d="M120.663 23.6236C120.663 23.6236 126.127 16.8158 120.345 11.8099C114.563 6.80408 114.923 -0.70594 106.943 0.547355C98.9644 1.79821 95.9927 2.77355 87.3262 0.408384C78.6596 -1.95678 71.3101 6.46516 71.643 12.0172C71.9758 17.5668 60.3376 17.5668 58.6034 25.0768C56.8691 32.5869 58.6034 34.8374 58.6034 38.0926C58.6034 41.3453 48.451 45.6026 50.4337 53.3613C52.414 61.1201 58.8518 59.9301 60.0892 64.9068C61.3266 69.8809 57.5396 78.415 63.22 81.2167C71.643 85.3716 78.8936 79.8951 78.8936 79.8951C63.3937 46.5926 88.2355 61.7613 86.0598 43.096C84.3569 35.8371 94.9676 38.0901 97.4616 34.3351C99.9557 30.5801 98.1563 26.0765 102.771 25.0744C107.382 24.0747 110.424 29.6828 120.663 23.6236Z" fill="#5E1226"/>
<path d="M65.0315 63.7988C67.7909 76.6829 83.3535 73.357 80.7171 60.4461C77.9601 47.5621 62.3975 50.8904 65.0315 63.7988Z" fill="#AA5635"/>
<path d="M69.079 66.4614C68.804 66.4614 68.5483 66.281 68.4639 66.0006C65.5598 57.7932 69.969 54.3649 75.3093 56.5789C76.086 56.8764 75.6133 58.1028 74.8414 57.7883C70.2585 55.8864 67.2675 58.7685 69.6941 65.6202C69.8243 66.0323 69.5011 66.4687 69.079 66.4614Z" fill="#7C3021"/>
<path d="M75.0754 65.5543C73.9103 65.3982 73.2663 60.6435 68.3095 60.1339C67.955 60.1095 67.6872 59.7999 67.7113 59.4439C67.7355 59.0854 68.0297 58.8196 68.394 58.8391C73.2687 59.1732 77.0677 65.386 75.0754 65.5543Z" fill="#7C3021"/>
<path d="M123.399 71.6791C117.299 71.6791 113.203 68.1216 112.995 67.9363C112.713 67.6851 112.684 67.2511 112.933 66.9658C113.181 66.6805 113.61 66.6513 113.893 66.9024C113.951 66.9536 119.744 71.9595 127.53 69.7089C127.892 69.6041 128.269 69.8162 128.372 70.1819C128.476 70.5477 128.266 70.9281 127.904 71.0329C126.31 71.4913 124.802 71.6791 123.399 71.6791Z" fill="#7C3021"/>
<path d="M104.227 47.7425C104.141 47.7425 104.054 47.7254 103.967 47.6889C103.62 47.5426 103.456 47.1427 103.598 46.7916C103.704 46.5331 106.261 40.4641 114.443 38.7963C114.809 38.7207 115.169 38.9621 115.243 39.3352C115.318 39.7082 115.079 40.0691 114.71 40.1447C107.269 41.6613 104.949 47.089 104.855 47.3182C104.746 47.584 104.493 47.7425 104.227 47.7425Z" fill="#7C3021"/>
<path d="M128.194 41.0731C128.051 41.0731 127.909 41.0292 127.786 40.9365C124.503 38.447 120.576 39.5613 120.538 39.5711C120.178 39.6759 119.8 39.4686 119.694 39.1053C119.587 38.742 119.793 38.3592 120.154 38.2519C120.34 38.1958 124.761 36.923 128.604 39.8368C128.905 40.0636 128.966 40.4952 128.739 40.8C128.604 40.978 128.399 41.0731 128.194 41.0731Z" fill="#7C3021"/>
</svg>
