<svg width="32" height="33" viewBox="0 0 32 33" fill="none" xmlns="http://www.w3.org/2000/svg">
<g id="whatsapp">
<g id="vuesax/linear/whatsapp">
<g id="whatsapp_2">
<path id="Vector" d="M9.2 27.8195C11.2 29.0195 13.6 29.6862 16 29.6862C23.3333 29.6862 29.3333 23.6862 29.3333 16.3529C29.3333 9.01953 23.3333 3.01953 16 3.01953C8.66666 3.01953 2.66666 9.01953 2.66666 16.3529C2.66666 18.7529 3.33333 21.0195 4.4 23.0195L3.10711 27.9922C2.91238 28.7411 3.60559 29.4179 4.34965 29.2053L9.2 27.8195Z" stroke="#B9EB00" stroke-width="1.5" stroke-miterlimit="10" stroke-linecap="round" stroke-linejoin="round"/>
<path id="Vector_2" d="M22 20.151C22 20.367 21.9519 20.589 21.8498 20.805C21.7476 21.021 21.6154 21.225 21.4412 21.417C21.1467 21.741 20.8222 21.975 20.4557 22.125C20.0951 22.275 19.7046 22.353 19.2839 22.353C18.671 22.353 18.016 22.209 17.325 21.915C16.634 21.621 15.9429 21.225 15.2579 20.727C14.5669 20.223 13.9119 19.665 13.2869 19.047C12.668 18.423 12.1092 17.769 11.6104 17.085C11.1177 16.401 10.7211 15.717 10.4326 15.039C10.1442 14.355 10 13.701 10 13.077C10 12.669 10.0721 12.279 10.2163 11.919C10.3605 11.553 10.5889 11.217 10.9074 10.917C11.2919 10.539 11.7126 10.353 12.1572 10.353C12.3255 10.353 12.4937 10.389 12.644 10.461C12.8002 10.533 12.9384 10.641 13.0466 10.797L14.4407 12.759C14.5488 12.909 14.6269 13.047 14.681 13.179C14.7351 13.305 14.7651 13.431 14.7651 13.545C14.7651 13.689 14.7231 13.833 14.639 13.971C14.5608 14.109 14.4467 14.253 14.3025 14.397L13.8458 14.871C13.7797 14.937 13.7496 15.015 13.7496 15.111C13.7496 15.159 13.7556 15.201 13.7677 15.249C13.7857 15.297 13.8037 15.333 13.8157 15.369C13.9239 15.567 14.1102 15.825 14.3746 16.137C14.645 16.449 14.9334 16.767 15.2459 17.085C15.5704 17.403 15.8828 17.697 16.2013 17.967C16.5138 18.231 16.7722 18.411 16.9765 18.519C17.0065 18.531 17.0426 18.549 17.0846 18.567C17.1327 18.585 17.1808 18.591 17.2349 18.591C17.337 18.591 17.4151 18.555 17.4812 18.489L17.9379 18.039C18.0881 17.889 18.2323 17.775 18.3706 17.703C18.5088 17.619 18.647 17.577 18.7972 17.577C18.9114 17.577 19.0315 17.601 19.1637 17.655C19.2959 17.709 19.4342 17.787 19.5844 17.889L21.5734 19.299C21.7296 19.407 21.8378 19.533 21.9039 19.683C21.9639 19.833 22 19.983 22 20.151Z" stroke="#B9EB00" stroke-width="1.5" stroke-miterlimit="10"/>
</g>
</g>
</g>
</svg>
